<?xml version="1.0" encoding="utf-8"?>
<!-- Generator: Adobe Illustrator 19.0.0, SVG Export Plug-In . SVG Version: 6.00 Build 0)  -->
<svg version="1.1" id="Layer_1" xmlns="http://www.w3.org/2000/svg" xmlns:xlink="http://www.w3.org/1999/xlink" x="0px" y="0px"
	 viewBox="0 0 1130.5 1200" style="enable-background:new 0 0 1130.5 1200;" xml:space="preserve">
<style type="text/css">
	.st0{fill:#F9AF1E;}
	.st1{fill:#FFFFFF;}
</style>
<g id="XMLID_13_">
	<path id="XMLID_49_" class="st0" d="M0,526.9c2.8-18.4,5.1-36.9,8.5-55.1c22.9-120.4,83-218.7,178.2-295.2
		c68.1-54.8,145.9-90,232.5-101C605.6,51.9,759.8,113.1,879,258.6c54.9,67,88.2,144.9,99.9,230.6c21,154.6-20.5,291.1-125.7,406.8
		c-70.8,77.9-158.8,128.3-262.1,148.1c-163.2,31.3-308.3-8.7-431.8-120.1C73.6,846.7,23.6,749.1,5.1,635.3
		c-2-12.6-3.4-25.2-5.1-37.9C0,573.9,0,550.4,0,526.9z M492.4,906.5c190-1.1,341.3-152.4,343.9-339.1
		c2.7-193.2-151-346.8-338.8-349.4c-193.2-2.7-348.2,151.6-349.4,341C146.9,751.6,301.4,906.5,492.4,906.5z"/>
	<path id="XMLID_48_" class="st0" d="M988.8,1200c-21-5.5-41.7-11.5-58.6-26c-8.6-7.4-16.8-15.4-24.9-23.4
		c-34.1-34-68.2-68.1-102.2-102.2c-21-21.1-19.7-45,4.2-62.8c41.2-30.8,77.2-66.7,108-107.9c17.8-23.8,41.6-26.2,62.1-6
		c39.5,39,79,78.1,117.5,118c33.6,34.9,43.7,77.1,29.2,123.1c-14.7,46.9-47.8,75.3-96.3,85.2c-1.3,0.3-2.5,1.3-3.7,1.9
		C1012.3,1200,1000.5,1200,988.8,1200z"/>
	<g id="XMLID_108_">
		<path id="XMLID_52_" class="st0" d="M1067.2,130.6c-5.5,12-14.6,16.7-27.8,15.4c-14.9-1.4-29.8-1.7-44.7-2.4
			c-2-0.1-4.1,0.1-5.1,0.2c-0.3,17.2-0.9,33.9-0.8,50.6c0.2,20.3-8.4,28.9-28.6,27.8c-14.7-0.8-29.3-1.6-44-2.3
			c-2.3-0.1-4.6,0.1-5.4,0.2c-0.3,17.3-1.1,34.1-0.7,50.8c0.4,18.7-8.6,28.3-27.5,27.9c-17.3-0.4-34.5-0.6-51.1-0.9
			c-0.3,14.6-1.3,30.2-0.6,45.8c0.6,12.8-3,22.4-12.5,31.3c-31.9,30-63.1,60.8-94.8,91.1c-3.8,3.7-5,6.6-3,12
			c52.5,143-37.2,296.6-187.8,321.8C400.9,821.8,273.4,728,255.8,596c-16.1-120.6,55-231.9,170.4-265.7
			c53.6-15.7,106.7-13,158.6,7.9c5.6,2.3,9,1.9,13.5-2.5C700,237,802.2,138.8,903.7,39.8c12.7-12.4,26-17.7,43-18.4
			c27.5-1.2,54.9-3.7,82.3-6c19.6-1.7,28.5,5.2,30.4,24.6c2.3,23.2,4.4,46.4,6.6,69.7c0.2,1.8,0.9,3.5,1.4,5.2
			C1067.4,120.1,1067.3,125.4,1067.2,130.6z M416.7,569.7c-38-0.6-69.4,29.6-69.7,67.1c-0.3,37.5,29.3,68.2,66.9,69.4
			c37.4,1.2,69.1-29.3,69.8-67C484.3,601,454.8,570.4,416.7,569.7z M659.8,386c1.7-1.5,2.9-2.5,4-3.5
			c89.2-86.2,178.5-172.4,267.7-258.6c1.7-1.6,3.4-3.3,4.7-5.2c3.6-5.4,4.1-11.2,1-17c-3.1-5.8-8.4-9.6-14.8-8
			c-5.2,1.3-10.7,4.2-14.6,8c-89.4,86-178.6,172.3-267.8,258.5c-1.7,1.6-3.2,3.3-5.1,5.2C643.2,372.2,651.3,378.8,659.8,386z"/>
		<path id="XMLID_47_" class="st1" d="M416.7,569.7c38.1,0.6,67.7,31.3,67,69.5c-0.7,37.8-32.4,68.2-69.8,67
			c-37.6-1.2-67.2-31.9-66.9-69.4C347.3,599.4,378.7,569.1,416.7,569.7z"/>
		<path id="XMLID_46_" class="st1" d="M659.8,386c-8.6-7.1-16.6-13.8-24.9-20.7c1.9-1.9,3.4-3.6,5.1-5.2
			c89.2-86.2,178.4-172.5,267.8-258.5c3.9-3.7,9.4-6.7,14.6-8c6.4-1.6,11.6,2.1,14.8,8c3.1,5.8,2.6,11.6-1,17
			c-1.3,1.9-3,3.6-4.7,5.2C842.3,210,753.1,296.3,663.8,382.4C662.7,383.5,661.5,384.5,659.8,386z"/>
	</g>
	<path id="XMLID_78_" class="st1" d="M494.6,817c-53.9,0-107.6-17.5-151.9-50.3c-56-41.4-91.9-101.4-100.9-168.8
		c-17-127.2,58.9-245.4,180.4-281.1c56.2-16.5,112.3-13.8,167,8c35.5-34.4,71-68.8,106.6-103.1c65-62.8,132.2-127.8,198-192
		c14.7-14.4,31.3-21.5,52.2-22.4c25-1.1,50.6-3.3,75.3-5.4l6.5-0.6c27.6-2.3,43,10.2,45.6,37.2c1.4,13.6,2.6,27.3,3.9,40.9
		c0.9,9.5,1.8,18.9,2.7,28.4c0.1,0.3,0.2,0.6,0.3,0.8c0.3,0.8,0.5,1.5,0.7,2.3l0.6,2l-0.4,20.7l-1.2,2.7
		c-7.9,17.3-22.4,25.5-42,23.5c-10.3-1-20.5-1.4-31.3-1.8c-1.1,0-2.2-0.1-3.3-0.1c0,0.6,0,1.3,0,1.9c-0.3,11.8-0.5,23-0.4,34.3
		c0.1,14.5-3.5,25.1-11.2,32.4c-7.6,7.2-18.1,10.3-32.3,9.6c-11.6-0.6-23.2-1.3-34.8-1.9c0,0.6,0,1.3,0,1.9
		c-0.3,11.8-0.6,23-0.4,34.2c0.3,13.5-3.4,24.1-10.8,31.6c-7.4,7.4-17.8,10.9-31,10.7c-12.5-0.3-24.9-0.5-37.2-0.7
		c-0.3,10.2-0.6,20.6-0.2,30.8c0.8,17.2-4.6,30.6-16.9,42.2c-19.8,18.7-39.8,38-59.1,56.6c-11.5,11.1-22.9,22.2-34.5,33.3
		c25.6,71.7,18.5,149.6-19.2,214.7c-38.4,66-104.1,111.2-180.2,124C521.6,815.9,508.1,817,494.6,817z M494.5,334.4
		c-21.4,0-42.9,3.1-64.4,9.4c-108.1,31.7-175.5,137-160.4,250.3c8,59.9,39.8,113.1,89.7,149.9c49.4,36.5,111.7,51.7,170.9,41.8
		c67.8-11.3,126.3-51.6,160.5-110.3c34-58.4,40-128.7,16.4-192.7c-3.8-10.4-1.7-19.2,6.5-27c11.9-11.4,23.7-22.8,35.5-34.3
		c19.4-18.7,39.4-38.1,59.4-56.9c6.3-5.9,8.5-11.5,8.1-20.4c-0.5-11.5-0.2-22.7,0.2-33.6c0.1-4.4,0.3-8.8,0.4-13l0.2-14.1l27.6,0.5
		c12.4,0.2,25.1,0.4,37.7,0.7c5.1,0.1,8.8-0.8,10.5-2.5c1.8-1.8,2.7-5.7,2.6-11.1c-0.2-11.9,0.1-23.9,0.4-35.6
		c0.1-5.2,0.3-10.4,0.4-15.7l0.2-13.4l13.4-0.5c1.8-0.1,4.2-0.3,6.6-0.2c14.7,0.7,29.4,1.5,44.1,2.3c5.6,0.3,9.8-0.4,11.3-1.8
		c0.6-0.6,2.5-3.1,2.5-11.7c-0.1-11.7,0.2-23.7,0.5-35.2c0.1-5.2,0.2-10.5,0.3-15.8l0.2-13.4l13.4-0.5c2.1-0.1,4.2-0.3,6.2-0.2
		c4.2,0.2,8.3,0.4,12.5,0.5c10.7,0.4,21.9,0.9,32.9,2c7.1,0.7,10.1-1,12.4-4.9l0.2-10.2c-0.5-1.5-1.1-3.5-1.3-5.9
		c-0.9-9.6-1.8-19.3-2.7-28.9c-1.3-13.6-2.5-27.2-3.9-40.7c-1.1-10.8-2.5-13-15.2-11.9l-6.5,0.5c-25,2.1-50.8,4.3-76.4,5.5
		c-14.1,0.6-23.9,4.8-33.8,14.4C847.7,114.2,780.4,179.2,715.4,242c-35.8,34.6-71.6,69.2-107.3,103.8c-8.4,8.2-17.5,9.9-28.6,5.5
		C551.5,340.1,523.1,334.4,494.5,334.4z"/>
</g>
</svg>
