<?xml version="1.0" encoding="utf-8"?>
<!-- Generator: Adobe Illustrator 19.0.0, SVG Export Plug-In . SVG Version: 6.00 Build 0)  -->
<svg version="1.1" id="Layer_1" xmlns="http://www.w3.org/2000/svg" xmlns:xlink="http://www.w3.org/1999/xlink" x="0px" y="0px"
	 viewBox="0 0 1200 1077.5" style="enable-background:new 0 0 1200 1077.5;" xml:space="preserve">
<style type="text/css">
	.st0{fill:#F9AF1E;}
	.st1{fill:#FFFFFF;}
</style>
<g id="XMLID_91_">
	<path id="XMLID_759_" class="st0" d="M1199.5,58.6c0,262.4,0,524.8,0,787.2c-0.6,0.4-1.5,0.7-1.7,1.3c-15.2,41-37.5,56.6-81,56.6
		c-72.6,0-145.2,0-217.8,0c-273.3,0-546.5,0-819.8,0.1c-23.8,0-45.1-6.5-60.5-25.1C10.8,869,6.1,856.8,0,845.8C0,583.4,0,321,0,58.6
		c1.6-3.9,3.2-7.8,4.7-11.8C14.8,19.3,42,0.1,71.3,0.1C423.6,0,776,0,1128.4,0c17.6,0,34.1,5.1,45.4,18
		C1184.3,29.8,1191.1,44.9,1199.5,58.6z M1107.6,775.6c0-225,0-448.5,0-672.4c-338.8,0-677,0-1015.4,0c0,224.6,0,448.4,0,672.4
		C430.9,775.6,768.9,775.6,1107.6,775.6z"/>
	<path id="XMLID_745_" class="st1" d="M1107.6,775.6c-338.7,0-676.6,0-1015.4,0c0-224,0-447.8,0-672.4c338.4,0,676.6,0,1015.4,0
		C1107.6,327.1,1107.6,550.6,1107.6,775.6z M984,350c0.2-19.6-9.4-36.1-26.7-44.6c-18.1-9-35.9-7.4-51.7,4.8
		c-15.7,12.2-21.9,28.6-18.4,48.7c0.8,4.3-0.9,11-3.9,13.8c-36.7,33.8-73.8,67.3-111.2,100.4c-2.6,2.3-8.5,3.4-11.6,2.1
		c-15.1-6.7-29.3-5.8-43.8,1.8c-3,1.6-9.2,1.4-11.7-0.6c-36.6-30.5-72.9-61.3-108.8-92.5c-3.2-2.7-5.1-9.3-4.4-13.6
		c3-18.5-4.7-38.1-20.6-49c-16.8-11.5-38-11.7-54.9-0.4c-16,10.6-25.2,30.5-20.9,48.6c1.6,6.9,0.4,10.5-4.9,14.7
		C422.2,437,354.1,489.9,286.2,543.1c-8,6.2-14.5,10.9-24.3,3.5c-3.1-2.3-8.1-2.6-12.3-2.9c-28-1.9-51.8,20.3-52.1,48.3
		c-0.3,27.6,23.8,51,51.2,49.6c28.4-1.4,49.1-26.2,46.5-55.1c-0.4-4.1,1.1-10.2,4-12.5c69.6-56,139.5-111.7,209.3-167.5
		c4.8-3.8,8.5-4.9,14.4-1.5c11.4,6.7,23.9,7.5,36,2.2c6.6-2.9,10.5-1.3,15.5,2.9c37.3,32,75,63.6,112.2,95.7
		c2.9,2.5,4.7,7.6,4.8,11.6c0.2,20.2,8.5,35.5,26.2,45c17.8,9.5,35.6,8.2,51.7-3.7c15.6-11.5,22.3-27.4,19.5-47.1
		c-0.5-3.3,1.2-8.3,3.7-10.5c37.7-34.5,75.8-68.6,113.5-103.1c5.2-4.7,9.3-4.6,15.6-2.6C952.3,405.4,983.7,382.3,984,350z"/>
	<path id="XMLID_744_" class="st0" d="M874.5,1077.5c-183.4,0-363.9,0-546.1,0c2.9-3.5,4.8-6.1,7.1-8.4c41-41.8,82-83.6,123.3-125
		c3.6-3.6,9.8-6.3,14.9-6.3c84.7-0.4,169.4-0.3,254-0.1c4.2,0,9.8,1,12.5,3.8C784.5,985.8,828.5,1030.7,874.5,1077.5z"/>
	<path id="XMLID_740_" class="st0" d="M984,350c-0.3,32.3-31.7,55.4-62.5,45.5c-6.3-2-10.4-2.1-15.6,2.6
		c-37.7,34.5-75.8,68.6-113.5,103.1c-2.5,2.3-4.2,7.2-3.7,10.5c2.8,19.8-3.9,35.6-19.5,47.1c-16.1,11.9-34,13.3-51.7,3.7
		c-17.7-9.5-26-24.8-26.2-45c0-3.9-1.9-9.1-4.8-11.6c-37.2-32.1-74.9-63.8-112.2-95.7c-4.9-4.2-8.9-5.8-15.5-2.9
		c-12,5.3-24.6,4.5-36-2.2c-5.9-3.4-9.6-2.3-14.4,1.5C438.7,462.4,368.8,518,299.2,574.1c-2.9,2.3-4.3,8.4-4,12.5
		c2.6,28.9-18.1,53.7-46.5,55.1c-27.4,1.3-51.5-22.1-51.2-49.6c0.3-28,24.1-50.2,52.1-48.3c4.2,0.3,9.2,0.5,12.3,2.9
		c9.8,7.3,16.3,2.7,24.3-3.5c67.9-53.2,136-106.1,204.1-158.9c5.4-4.2,6.6-7.8,4.9-14.7c-4.3-18.1,4.9-38,20.9-48.6
		c17-11.3,38.1-11.1,54.9,0.4c15.9,10.9,23.6,30.5,20.6,49c-0.7,4.3,1.3,10.8,4.4,13.6c35.9,31.2,72.2,62,108.8,92.5
		c2.5,2.1,8.6,2.2,11.7,0.6c14.5-7.6,28.7-8.5,43.8-1.8c3.1,1.3,9,0.2,11.6-2.1c37.3-33.2,74.5-66.6,111.2-100.4
		c3.1-2.8,4.7-9.5,3.9-13.8c-3.5-20.1,2.7-36.5,18.4-48.7c15.8-12.2,33.6-13.8,51.7-4.8C974.5,313.9,984.1,330.4,984,350z"/>
</g>
</svg>
