<?xml version="1.0" encoding="utf-8"?>
<!-- Generator: Adobe Illustrator 19.0.0, SVG Export Plug-In . SVG Version: 6.00 Build 0)  -->
<svg version="1.1" id="Layer_1" xmlns="http://www.w3.org/2000/svg" xmlns:xlink="http://www.w3.org/1999/xlink" x="0px" y="0px"
	 viewBox="0 0 1200 774.2" style="enable-background:new 0 0 1200 774.2;" xml:space="preserve">
<style type="text/css">
	.st0{fill:#F9AF1E;}
</style>
<g id="XMLID_55_">
	<g id="XMLID_53_">
		<path id="XMLID_60_" class="st0" d="M1200,772.5c-4.2,0.6-8.4,1.6-12.6,1.6c-104.3,0.1-208.5-0.1-312.8,0.3
			c-11.6,0-14.5-3.7-14.5-14.7c0.4-65.4,0.2-170.4,0.2-235.8c0-21.9,6-41.6,21.1-58c13.8-15,31.1-21.4,51.3-21.4
			c64,0.1,128.1,0,192.1,0c38.1,0,62,18.2,72.7,55.3c0.5,1.8,1.6,3.4,2.4,5.2C1200,580.9,1200,696.5,1200,772.5z"/>
		<path id="XMLID_59_" class="st0" d="M0,504.9c2.8-7.2,5.1-14.6,8.6-21.4c13.1-25.7,34-39,62.9-39c63.3,0,126.6,1.3,189.8-0.4
			c50.1-1.4,78.2,36.1,78.3,78.6c0.1,50.1,0,139.8,0,190c0,16.5-0.2,32.9,0.1,49.3c0.2,8.7-2.2,12.4-12,12.4
			c-105.8-0.3-211.7-0.2-317.5-0.3c-3.4,0-6.8-1-10.3-1.6C0,696.5,0,580.9,0,504.9z"/>
		<path id="XMLID_58_" class="st0" d="M600.1,774.2c-66.4,0-132.7-0.2-199.1,0.2c-9,0-12.7-2.4-12.6-11.6
			c0.4-88.5-0.4-216.6,1.1-305c0.7-44.4,39.2-85.7,88.5-84.7c82,1.6,164,1.3,246,0.1c46.1-0.7,85.3,37.8,86.3,83.1
			c2.1,88.8,0.9,217.3,1.3,306.2c0,10-4.4,12-13.5,12C732.1,774,666.1,774.2,600.1,774.2z"/>
		<path id="XMLID_57_" class="st0" d="M759.9,160.4c0.6,87.8-70.7,160-158.6,160.5c-89.2,0.6-161.1-70.7-161.2-160.2
			C440,75.7,506.3,0.9,599.8,0C688.2-0.9,759.3,71.5,759.9,160.4z"/>
		<path id="XMLID_56_" class="st0" d="M41.6,268.1c0.8-72.5,58.3-128.8,130.8-127.9c70.5,0.8,126.2,59.5,125.3,132.1
			C296.9,341.9,238,399.1,168.1,398C97.4,397,40.8,338.9,41.6,268.1z"/>
		<path id="XMLID_54_" class="st0" d="M1158.4,269.6c-0.1,71-57.1,128.2-127.9,128.3c-70.8,0.1-128.5-58.1-128.2-129.4
			c0.3-70.8,57.7-128.3,128-128.3C1101.7,140.3,1158.6,197.8,1158.4,269.6z"/>
	</g>
</g>
</svg>
