<?xml version="1.0" encoding="utf-8"?>
<!-- Generator: Adobe Illustrator 19.0.0, SVG Export Plug-In . SVG Version: 6.00 Build 0)  -->
<svg version="1.1" id="Layer_1" xmlns="http://www.w3.org/2000/svg" xmlns:xlink="http://www.w3.org/1999/xlink" x="0px" y="0px"
	 viewBox="0 0 572.2 1200" style="enable-background:new 0 0 572.2 1200;" xml:space="preserve">
<style type="text/css">
	.st0{opacity:0.2;clip-path:url(#XMLID_15_);}
	.st1{fill:#F9AF1E;}
</style>
<g id="XMLID_547_">
	<defs>
		<polygon id="XMLID_480_" points="572.5,1200 0,1200 -0.5,0 572,0 		"/>
	</defs>
	<clipPath id="XMLID_15_">
		<use xlink:href="#XMLID_480_"  style="overflow:visible;"/>
	</clipPath>
	<g id="XMLID_414_" class="st0">
		<path id="XMLID_924_" class="st1" d="M575,2.9c-1,3.6-0.8,9.3-3.2,10.6c-28.2,16.1-53.7,38.3-86.8,43.9c-17.4,3-35.7,1.3-53.5,2.3
			c-6.6,0.4-13.2,2.7-19.8,4.1c3.9,5.3,7.2,11.4,11.9,15.9c48.1,44.9,71.9,101.4,78.7,165.8c5.6,52.8-3.2,102.9-28.4,149.9
			c-17.1,31.9-44.3,54.9-69.4,79.8c-14.9,14.7-30,29.5-43,45.9c-26.1,33.2-25.6,68,2.9,99.4c17.1,18.9,37.8,34.5,56.8,51.8
			c24.8,22.5,50.7,43.7,73.8,67.8c81.5,84.9,83.8,220.3,11.5,313.6c-57.3,74-133.9,115.5-224.2,133.7c-23.5,4.7-47.7,6.6-71.5,9.8
			c-2.6,0.4-5.1,1.5-7.6,2.2c-28,0-56.1,0-84.1,0c-3.7-0.8-7.4-2-11.2-2.3c-58.2-4.9-113.5-20.1-165.6-46.8
			c-53.5-27.4-92.6-67.2-109.3-126.4c-2.2-7.7-4.1-15.5-6.1-23.2c0-15.6,0-31.2,0-46.7c0.7-1.3,1.8-2.6,2-4
			c12.7-69,47.9-122.9,107.2-161C0.1,748,72.1,732.6,145.1,720.7c24.1-3.9,48.7-5,73-7.5c16.2-1.7,20.2-9.6,12.1-23.7
			c-3.7-6.4-7.6-12.7-11.1-19.1c-19.7-36-25.9-72.9-8.4-111.7c1.4-3,1.9-6.4,3.4-11.7c-8.8-0.5-16-1.1-23.2-1.4
			c-24-1-48.4,0.6-72-3.2C-34.5,517.6-142.8,368.9-74.8,199.7C-29.3,86.6,61.2,26.7,181,10.1c18.3-2.6,36.7-4.8,55.1-7.2
			C349.1,2.9,462,2.9,575,2.9z M251.6,755.1c-60.9,0.9-114.8,9.1-166.7,28.3c-45.8,17-85,42.1-108,87.2
			c-38.7,75.6-10.4,169.9,67.5,213.7c94.4,53,194.6,63.7,298.2,30.3c40.9-13.2,76.4-35.6,96.8-75.6c31-60.7,22.6-137.4-35.7-193.3
			c-25.7-24.6-55.5-45-83.1-67.7C298.7,759.9,274.4,750.8,251.6,755.1z M370,346.1c0-57-14.5-118.9-38.6-173.2
			c-14.8-33.3-34.6-62.4-62.9-85.6c-49.6-40.7-124.7-44-170.6-6.1C60.7,112,43.3,153.9,40.1,200.8c-6,87.1,20.5,165.3,72.6,234.3
			c33.5,44.4,78.2,70.2,136.2,68c53.5-2,91.2-29.2,109.2-79.6C367.3,397.5,370.8,370.7,370,346.1z"/>
	</g>
</g>
</svg>
