<?xml version="1.0" encoding="utf-8"?>
<!-- Generator: Adobe Illustrator 19.0.0, SVG Export Plug-In . SVG Version: 6.00 Build 0)  -->
<svg version="1.1" id="Layer_1" xmlns="http://www.w3.org/2000/svg" xmlns:xlink="http://www.w3.org/1999/xlink" x="0px" y="0px"
	 viewBox="0 0 769.6 1200" style="enable-background:new 0 0 769.6 1200;" xml:space="preserve">
<style type="text/css">
	.st0{opacity:0.2;clip-path:url(#XMLID_17_);}
	.st1{fill:#F9AF1E;}
	.st2{fill:#FFFFFF;}
	.st3{fill:none;}
</style>
<g id="XMLID_411_">
	<defs>
		<rect id="XMLID_375_" y="0" width="769.6" height="1200"/>
	</defs>
	<clipPath id="XMLID_17_">
		<use xlink:href="#XMLID_375_"  style="overflow:visible;"/>
	</clipPath>
	<g id="XMLID_81_" class="st0">
		<g id="XMLID_7_">
			<path id="XMLID_305_" class="st1" d="M46.2,437.2c20.1-104.1,66.3-191.3,134.1-263.6C268,80.2,372.8,26.7,491,10.1
				c160.1-22.5,307.3,17.5,435.7,132c91.5,81.6,150.6,187.4,170.7,319.6c2,13.1,3.5,26.3,5.2,39.5c0,23.8,0,47.6,0,71.3
				c-3.2,21.7-5.5,43.6-9.7,65.1c-20,103.7-66.2,190.5-133.8,262.4c-86,91.5-188.4,144.7-304.5,162.4
				c-162.5,24.7-311.4-15-441.8-130.8c-85-75.4-142.4-172.8-166.2-294c-4.2-21.4-6.5-43.4-9.7-65.1c0-23.8,0-47.6,0-71.3
				C40,479.9,42.2,458.3,46.2,437.2z M271,498.4c3-72,13.1-142.2,32.5-209.8c-27.7-17.9-54.6-35.3-82.6-53.4
				c-63.9,72-105.1,158.1-115.2,263.2C161.1,498.4,215.5,498.4,271,498.4z M918.4,838.3c64.3-71.5,105-157.8,115.4-262.8
				c-54.7,0-109,0-165.1,0c-3.4,71.1-12.8,141.4-32.8,209.3C863.7,802.9,890.4,820.2,918.4,838.3z M270.9,575.3
				c-55.6,0-110,0-165.3,0c10.1,104.8,50.9,191,115.2,262.9c27.8-18,54.8-35.4,82.5-53.3C283.9,717.5,274,647.2,270.9,575.3z
				 M1033.7,498.3c-9.9-104.6-50.9-190.5-114.8-262.9c-27.5,17.7-54.5,35.1-81.5,52.4c6.9,33.9,15.4,68.4,20.8,103.6
				c5.4,35,7.8,70.5,11.7,106.9C924.5,498.3,978.8,498.3,1033.7,498.3z M801.3,498.3c-2.5-63.3-12.2-124.2-29.8-184.6
				c-55.2,18.4-110.9,28.9-168.1,31.4c0,51.4,0,101.6,0,153.2C669.4,498.3,734.8,498.3,801.3,498.3z M603.4,728.4
				c57,2.9,112.8,12.9,167.2,31.3c14.1-32.1,32.6-146.5,29.8-184.2c-65.3,0-130.7,0-196.9,0C603.4,626.8,603.4,677,603.4,728.4z
				 M536,345.3c-57-2.9-112.8-13-167.1-31.3c-14.3,33.4-32.6,146.8-29.8,184.2c65.3,0,130.6,0,196.9,0C536,447,536,396.8,536,345.3z
				 M535.8,728.6c0-51.5,0-102,0-153.1c-65.6,0-130.9,0-196.2,0c-4.2,30.2,13.5,143.6,29,184.4C423.2,741.5,478.7,731.2,535.8,728.6
				z M603.5,85.8c0,61.6,0,121.2,0,182.7c48.1-2.3,95-11.2,142.2-27C712.6,171.7,673.6,111.4,603.5,85.8z M745,833.7
				C727.8,822,629.9,803,603.6,806.1c0,59.9,0,119.8,0,181.7C673.5,962.4,712.5,902,745,833.7z M536.1,805.2
				c-48.4,2.2-95.3,11.1-142.5,27c33.1,69.8,72.1,130,142.5,155.8C536.1,925.8,536.1,866.5,536.1,805.2z M535.8,268.6
				c0-60.9,0-120.5,0-182.6c-70.1,25.2-108.8,85.8-142.1,155.3C440.7,257.3,487.5,265.8,535.8,268.6z M862,894.7
				c-0.2-1.6-0.3-3.2-0.5-4.7c-16.8-10.3-33.6-20.7-50-30.7c-17,31.6-33.2,61.8-49.4,92c0.3,1,0.5,2.1,0.8,3.1
				C795.9,934.4,828.9,914.5,862,894.7z M328,214.5c16.7-31.1,32.7-61,49.6-92.5c-35.8,15.2-68.3,35.2-101.1,61
				C295.1,194.4,311.7,204.6,328,214.5z M277.9,889.9c-0.2,1.6-0.3,3.2-0.5,4.8c33,19.9,66.1,39.7,99.1,59.6c0.3-0.9,0.7-1.7,1-2.6
				c-16.3-30.3-32.6-60.6-49.7-92.2C311.6,869.4,294.8,879.7,277.9,889.9z M761.9,122c16.7,31.1,32.7,60.9,49.5,92.2
				c16.2-9.8,33.1-19.9,51.8-31.1C830,157.1,797.5,137.1,761.9,122z"/>
			<path id="XMLID_302_" class="st2" d="M105.7,498.4c55.5,0,109.8,0,165.3,0c3-72,13.1-142.2,32.5-209.8
				c-27.7-17.9-54.6-35.3-82.6-53.4C157,307.1,115.7,393.2,105.7,498.4z"/>
			<path id="XMLID_301_" class="st2" d="M835.9,784.9c27.8,18,54.5,35.3,82.5,53.4c64.3-71.5,105-157.8,115.4-262.8
				c-54.7,0-109,0-165.1,0C865.3,646.7,855.9,717,835.9,784.9z"/>
			<path id="XMLID_300_" class="st2" d="M303.4,784.9c-19.5-67.4-29.3-137.8-32.4-209.6c-55.6,0-110,0-165.3,0
				c10.1,104.8,50.9,191,115.2,262.9C248.6,820.3,275.6,802.9,303.4,784.9z"/>
			<path id="XMLID_299_" class="st2" d="M869.9,498.3c54.5,0,108.9,0,163.8,0c-9.9-104.6-50.9-190.5-114.8-262.9
				c-27.5,17.7-54.5,35.1-81.5,52.4c6.9,33.9,15.4,68.4,20.8,103.6C863.7,426.4,866.1,462,869.9,498.3z"/>
			<path id="XMLID_298_" class="st2" d="M603.5,498.3c66,0,131.3,0,197.8,0c-2.5-63.3-12.2-124.2-29.8-184.6
				c-55.2,18.4-110.9,28.9-168.1,31.4C603.5,396.5,603.5,446.7,603.5,498.3z"/>
			<path id="XMLID_297_" class="st2" d="M603.4,575.6c0,51.2,0,101.4,0,152.9c57,2.9,112.8,12.9,167.2,31.3
				c14.1-32.1,32.6-146.5,29.8-184.2C735,575.6,669.6,575.6,603.4,575.6z"/>
			<path id="XMLID_296_" class="st2" d="M536,498.2c0-51.2,0-101.4,0-152.9c-57-2.9-112.8-13-167.1-31.3
				c-14.3,33.4-32.6,146.8-29.8,184.2C404.4,498.2,469.8,498.2,536,498.2z"/>
			<path id="XMLID_295_" class="st2" d="M368.6,760c54.6-18.5,110.1-28.7,167.2-31.4c0-51.5,0-102,0-153.1c-65.6,0-130.9,0-196.2,0
				C335.4,605.7,353.1,719.1,368.6,760z"/>
			<path id="XMLID_276_" class="st2" d="M745.7,241.5c-33.1-69.8-72.1-130.1-142.2-155.7c0,61.6,0,121.2,0,182.7
				C651.7,266.2,698.5,257.3,745.7,241.5z"/>
			<path id="XMLID_275_" class="st2" d="M603.6,987.9C673.5,962.4,712.5,902,745,833.7C727.8,822,629.9,803,603.6,806.1
				C603.6,866,603.6,926,603.6,987.9z"/>
			<path id="XMLID_274_" class="st2" d="M536.1,988.1c0-62.2,0-121.6,0-182.8c-48.4,2.2-95.3,11.1-142.5,27
				C426.8,902,465.8,962.3,536.1,988.1z"/>
			<path id="XMLID_255_" class="st2" d="M393.7,241.3c47,16,93.7,24.6,142.1,27.3c0-60.9,0-120.5,0-182.6
				C465.7,111.2,427,171.8,393.7,241.3z"/>
			<path id="XMLID_238_" class="st2" d="M762.9,954.3c33-19.9,66.1-39.8,99.1-59.7c-0.2-1.6-0.3-3.2-0.5-4.7
				c-16.8-10.3-33.6-20.7-50-30.7c-17,31.6-33.2,61.8-49.4,92C762.3,952.3,762.6,953.3,762.9,954.3z"/>
			<path id="XMLID_237_" class="st2" d="M276.4,183c18.6,11.4,35.3,21.6,51.5,31.5c16.7-31.1,32.7-61,49.6-92.5
				C341.7,137.2,309.2,157.2,276.4,183z"/>
			<path id="XMLID_236_" class="st2" d="M327.9,859.5c-16.3,9.9-33.2,20.2-50,30.4c-0.2,1.6-0.3,3.2-0.5,4.8
				c33,19.9,66.1,39.7,99.1,59.6c0.3-0.9,0.7-1.7,1-2.6C361.3,921.4,344.9,891.1,327.9,859.5z"/>
			<path id="XMLID_235_" class="st2" d="M863.2,183.1c-33.2-25.9-65.8-46-101.3-61.1c16.7,31.1,32.7,60.9,49.5,92.2
				C827.6,204.4,844.5,194.3,863.2,183.1z"/>
			<path id="XMLID_15_" class="st2" d="M157.2,575.6h348.6l30.4,54.4v358.1c0,0-115.3-3.2-171.7-41.1V836.1L218.6,707L157.2,575.6z"
				/>
		</g>
		<g id="XMLID_110_">
			<path id="XMLID_177_" class="st2" d="M87.8,1086.2c2.1,18.4,19.6,32.3,38.1,30.3c18.6-2.1,33-20,30.9-38.4
				c-2.1-18.4-20.4-33-38.7-30.8C99.8,1049.4,85.7,1067.5,87.8,1086.2z"/>
			<path id="XMLID_111_" class="st3" d="M156.9,1078.1c2.1,18.4-12.3,36.4-30.9,38.4c-18.5,2-36-11.9-38.1-30.3
				c-2.2-18.7,11.9-36.7,30.3-38.9C136.5,1045.1,154.8,1059.6,156.9,1078.1z"/>
			<path id="XMLID_156_" class="st3" d="M156.9,1078.1c2.1,18.4-12.3,36.4-30.9,38.4c-18.5,2-36-11.9-38.1-30.3
				c-2.2-18.7,11.9-36.7,30.3-38.9C136.5,1045.1,154.8,1059.6,156.9,1078.1z"/>
			<path id="XMLID_155_" class="st3" d="M156.9,1078.1c2.1,18.4-12.3,36.4-30.9,38.4c-18.5,2-36-11.9-38.1-30.3
				c-2.2-18.7,11.9-36.7,30.3-38.9C136.5,1045.1,154.8,1059.6,156.9,1078.1z"/>
			<g id="XMLID_77_">
				<path id="XMLID_20_" class="st1" d="M361.6,526.6c-0.3,0.1-0.5,0.3-0.8,0.4c-55,28.2-90,74.5-106.6,136.5
					c-9.4,34.9-8.2,69.8,9.8,102.5c2.3,4.2,2,6.6-1.3,10.2c-39.4,43.3-78.5,86.9-117.9,130.2c-31.9,35.1-64.3,69.8-96.3,104.8
					c-15.3,16.8-27.2,35.7-33.2,57.9c-1.7,6.4-2.2,13.1-3.3,19.6c0.9,7.5,1.7,15,2.6,22.6c1,2.5,2,4.9,3,7.4
					c16.6,38.6,46.5,61.4,86.3,72.1c5,1.3,10.2,1.7,15.3,2.5c7.1-0.8,14.2-1.6,21.3-2.4c0.5-0.4,0.9-1,1.4-1.2
					c18.2-4.3,32.5-15.1,45.7-27.7c12.5-12,21.2-26.9,31-41.1c56.5-82.1,113.6-163.9,170.4-245.9c2.2-3.1,4.1-4,7.7-2.8
					c24.7,7.7,49.6,6.8,73.6-1.5c71.7-24.7,117.2-73.2,137.3-143.6c5.7-20.3,14.3-62.2-5.1-78.4l0,0c-3.4-2.8-6.9-5.7-10.4-8.4
					c-7.6-6-12.2-5.4-18.1,2c-7.9,9.8-15.5,19.9-23.6,29.6c-0.6,0.8-1.3,1.5-1.9,2.3l-27.8,35.9c-18.3,23.6-52.5,27.9-76,9.6
					L403,687.1c-23.6-18.3-27.9-52.5-9.6-76l58.8-75.9c0.8-4-1.3-7.3-6.6-11.5c-4.3-3.4-8.6-6.7-12.9-10l0,0c0,0-21-9.1-59.8,7.6
					C369.1,523,365.3,524.8,361.6,526.6z"/>
				<path id="XMLID_23_" class="st2" d="M117.9,1201.8c-1.5-0.2-3.1-0.4-4.6-0.6c-3.7-0.5-7.6-1-11.6-2
					c-44.2-11.9-75.2-37.8-92.1-77.1l-3.1-7.4l-3.3-26.1l0.2-1.2c0.3-2,0.6-4,0.9-6c0.6-4.7,1.3-9.6,2.6-14.5
					c5.9-21.9,17.4-42,35.2-61.5c14.5-15.8,29-31.6,43.5-47.3c17.6-19.1,35.2-38.2,52.7-57.4c19.5-21.4,38.9-42.9,58.4-64.5
					c19.8-21.9,39.6-43.9,59.6-65.8c0,0,0,0,0,0c-17.7-32.3-21.3-68.9-10.5-109c17.6-65.5,55-113.3,111.9-142.4
					c3.8-1.9,7.7-3.8,11.7-5.6l0.1,0c41.1-17.6,64.3-8.7,66.8-7.6l1.8,1.1c4.4,3.3,8.8,6.7,13,10.1c3.3,2.6,11.9,9.4,9.7,20.1
					l-0.4,2l-60.1,77.6c-15.3,19.8-11.7,48.4,8.1,63.7l41.6,32.2c19.8,15.3,48.4,11.7,63.7-8.1l28-36.2l1.9-2.2
					c5.1-6.1,10.1-12.4,15-18.7c2.8-3.6,5.6-7.2,8.5-10.7c8.9-11.1,19.2-12.3,30.5-3.4c3.5,2.8,7,5.7,10.6,8.6
					c21.7,18,16.3,57.5,8,87.6C595,803,546.9,853.3,473.2,878.8c-25.9,8.9-51.9,9.6-77.7,2c-19.6,28.4-39.3,56.7-59,85
					c-37,53.2-73.9,106.5-110.7,159.9c-2.1,3-4.1,6-6.1,9c-7.6,11.5-15.5,23.3-26.1,33.4c-11.3,10.9-26.9,23.9-47.7,29.4l-1.8,1.5
					l-25.1,2.9L117.9,1201.8z M140,1181c17.5-4.1,30.9-15.2,41.6-25.5c9.2-8.8,16.2-19.3,23.6-30.5c2.1-3.1,4.1-6.2,6.2-9.2
					c36.8-53.4,73.7-106.7,110.7-159.9c19.9-28.7,39.8-57.3,59.7-86c4.4-6.4,10.3-8.4,17.5-6.2c22.4,7,45.3,6.5,68.2-1.4
					c68-23.4,112.3-69.8,131.7-137.6c9.5-34.3,8.7-60.2-2.3-69.2c-3.4-2.8-6.8-5.6-10.2-8.3c-2-1.6-3-2-3.1-2.2
					c-0.3,0.2-1.2,0.9-2.7,2.8c-2.8,3.5-5.6,7-8.3,10.6c-5.1,6.5-10.1,12.9-15.4,19.2l-29.5,37.9c-21.3,27.5-60.9,32.5-88.4,11.2
					l-41.6-32.2c-27.5-21.3-32.5-60.9-11.2-88.4l56.4-72.8c-0.5-0.6-1.3-1.3-2.6-2.4c-3.8-3-7.7-6-11.6-9c-4-1.2-22-5.1-52.1,7.8
					c-3.7,1.6-7.3,3.3-11.5,5.5c-51.5,26.4-85.9,70.4-102.1,130.9c-9.5,35.5-6.5,67.8,9,96c4.1,7.5,3.3,13.9-2.5,20.3
					c-19.9,21.9-39.7,43.8-59.5,65.7c-19.4,21.5-38.9,43.1-58.4,64.5c-17.5,19.2-35.2,38.4-52.8,57.5c-14.5,15.7-29,31.5-43.5,47.3
					c-15.9,17.4-26.1,35.1-31.2,54.2c-1,3.8-1.6,7.9-2.2,12.3c-0.2,1.8-0.5,3.5-0.7,5.2l2.3,20.1l2.5,6.1
					c14.8,34.6,41.2,56.5,80.5,67.1c3,0.8,6.1,1.2,9.2,1.6c1.3,0.2,2.6,0.3,3.9,0.5l17.5-2C137.8,1181.7,138.8,1181.2,140,1181z"/>
			</g>
			<circle id="XMLID_109_" class="st2" cx="122.3" cy="1081.8" r="34.8"/>
		</g>
	</g>
</g>
</svg>
