<?xml version="1.0" encoding="utf-8"?>
<!-- Generator: Adobe Illustrator 16.0.0, SVG Export Plug-In . SVG Version: 6.00 Build 0)  -->
<!DOCTYPE svg PUBLIC "-//W3C//DTD SVG 1.1//EN" "http://www.w3.org/Graphics/SVG/1.1/DTD/svg11.dtd">
<svg version="1.1" id="Layer_1" xmlns="http://www.w3.org/2000/svg" xmlns:xlink="http://www.w3.org/1999/xlink" x="0px" y="0px"
	 width="14.309px" height="8.933px" viewBox="0 0 14.309 8.933" enable-background="new 0 0 14.309 8.933" xml:space="preserve">
<path fill="#F9AF1E" d="M0.345,3.974c0.006-0.005,0.016-0.009,0.019-0.016C0.466,3.68,0.67,3.573,0.959,3.574
	c2.252,0.003,7.36,0.002,9.612,0.002h0.189c-0.049-0.053-0.075-0.087-0.105-0.118c-0.568-0.567-1.136-1.135-1.703-1.702
	c-0.283-0.283-0.283-0.58,0-0.862c0.144-0.145,0.287-0.29,0.433-0.432c0.243-0.238,0.553-0.237,0.796,0.005
	c1.2,1.198,2.4,2.398,3.6,3.6c0.244,0.244,0.246,0.547,0.004,0.794c-0.283,0.288-0.57,0.571-0.855,0.858
	c-0.898,0.899-1.796,1.799-2.695,2.7c-0.307,0.307-0.595,0.309-0.9,0.002C9.2,8.289,9.067,8.156,8.936,8.023
	C8.676,7.76,8.676,7.451,8.94,7.188c0.575-0.578,1.152-1.154,1.729-1.731c0.027-0.027,0.052-0.057,0.096-0.104h-0.175
	c-2.226,0-7.308-0.004-9.534,0.006c-0.331,0.002-0.574-0.084-0.71-0.395V3.974z"/>
</svg>
