<?xml version="1.0" encoding="utf-8"?>
<!-- Generator: Adobe Illustrator 16.0.0, SVG Export Plug-In . SVG Version: 6.00 Build 0)  -->
<!DOCTYPE svg PUBLIC "-//W3C//DTD SVG 1.1//EN" "http://www.w3.org/Graphics/SVG/1.1/DTD/svg11.dtd">
<svg version="1.1" id="Layer_1" xmlns="http://www.w3.org/2000/svg" xmlns:xlink="http://www.w3.org/1999/xlink" x="0px" y="0px"
	 viewBox="0 0 720.504 1060" enable-background="new 0 0 720.504 1060" xml:space="preserve">
<g>
	<defs>
		<rect id="SVGID_13_" y="-69.979" width="1845.97" height="1190.219"/>
	</defs>
	<clipPath id="SVGID_2_">
		<use xlink:href="#SVGID_13_"  overflow="visible"/>
	</clipPath>
	<g opacity="0.2" clip-path="url(#SVGID_2_)">
		<path fill="#FAAF1F" d="M589.598,664.444l-86.747,51.829c-3.128,1.868-7.22,0.83-9.087-2.297l-12.613-21.11
			c-1.872-3.138-5.973-4.165-9.101-2.296l-121.383,72.52c-3.128,1.869-4.165,5.969-2.292,9.104l12.614,21.111
			c1.867,3.124,0.846,7.222-2.279,9.086l-65.216,38.965c-3.138,1.875-4.165,5.963-2.299,9.089l14.594,24.425
			c1.866,3.127,5.961,4.164,9.095,2.289l296.104-176.91c3.127-1.867,4.151-5.963,2.284-9.089l-14.594-24.425
			C596.82,663.605,592.726,662.576,589.598,664.444L589.598,664.444z M589.598,664.444"/>
		<path fill="#FAAF1F" d="M394.12,6.238l-619.027,369.845c-21.543,12.87-28.586,40.855-15.714,62.399l60.875,101.889
			c8.044,13.465,8.179,15.966,17.219,10.564l15.495-9.257c7.574-4.525,4.89-5.506-3.305-19.219l-60.725-101.639
			c-3.075-5.146-1.329-12.104,3.817-15.179L411.782,35.799c5.146-3.075,12.102-1.315,15.177,3.831l227.855,381.374L213.49,684.678
			c0,0-15.578,9.26-3.56,29.377l28.498,47.698c11.996,20.08,28.053,10.485,28.053,10.485L697.81,514.54
			c21.543-12.873,28.601-40.862,15.736-62.396L456.526,21.964C443.656,0.419,415.663-6.634,394.12,6.238L394.12,6.238z
			 M368.151,665.739c-9.723,5.811-22.314,2.633-28.123-7.089c-5.803-9.715-2.629-22.297,7.097-28.104
			c9.713-5.805,22.307-2.644,28.109,7.07C381.042,647.338,377.864,659.936,368.151,665.739L368.151,665.739z M368.151,665.739"/>
		<path fill="#FAAF1F" d="M0.728,500.748l-223.941,133.796c-13.908,8.309-18.454,26.369-10.145,40.276l219.905,368.066
			c8.304,13.898,26.364,18.461,40.273,10.152l223.94-133.797c13.898-8.303,18.448-26.375,10.145-40.275L41.001,510.902
			C32.69,496.995,14.625,492.445,0.728,500.748L0.728,500.748z M-123.502,609.867l55.247-33.011
			c2.635-1.572,6.048-0.714,7.624,1.925c1.575,2.638,0.718,6.059-1.916,7.633l-55.248,33.009c-2.638,1.577-6.054,0.705-7.629-1.931
			C-126.999,614.854-126.143,611.442-123.502,609.867L-123.502,609.867z M127.875,968.639c-7.205,4.305-16.536,1.952-20.845-5.262
			c-4.307-7.207-1.957-16.542,5.246-20.845c7.204-4.304,16.536-1.949,20.843,5.258C137.428,955.003,135.078,964.334,127.875,968.639
			L127.875,968.639z M220.817,861.068c2.008,3.358,0.958,7.723-2.326,9.686L-0.577,1001.639c-3.293,1.968-7.627,0.817-9.631-2.543
			l-182.734-305.851c-2.009-3.362-0.969-7.718,2.325-9.688L28.452,552.675c3.284-1.964,7.624-0.819,9.632,2.542L220.817,861.068z
			 M220.817,861.068"/>
	</g>
</g>
</svg>
