<?xml version="1.0" encoding="utf-8"?>
<!-- Generator: Adobe Illustrator 16.0.0, SVG Export Plug-In . SVG Version: 6.00 Build 0)  -->
<!DOCTYPE svg PUBLIC "-//W3C//DTD SVG 1.1//EN" "http://www.w3.org/Graphics/SVG/1.1/DTD/svg11.dtd">
<svg version="1.1" id="Layer_1" xmlns="http://www.w3.org/2000/svg" xmlns:xlink="http://www.w3.org/1999/xlink" x="0px" y="0px"
	 width="1200px" height="1200px" viewBox="0 0 1200 1200" enable-background="new 0 0 1200 1200" xml:space="preserve">
<g>
	<path fill="#454546" d="M1198.18,602.191c0,330.167-267.653,597.809-597.82,597.809c-330.167,0-597.82-267.642-597.82-597.809
		c0-330.15,267.654-597.792,597.82-597.792C930.526,4.399,1198.18,272.041,1198.18,602.191z"/>
	<g>
		<path fill="#FFFFFF" d="M975.152,892.744"/>
		<path fill="#FFFFFF" d="M952.138,852.101c0,16.265-11.48,29.47-25.668,29.47h-675.26c-14.16,0-25.642-13.205-25.642-29.47V392.652
			c0-16.279,11.482-29.483,25.642-29.483h675.26c14.188,0,25.668,13.204,25.668,29.483V852.101z"/>
		<path fill="#F8A92F" d="M330.741,393.699c0,12.463-10.104,22.529-22.555,22.529s-22.529-10.066-22.529-22.529
			c0-12.428,10.078-22.505,22.529-22.505S330.741,381.271,330.741,393.699z"/>
		<path fill="#454546" d="M330.741,393.699c0,12.463-10.104,22.529-22.555,22.529s-22.529-10.066-22.529-22.529
			c0-12.428,10.078-22.505,22.529-22.505S330.741,381.271,330.741,393.699z"/>
		<path fill="#61312C" d="M322.704,367.429c0,10.054-6.482,18.154-14.519,18.154l0,0c-7.987,0-14.493-8.101-14.493-18.154v-32.722
			c0-10.028,6.506-18.155,14.493-18.155l0,0c8.037,0,14.519,8.126,14.519,18.155V367.429z"/>
		<path fill="#FFFFFF" d="M322.704,362.53c0,10.053-6.482,18.155-14.519,18.155l0,0c-7.987,0-14.493-8.102-14.493-18.155v-32.722
			c0-10.027,6.506-18.142,14.493-18.142l0,0c8.037,0,14.519,8.115,14.519,18.142V362.53z"/>
		<path fill="#F8A92F" d="M894.934,395.496c0,12.44-10.055,22.518-22.532,22.518c-12.45,0-22.502-10.078-22.502-22.518
			c0-12.451,10.052-22.529,22.502-22.529C884.879,372.966,894.934,383.044,894.934,395.496z"/>
		<path fill="#454546" d="M894.934,395.496c0,12.44-10.055,22.518-22.532,22.518c-12.45,0-22.502-10.078-22.502-22.518
			c0-12.451,10.052-22.529,22.502-22.529C884.879,372.966,894.934,383.044,894.934,395.496z"/>
		<path fill="#61312C" d="M886.92,369.204c0,10.04-6.479,18.142-14.519,18.142l0,0c-8.011,0-14.491-8.102-14.491-18.142v-32.699
			c0-10.041,6.48-18.167,14.491-18.167l0,0c8.039,0,14.519,8.126,14.519,18.167V369.204z"/>
		<path fill="#FFFFFF" d="M886.92,364.305c0,10.041-6.479,18.141-14.519,18.141l0,0c-8.011,0-14.491-8.101-14.491-18.141v-32.699
			c0-10.04,6.48-18.153,14.491-18.153l0,0c8.039,0,14.519,8.114,14.519,18.153V364.305z"/>
		<rect x="399.02" y="648.539" fill="#C5C3C4" width="73.968" height="73.969"/>
		<rect x="399.02" y="648.539" fill="#C5C3C4" width="73.994" height="73.969"/>
		<rect x="399.02" y="648.539" fill="#F05F56" width="73.968" height="73.969"/>
		<rect x="399.02" y="648.539" fill="#454546" width="73.994" height="73.969"/>
		<rect x="399.02" y="551.407" fill="#C5C3C4" width="73.994" height="73.99"/>
		<rect x="399.02" y="551.407" fill="#C5C3C4" width="73.968" height="73.99"/>
		<rect x="399.02" y="546.507" fill="#454546" width="73.994" height="73.992"/>
		<rect x="500.62" y="547.274" fill="#454546" width="74.02" height="73.989"/>
		<rect x="399.02" y="744.132" fill="#C5C3C4" width="73.968" height="73.956"/>
		<rect x="399.02" y="744.132" fill="#C5C3C4" width="73.994" height="73.956"/>
		<rect x="399.02" y="744.132" fill="#C5C3C4" width="73.968" height="73.956"/>
		<rect x="399.02" y="744.132" fill="#454546" width="73.994" height="73.956"/>
		<rect x="500.62" y="648.539" fill="#454546" width="74.02" height="73.969"/>
		<rect x="500.62" y="744.132" fill="#454546" width="74.02" height="73.956"/>
		<rect x="295.02" y="649.306" fill="#454546" width="73.994" height="73.968"/>
		<rect x="295.02" y="547.274" fill="#454546" width="73.994" height="73.989"/>
		<rect x="295.02" y="744.885" fill="#454546" width="73.994" height="73.968"/>
		<rect x="707.907" y="647.391" fill="#C5C3C4" width="73.969" height="73.957"/>
		<rect x="707.907" y="647.391" fill="#C5C3C4" width="73.992" height="73.957"/>
		<rect x="707.907" y="647.391" fill="#F05F56" width="73.969" height="73.957"/>
		<rect x="707.907" y="647.391" fill="#454546" width="73.992" height="73.957"/>
		<rect x="707.907" y="550.26" fill="#C5C3C4" width="73.992" height="73.964"/>
		<rect x="707.907" y="550.26" fill="#C5C3C4" width="73.969" height="73.964"/>
		<rect x="707.907" y="545.361" fill="#454546" width="73.992" height="73.965"/>
		<rect x="809.532" y="546.125" fill="#454546" width="73.996" height="73.991"/>
		<rect x="707.907" y="742.96" fill="#C5C3C4" width="73.969" height="73.994"/>
		<rect x="707.907" y="742.96" fill="#C5C3C4" width="73.992" height="73.994"/>
		<rect x="707.907" y="742.96" fill="#C5C3C4" width="73.969" height="73.994"/>
		<rect x="707.907" y="742.96" fill="#454546" width="73.992" height="73.994"/>
		<rect x="809.532" y="647.391" fill="#454546" width="73.996" height="73.957"/>
		<rect x="809.532" y="742.96" fill="#454546" width="73.996" height="73.994"/>
		<rect x="603.906" y="648.157" fill="#FFFFFF" width="73.995" height="73.968"/>
		<rect x="603.906" y="546.125" fill="#454546" width="73.995" height="73.991"/>
		<rect x="603.906" y="743.724" fill="#454546" width="73.995" height="73.982"/>
	</g>
</g>
</svg>
