<?xml version="1.0" encoding="utf-8"?>
<!-- Generator: Adobe Illustrator 16.0.0, SVG Export Plug-In . SVG Version: 6.00 Build 0)  -->
<!DOCTYPE svg PUBLIC "-//W3C//DTD SVG 1.1//EN" "http://www.w3.org/Graphics/SVG/1.1/DTD/svg11.dtd">
<svg version="1.1" id="Layer_1" xmlns="http://www.w3.org/2000/svg" xmlns:xlink="http://www.w3.org/1999/xlink" x="0px" y="0px"
	 width="1200px" height="1200px" viewBox="0 0 1200 1200" enable-background="new 0 0 1200 1200" xml:space="preserve">
<g>
	<g>
		<path fill="#B5B5B5" d="M1134.092,1071.069l-183.558-183.9c0,0,0.97,0.651,0,0c-43.708,44.933-20.862,22.85-43.708,44.933
			c-22.85,22.094,0,0-38.001,35.669c0.924,0.947,0.924,0.947,0,0l167.836,178.328c37.235,35.968,85.741,73.078,123.808,30.513
			C1197.624,1140.688,1171.271,1107.05,1134.092,1071.069z"/>
		<path fill="#B5B5B5" d="M268.948,794.238c-149.898-149.912-149.853-393.965,0.034-543.714
			c149.909-149.888,393.823-149.888,543.678-0.091c149.806,149.84,149.748,393.618,0,543.758
			C662.773,943.608,418.892,944.146,268.948,794.238z M908.001,154.966c-202.469-202.434-531.858-202.434-734.36,0.058
			c-202.708,202.42-202.719,532.063-0.149,734.568c202.604,202.421,532.041,202.421,734.509-0.036
			C1110.479,687.054,1110.458,357.421,908.001,154.966z"/>
		
			<text transform="matrix(0.9916 0 0 1 360.6953 748.1904)" fill="#B5B5B5" font-family="'MyriadPro-Regular'" font-size="754.3981">$</text>
	</g>
</g>
</svg>
