<?xml version="1.0" encoding="utf-8"?>
<!-- Generator: Adobe Illustrator 16.0.0, SVG Export Plug-In . SVG Version: 6.00 Build 0)  -->
<!DOCTYPE svg PUBLIC "-//W3C//DTD SVG 1.1//EN" "http://www.w3.org/Graphics/SVG/1.1/DTD/svg11.dtd">
<svg version="1.1" id="Layer_1" xmlns="http://www.w3.org/2000/svg" xmlns:xlink="http://www.w3.org/1999/xlink" x="0px" y="0px"
	 viewBox="0 0 1200 1200" enable-background="new 0 0 1200 1200" xml:space="preserve">
<g>
	<polygon points="384.509,271.546 384.509,842.267 815.491,842.267 815.491,370.817 713.63,271.546 	"/>
	<g>
		<polygon fill="#FFFFFF" points="692.935,395.222 692.935,319.694 429.194,319.694 429.194,794.106 770.839,794.106 
			770.839,396.403 		"/>
		<g>
			<path d="M726.097,441.394c0,6.543-5.307,11.834-11.822,11.834H516.528c-6.57,0-11.846-5.291-11.846-11.834l0,0
				c0-6.543,5.275-11.846,11.846-11.846h197.746C720.79,429.548,726.097,434.851,726.097,441.394L726.097,441.394z"/>
			<path d="M726.097,525.474c0,6.527-5.307,11.846-11.822,11.846H516.528c-6.57,0-11.846-5.318-11.846-11.846l0,0
				c0-6.547,5.275-11.85,11.846-11.85h197.746C720.79,513.624,726.097,518.927,726.097,525.474L726.097,525.474z"/>
			<path d="M726.097,609.534c0,6.543-5.307,11.834-11.822,11.834H516.528c-6.57,0-11.846-5.291-11.846-11.834l0,0
				c0-6.543,5.275-11.85,11.846-11.85h197.746C720.79,597.685,726.097,602.991,726.097,609.534L726.097,609.534z"/>
			<path d="M726.097,693.599c0,6.543-5.307,11.861-11.822,11.861H516.528c-6.57,0-11.846-5.318-11.846-11.861l0,0
				c0-6.531,5.275-11.822,11.846-11.822h197.746C720.79,681.776,726.097,687.067,726.097,693.599L726.097,693.599z"/>
			<path d="M473.292,441.394c0,6.543-5.307,11.834-11.822,11.834c-6.547,0-11.846-5.291-11.846-11.834s5.299-11.846,11.846-11.846
				C467.985,429.548,473.292,434.851,473.292,441.394z"/>
			<path d="M473.292,525.474c0,6.527-5.307,11.846-11.822,11.846c-6.547,0-11.846-5.318-11.846-11.846
				c0-6.547,5.299-11.85,11.846-11.85C467.985,513.624,473.292,518.927,473.292,525.474z"/>
			<path d="M473.292,609.534c0,6.543-5.307,11.834-11.822,11.834c-6.547,0-11.846-5.291-11.846-11.834s5.299-11.85,11.846-11.85
				C467.985,597.685,473.292,602.991,473.292,609.534z"/>
			<path d="M473.292,693.599c0,6.543-5.307,11.861-11.822,11.861c-6.547,0-11.846-5.318-11.846-11.861
				c0-6.531,5.299-11.822,11.846-11.822C467.985,681.776,473.292,687.067,473.292,693.599z"/>
		</g>
	</g>
</g>
<path fill="none" stroke="#000000" stroke-width="20" stroke-miterlimit="10" d="M1188.674,600
	c0,325.116-263.561,588.674-588.679,588.674c-325.109,0-588.669-263.558-588.669-588.674c0-325.083,263.56-588.674,588.669-588.674
	C925.113,11.326,1188.674,274.917,1188.674,600z"/>
</svg>
