<?xml version="1.0" encoding="utf-8"?>
<!-- Generator: Adobe Illustrator 16.0.0, SVG Export Plug-In . SVG Version: 6.00 Build 0)  -->
<!DOCTYPE svg PUBLIC "-//W3C//DTD SVG 1.1//EN" "http://www.w3.org/Graphics/SVG/1.1/DTD/svg11.dtd">
<svg version="1.1" id="Layer_1" xmlns="http://www.w3.org/2000/svg" xmlns:xlink="http://www.w3.org/1999/xlink" x="0px" y="0px"
	 width="1200px" height="1200px" viewBox="0 0 1200 1200" enable-background="new 0 0 1200 1200" xml:space="preserve">
<g>
	<path fill="#454546" d="M1199.531,599.748c0,331.239-268.515,599.75-599.771,599.75C268.528,1199.498,0,930.987,0,599.748
		C0,268.517,268.528,0.001,599.76,0.001C931.017,0.001,1199.531,268.517,1199.531,599.748z"/>
	<path fill="#FFFFFF" d="M632.532,428.878c0,46.179,37.437,83.604,83.604,83.604c46.18,0,83.617-37.425,83.617-83.604
		c0-46.167-37.438-83.604-83.617-83.604C669.969,345.274,632.532,382.712,632.532,428.878L632.532,428.878z"/>
	<path fill="#FFFFFF" d="M256.1,850.587l140.587-374.902c0,0,28.683-68.45,83.464,0l146.563,183.221
		c0,0,25.189,32.049,66.761-10.982c0,0,33.879-59.465,89.979-9.599l159.991,209.178L256.1,850.587z"/>
</g>
</svg>
