<?xml version="1.0" encoding="utf-8"?>
<!-- Generator: Adobe Illustrator 16.0.0, SVG Export Plug-In . SVG Version: 6.00 Build 0)  -->
<!DOCTYPE svg PUBLIC "-//W3C//DTD SVG 1.1//EN" "http://www.w3.org/Graphics/SVG/1.1/DTD/svg11.dtd">
<svg version="1.1" id="Layer_1" xmlns="http://www.w3.org/2000/svg" xmlns:xlink="http://www.w3.org/1999/xlink" x="0px" y="0px"
	 width="1200px" height="1200px" viewBox="0 0 1200 1200" enable-background="new 0 0 1200 1200" xml:space="preserve">
<g>
	<path fill="#454546" d="M1201.287,600.633c0,331.719-268.924,600.63-600.655,600.63C268.924,1201.263,0,932.352,0,600.633
		C0,268.912,268.924,0,600.632,0C932.363,0,1201.287,268.912,1201.287,600.633z"/>
	<g>
		<path fill="#FFFFFF" d="M670.246,507.406l-201.59,224.638l-13.689,15.188l109.068,97.878l13.703-15.201l201.59-224.625
			l16.189-18.035l-109.096-97.891L670.246,507.406z M659.043,609.002L529.169,753.821c-1.742,1.896-3.96,2.999-6.357,3.114
			c-2.475,0.128-4.845-0.73-6.716-2.372l-6.462-5.717c-3.743-3.486-3.997-9.203-0.652-13.072L639.01,590.968
			c1.613-1.872,3.857-3,6.332-3.142c2.369-0.103,4.844,0.77,6.613,2.396l6.486,5.859
			C662.156,599.426,662.529,605.284,659.043,609.002L659.043,609.002z M696.896,540.144l6.344,5.741
			c3.744,3.359,4.115,9.23,0.744,12.946l0,0l-11.332,12.716c-0.348,0.486-0.846,0.846-1.488,1.205
			c-1.383,1.025-2.998,1.666-4.844,1.795c-2.373,0.088-4.742-0.77-6.615-2.372l-6.486-5.744c-1.717-1.627-2.846-3.87-2.973-6.357
			c-0.129-2.369,0.742-4.832,2.371-6.601l11.33-12.576C687.318,537.167,693.152,536.796,696.896,540.144L696.896,540.144z
			 M696.896,540.144"/>
		<g>
			<path fill="#FFFFFF" d="M706.881,466.451l-9.984,11.076l109.08,97.878l9.959-11.087l16.922-18.817l-109.059-97.854
				L706.881,466.451z M706.881,466.451"/>
			<path fill="#FFFFFF" d="M876.707,449.147l-61.887-55.542c-6.242-5.602-14.459-8.473-22.789-8.101
				c-8.461,0.5-16.318,4.231-21.92,10.601l-36.48,40.57l109.082,97.892l36.48-40.722
				C890.896,480.884,889.781,460.85,876.707,449.147L876.707,449.147z M840.471,493.702l-66.129-59.258l19.162-21.292l66.002,59.412
				L840.471,493.702z M840.471,493.702"/>
			<path fill="#FFFFFF" d="M425.587,911.074l125.374-51.389l-108.955-97.866l-37.607,130.233
				c-1.615,5.844,0.127,12.201,4.627,16.175C413.626,912.216,419.973,913.456,425.587,911.074L425.587,911.074z M451.837,796.658
				l63.387,56.785l-49.182,20.163l-28.88-25.765L451.837,796.658z M451.837,796.658"/>
			<polygon fill="#FFFFFF" points="525.927,770.612 477.397,742.695 684.82,533.425 722.236,544.642 652.43,629.267 			"/>
			<polygon fill="#FFFFFF" points="446.531,784.572 430.829,854.38 463.105,881.425 526.799,853.507 			"/>
			<polygon fill="#FFFFFF" points="764.883,433.841 795.518,405.924 869.682,472.22 837.406,506.252 			"/>
		</g>
	</g>
</g>
</svg>
