<?xml version="1.0" encoding="utf-8"?>
<!-- Generator: Adobe Illustrator 16.0.0, SVG Export Plug-In . SVG Version: 6.00 Build 0)  -->
<!DOCTYPE svg PUBLIC "-//W3C//DTD SVG 1.1//EN" "http://www.w3.org/Graphics/SVG/1.1/DTD/svg11.dtd">
<svg version="1.1" id="Layer_1" xmlns="http://www.w3.org/2000/svg" xmlns:xlink="http://www.w3.org/1999/xlink" x="0px" y="0px"
	 width="1200px" height="1200px" viewBox="0 0 1200 1200" enable-background="new 0 0 1200 1200" xml:space="preserve">
<g>
	<path fill="#454546" d="M1200.501,599.995c0,331.511-268.744,600.244-600.296,600.244C268.719,1200.238,0,931.506,0,599.995
		C0,268.495,268.719-0.237,600.205-0.237C931.757-0.237,1200.501,268.495,1200.501,599.995z"/>
	<g>
		<path fill="#FFFFFF" d="M362.793,577.718c0,28.297-22.955,51.252-51.239,51.252c-28.309,0-51.263-22.955-51.263-51.252
			c0-28.295,22.955-51.25,51.263-51.25C339.838,526.468,362.793,549.423,362.793,577.718z"/>
		<path fill="#FFFFFF" d="M554.321,431.331c0,28.322-22.98,51.25-51.264,51.25c-28.309,0-51.238-22.928-51.238-51.25
			s22.93-51.238,51.238-51.238C531.341,380.093,554.321,403.009,554.321,431.331z"/>
		<path fill="#FFFFFF" d="M758.16,494.354c0,28.297-22.955,51.238-51.25,51.238c-28.311,0-51.266-22.941-51.266-51.238
			c0-28.309,22.955-51.251,51.266-51.251C735.205,443.102,758.16,466.045,758.16,494.354z"/>
		<path fill="#FFFFFF" d="M940.186,391.863c0,28.297-22.955,51.239-51.239,51.239c-28.31,0-51.265-22.942-51.265-51.239
			c0-28.333,22.955-51.263,51.265-51.263C917.23,340.6,940.186,363.53,940.186,391.863z"/>
		<rect x="411.443" y="550.549" fill="#FFFFFF" width="91.614" height="308.865"/>
		<rect x="302.946" y="655.217" fill="#FFFFFF" width="91.614" height="204.197"/>
		<polygon fill="#FFFFFF" points="342.989,564.357 331.998,551.241 460.684,443.5 471.675,456.629 		"/>
		<polygon fill="#FFFFFF" points="518.967,433.214 525.218,417.266 681.521,478.392 675.271,494.34 		"/>
		<polygon fill="#FFFFFF" points="862.123,390.557 871.371,404.956 730.133,495.646 720.885,481.25 		"/>
		<rect x="519.839" y="510.02" fill="#FFFFFF" width="91.614" height="348.433"/>
		<rect x="629.258" y="580.896" fill="#FFFFFF" width="91.627" height="277.558"/>
		<rect x="736.154" y="580.896" fill="#FFFFFF" width="91.588" height="277.558"/>
		<rect x="843.139" y="482.736" fill="#FFFFFF" width="91.589" height="375.14"/>
	</g>
</g>
</svg>
