<?xml version="1.0" encoding="utf-8"?>
<!-- Generator: Adobe Illustrator 16.0.0, SVG Export Plug-In . SVG Version: 6.00 Build 0)  -->
<!DOCTYPE svg PUBLIC "-//W3C//DTD SVG 1.1//EN" "http://www.w3.org/Graphics/SVG/1.1/DTD/svg11.dtd">
<svg version="1.1" id="Layer_1" xmlns="http://www.w3.org/2000/svg" xmlns:xlink="http://www.w3.org/1999/xlink" x="0px" y="0px"
	 width="1200px" height="1200px" viewBox="0 0 1200 1200" enable-background="new 0 0 1200 1200" xml:space="preserve">
<path fill="#454546" d="M787.507,265.872c0,0-121.827-18.705-179.073,11.377c0,0-104.614,48.114-84.908,178.431v69.52h-111.02
	v128.426h111.02V938.64H655.98V653.626h110.53L783.055,525.2H655.98l0.102-87.576c0,0-6.843-51.631,51.408-56.377l80.017-0.54
	V265.872z"/>
<path fill="#454546" d="M1022.16,1199.383H179.088c-98.06,0-177.838-79.777-177.838-177.84V178.455
	c0-98.06,79.779-177.838,177.838-177.838h843.072c98.066,0,177.84,79.779,177.84,177.838v843.088
	C1200,1119.605,1120.227,1199.383,1022.16,1199.383z M179.088,40.137c-76.267,0-138.319,62.051-138.319,138.318v843.088
	c0,76.268,62.052,138.32,138.319,138.32h843.072c76.273,0,138.318-62.053,138.318-138.32V178.455
	c0-76.268-62.045-138.318-138.318-138.318H179.088z"/>
</svg>
