<?xml version="1.0" encoding="utf-8"?>
<!-- Generator: Adobe Illustrator 16.0.0, SVG Export Plug-In . SVG Version: 6.00 Build 0)  -->
<!DOCTYPE svg PUBLIC "-//W3C//DTD SVG 1.1//EN" "http://www.w3.org/Graphics/SVG/1.1/DTD/svg11.dtd">
<svg version="1.1" id="Layer_1" xmlns="http://www.w3.org/2000/svg" xmlns:xlink="http://www.w3.org/1999/xlink" x="0px" y="0px"
	 width="1989.5px" height="1990.5px" viewBox="0 0 1989.5 1990.5" enable-background="new 0 0 1989.5 1990.5" xml:space="preserve">
<path fill="none" stroke="#000000" stroke-width="30" stroke-miterlimit="10" d="M1987.988,994.998
	c0,541.854-439.269,981.119-981.133,981.119c-541.836,0-981.103-439.263-981.103-981.119c0-541.802,439.268-981.121,981.103-981.121
	C1548.721,13.877,1987.988,453.195,1987.988,994.998z"/>
<path d="M1101.354,713.968c48.803,30.592,83.024,82.359,89.268,142.521c19.841,9.203,41.958,14.553,65.334,14.553
	c85.472,0,154.803-69.249,154.803-154.721c0-85.466-69.331-154.714-154.803-154.714
	C1171.324,561.606,1102.619,629.59,1101.354,713.968L1101.354,713.968z M999.957,1030.813c85.528,0,154.771-69.248,154.771-154.714
	c0-85.465-69.242-154.714-154.771-154.714c-85.466,0-154.771,69.249-154.771,154.714
	C845.186,961.565,914.491,1030.813,999.957,1030.813L999.957,1030.813z M1065.582,1041.396H934.307
	c-109.252,0-198.228,88.861-198.228,198.14v160.641l0.519,2.53l11.043,3.453c104.219,32.553,194.832,43.419,269.432,43.419
	c145.626,0,229.972-41.465,235.232-44.229l10.297-5.174h1.063v-160.641C1263.778,1130.258,1174.834,1041.396,1065.582,1041.396
	L1065.582,1041.396z M1321.637,881.679h-130.27c-1.411,52.053-23.667,99.096-58.896,132.801
	c97.142,28.871,168.204,118.94,168.204,225.348v49.459c128.657-4.712,202.771-41.18,207.685-43.596l10.297-5.287h1.15v-160.642
	C1519.808,970.541,1430.857,881.679,1321.637,881.679L1321.637,881.679z M728.4,871.098c30.282,0,58.434-8.86,82.277-23.926
	c7.621-49.408,34.16-92.713,72.063-122.104c0.114-2.936,0.43-5.757,0.43-8.747c0-85.408-69.306-154.714-154.771-154.714
	c-85.44,0-154.804,69.306-154.804,154.714C573.598,801.792,642.96,871.098,728.4,871.098L728.4,871.098z M867.442,1014.479
	c-35.026-33.584-57.283-80.286-58.839-132.11c-4.857-0.341-9.658-0.689-14.521-0.689H662.75
	c-109.278,0-198.14,88.862-198.14,198.083v160.642l0.373,2.473l11.067,3.504c83.656,26.114,158.281,38.131,223.16,41.933v-48.484
	C699.212,1133.42,770.301,1043.351,867.442,1014.479L867.442,1014.479z"/>
</svg>
