<?xml version="1.0" encoding="utf-8"?>
<!-- Generator: Adobe Illustrator 19.0.0, SVG Export Plug-In . SVG Version: 6.00 Build 0)  -->
<svg version="1.1" id="Layer_1" xmlns="http://www.w3.org/2000/svg" xmlns:xlink="http://www.w3.org/1999/xlink" x="0px" y="0px"
	 viewBox="0 0 1994.7 2000" style="enable-background:new 0 0 1994.7 2000;" xml:space="preserve">
<style type="text/css">
	.st0{fill:none;}
	.st1{fill:#2B455E;}
	.st2{fill:#FFFFFF;}
	.st3{fill:#F69C1D;}
</style>
<g id="XMLID_770_">
	<g id="XMLID_733_">
		<path id="XMLID_830_" class="st0" d="M819.6,243C501.3,238.4,246,492.7,244,804.8c-2,317.3,252.6,572.5,567.3,572.5
			c313.1-1.9,562.2-251.1,566.6-558.6C1382.4,500.4,1129,247.4,819.6,243z"/>
		<path id="XMLID_834_" class="st1" d="M1948.7,1727.3c-49.7-51.6-301-306.5-352-356.8c-26.4-26.1-57.2-22.9-80.1,7.8
			c-39.7,53.2-86.1,99.5-139.3,139.2c-30.8,23-32.5,53.8-5.4,81c43.9,44,288.2,292.5,332.3,336.3c10.4,10.4,21,20.6,32.1,30.2
			c21.8,18.7,48.6,26.5,75.6,33.5c15.2,0,30.4,0,45.6,0c1.6-0.9,3.1-2.2,4.8-2.5c62.6-12.7,105.2-49.4,124.2-109.9
			C2005,1826.8,1992,1772.3,1948.7,1727.3z"/>
		<path id="XMLID_743_" class="st1" d="M1612.9,689.8c-19.2-141.2-74.1-269.5-164.6-379.9C1251.9,70.2,997.8-30.8,690.8,8.1
			C548.2,26.2,420,84.3,307.7,174.5C150.8,300.7,51.9,462.6,14.1,661C8.4,691,4.6,721.5,0,751.8c0,38.8,0,77.6,0,116.4
			c2.8,20.8,5.1,41.7,8.4,62.4c30.5,187.5,112.9,348.3,254.1,475.6C466,1589.7,705.2,1655.7,974,1604.1
			c170.2-32.7,315-115.8,431.8-244.1C1579.1,1169.4,1647.6,944.5,1612.9,689.8z M811,1501.7c-381.7,0-691.2-309.4-691.2-691.2
			c0-381.7,309.4-691.2,691.2-691.2s691.2,309.4,691.2,691.2C1502.1,1192.2,1192.7,1501.7,811,1501.7z"/>
		<circle id="XMLID_737_" class="st2" cx="811" cy="810.5" r="691.2"/>
	</g>
	<g id="XMLID_729_">
		<path id="XMLID_816_" class="st3" d="M1106,412.2c-0.7,2.7-0.6,7-2.4,8c-21.3,12.1-40.5,28.8-65.3,33.1
			c-13.1,2.3-26.9,0.9-40.3,1.7c-5,0.3-9.9,2-14.9,3.1c3,4,5.4,8.6,9,11.9c36.2,33.8,54.1,76.3,59.3,124.8
			c4.2,39.7-2.4,77.5-21.4,112.9c-12.9,24-33.3,41.3-52.3,60.1c-11.2,11.1-22.6,22.2-32.4,34.6c-19.7,25-19.3,51.2,2.2,74.8
			c12.9,14.2,28.5,26,42.8,39c18.6,16.9,38.2,32.9,55.6,51.1c61.3,63.9,63.1,165.9,8.7,236.2c-43.2,55.8-100.8,87-168.8,100.7
			c-17.7,3.6-35.9,4.9-53.8,7.4c-1.9,0.3-3.8,1.1-5.7,1.7c-21.1,0-42.2,0-63.4,0c-2.8-0.6-5.6-1.5-8.4-1.7
			c-43.8-3.7-85.5-15.2-124.7-35.2c-40.3-20.6-69.7-50.6-82.3-95.2c-1.6-5.8-3.1-11.7-4.6-17.5c0-11.7,0-23.5,0-35.2
			c0.5-1,1.3-1.9,1.5-3c9.6-52,36.1-92.6,80.7-121.3c48-30.8,102.2-42.4,157.2-51.4c18.2-3,36.7-3.8,55-5.6
			c12.2-1.3,15.2-7.2,9.1-17.8c-2.8-4.8-5.7-9.5-8.4-14.4c-14.8-27.1-19.5-54.9-6.3-84.2c1-2.3,1.4-4.8,2.6-8.8
			c-6.6-0.4-12-0.8-17.4-1c-18.1-0.7-36.5,0.5-54.2-2.4C647,799.8,565.5,687.8,616.7,560.4c34.2-85.2,102.4-130.3,192.6-142.8
			c13.8-1.9,27.7-3.6,41.5-5.4C935.9,412.2,1021,412.2,1106,412.2z M862.5,978.6c-45.9,0.6-86.4,6.8-125.5,21.3
			c-34.5,12.8-64,31.7-81.4,65.6c-29.1,56.9-7.8,128,50.8,160.9c71.1,39.9,146.6,47.9,224.5,22.8c30.8-9.9,57.5-26.8,72.9-56.9
			c23.3-45.7,17-103.5-26.9-145.5c-19.4-18.5-41.8-33.9-62.6-51C898,982.3,879.7,975.4,862.5,978.6z M951.7,670.7
			c0-43-10.9-89.5-29.1-130.4c-11.1-25-26.1-47-47.4-64.4c-37.3-30.6-93.9-33.2-128.5-4.6c-28,23.2-41,54.7-43.5,90
			c-4.5,65.6,15.4,124.5,54.6,176.4c25.3,33.5,58.9,52.9,102.5,51.2c40.3-1.5,68.7-22,82.2-59.9
			C949.7,709.4,952.2,689.2,951.7,670.7z"/>
	</g>
</g>
</svg>
