<?xml version="1.0" encoding="utf-8"?>
<!-- Generator: Adobe Illustrator 19.0.0, SVG Export Plug-In . SVG Version: 6.00 Build 0)  -->
<svg version="1.1" id="Layer_1" xmlns="http://www.w3.org/2000/svg" xmlns:xlink="http://www.w3.org/1999/xlink" x="0px" y="0px"
	 viewBox="0 0 1200 1200" style="enable-background:new 0 0 1200 1200;" xml:space="preserve">
<g id="XMLID_1017_">
	<path id="XMLID_1008_" d="M600,1200C269.2,1200,0,930.8,0,600S269.2,0,600,0s600,269.2,600,600S930.8,1200,600,1200z M600,33.3
		C287.5,33.3,33.3,287.5,33.3,600s254.2,566.7,566.7,566.7s566.7-254.2,566.7-566.7S912.5,33.3,600,33.3z"/>
	<path id="XMLID_968_" d="M568.2,925.8c-10.1-4.7-13.6-12.5-13.2-23.5c0.6-16.9,0.2-33.9,0.2-51.4c-9-0.9-17.5-1.8-26.1-2.7
		c-27.7-3.1-54.7-9-80.7-18.9c-17.1-6.5-25.5-22.3-21.4-40.3c2.1-9.1,4.2-18.1,6.8-27.1c5.7-19.7,25.1-30,44.5-23.1
		c22.4,8,45.1,14.5,68.8,17.2c25.9,2.9,51.5,3.6,76.3-6.7c36.7-15.4,36.8-56.6,11.5-77.3c-16.6-13.5-35.7-21.7-55.5-28.7
		c-29.3-10.4-58.7-20.7-85.5-36.9c-22.4-13.6-42-30.2-55-53.4c-26.2-47-16.7-112.1,21.6-151.3c25.6-26.3,57.1-41,92.3-49.1
		c4.5-1,5.8-2.6,5.7-7c-0.3-14.4,0.5-28.9-0.3-43.3c-0.6-12.3,2.6-21.9,13.8-28c17.4,0,34.8,0,52.2,0c9.9,4.9,13.5,12.9,13.2,23.8
		c-0.5,15.6-0.1,31.3-0.1,47c13.9,1.5,27.3,2.2,40.3,4.5c15.4,2.7,30.7,6.1,45.7,10.6c17.6,5.2,26.8,22.9,22.6,40.8
		c-1.8,7.8-3.9,15.6-6,23.4c-5.3,19.5-23.5,30.2-42.8,24.2c-26-8.1-52.5-13.3-79.8-13.3c-17,0-33.9,1.3-49.2,9.8
		c-25.5,14.2-28.4,44.8-6.1,63.4c17,14.2,37.3,22.3,57.5,30.7c23.8,9.9,48.1,18.9,71.4,29.8c22.8,10.6,43,25.4,58.9,45.4
		c15.6,19.7,23.5,42.5,25.5,67.3c3.5,42.1-7.4,79.8-36.7,111.1c-24.4,26.1-55.2,40.8-89.4,49.1c-4.7,1.1-9.4,2.1-14.9,3.3
		c0,7.4,0,14.7,0,22.1c0,11.9-0.3,23.8,0.1,35.6c0.4,11-3.5,18.9-14,23C603,925.8,585.6,925.8,568.2,925.8z"/>
</g>
</svg>
