<?xml version="1.0" encoding="utf-8"?>
<!-- Generator: Adobe Illustrator 19.0.0, SVG Export Plug-In . SVG Version: 6.00 Build 0)  -->
<svg version="1.1" id="Layer_1" xmlns="http://www.w3.org/2000/svg" xmlns:xlink="http://www.w3.org/1999/xlink" x="0px" y="0px"
	 viewBox="0 0 1200 1200" style="enable-background:new 0 0 1200 1200;" xml:space="preserve">
<g id="XMLID_1016_">
	<path id="XMLID_1208_" d="M600,1200C269.2,1200,0,930.8,0,600S269.2,0,600,0s600,269.2,600,600S930.8,1200,600,1200z M600,33.3
		C287.5,33.3,33.3,287.5,33.3,600s254.2,566.7,566.7,566.7s566.7-254.2,566.7-566.7S912.5,33.3,600,33.3z"/>
	<g id="XMLID_1014_">
		<path id="XMLID_1055_" d="M589.8,1007.6c-15.4-4.3-29.4-11-39.6-24.1c-16.7-21.3-18.3-51.1-3.7-73.7c14.8-22.9,42.2-34,68.4-27.7
			c26.3,6.3,45.7,28.8,48.4,55.7c3.1,31.7-17.2,60.2-48.3,68.1c-1.6,0.4-3.1,1.1-4.7,1.6C603.4,1007.6,596.6,1007.6,589.8,1007.6z"
			/>
		<path id="XMLID_1054_" d="M499.7,914.2C337.2,867,230.2,689.6,273.9,515.8c17.3,2.5,34.6,1.9,51.4-3.7
			c16.7-5.6,31.2-14.6,43.9-27.8c43.1,24.9,86,49.7,129.3,74.6c-4,19.2-4.3,38.2,1.9,56.9c11.4,34.2,34.3,57.1,68.5,68.4
			c5.2,1.7,7.4,3.5,7.3,9.3c-0.3,47.3-0.2,94.6,0,141.9c0,5.2-1.5,7.3-6.7,9c-32.7,10.4-55.1,31.9-67.6,63.8
			C501.2,910.3,500.4,912.2,499.7,914.2z"/>
		<path id="XMLID_1053_" d="M702.5,914.5c-7.7-12.9-13.9-25.3-22-36.3c-12.7-17.1-30.4-27.9-50.7-34c-4.7-1.4-6-3.3-6-8
			c0.1-47.8,0.2-95.6,0-143.4c0-4.7,1.4-6.8,5.9-8.2c49.2-15.6,78.3-59,74.2-110.6c-0.4-4.8-1.5-9.6-2.4-14.9
			c11.7-6.8,23.4-13.6,35.2-20.4c29.7-17.2,59.5-34.3,89.1-51.5c3.3-1.9,5.5-2.5,8.8,0.6c24.1,22.6,52.6,32.4,85.6,28.5
			c1.9-0.2,3.9,0,6.7,0c18.6,82.4,9.6,161.5-30.5,236C853.2,832.4,787.4,886,702.5,914.5z"/>
		<path id="XMLID_1052_" d="M374.3,346.3c131-120.6,331.2-113.2,450.3-0.7c-5.7,11.8-12.1,23-16.7,34.8c-7.2,18.7-7.4,38.1-2.4,57.4
			c1.1,4.3-0.1,6-3.5,8c-39.3,22.5-78.5,45.2-117.6,67.9c-3.7,2.2-5.9,2.3-9.3-1c-44.1-43.4-106-43.4-150-0.2
			c-3.5,3.5-5.9,3.4-9.9,1c-38.9-22.7-77.9-45.1-116.9-67.6c-2.8-1.6-5.1-2.8-4.1-7.2c8.2-32.8,1.6-62.6-18.4-89.7
			C375.3,348.3,374.9,347.4,374.3,346.3z"/>
		<path id="XMLID_1051_" d="M229.9,413c-0.1-35.2,28.3-63.7,63.3-63.7c35.2,0,63.6,28.3,63.8,63.5c0.1,34.9-28.6,63.6-63.6,63.7
			C258.2,476.6,229.9,448.3,229.9,413z"/>
		<path id="XMLID_1050_" d="M970.1,413c-0.1,35.2-28.5,63.6-63.6,63.5c-35-0.2-63.6-28.9-63.5-63.8c0.1-35,28.7-63.5,63.8-63.4
			C941.9,349.4,970.2,377.8,970.1,413z"/>
		<path id="XMLID_1049_" d="M600.8,648.5c-34.1,1.2-63.9-27.1-64.5-62.8c-0.5-33.9,24.9-63,62.7-64.6c33.8-1.5,63.4,27.4,64.6,62.9
			C664.8,618.2,636.5,647.3,600.8,648.5z"/>
	</g>
</g>
</svg>
