<?xml version="1.0" encoding="utf-8"?>
<!-- Generator: Adobe Illustrator 19.0.0, SVG Export Plug-In . SVG Version: 6.00 Build 0)  -->
<svg version="1.1" id="Layer_1" xmlns="http://www.w3.org/2000/svg" xmlns:xlink="http://www.w3.org/1999/xlink" x="0px" y="0px"
	 viewBox="0 0 820 1200" style="enable-background:new 0 0 820 1200;" xml:space="preserve">
<style type="text/css">
	.st0{opacity:0.2;clip-path:url(#XMLID_15_);}
	.st1{fill:#FAAF1D;}
	.st2{fill:#FFFFFF;}
</style>
<g id="XMLID_1044_">
	<defs>
		<rect id="XMLID_1043_" y="0" width="820" height="1200"/>
	</defs>
	<clipPath id="XMLID_15_">
		<use xlink:href="#XMLID_1043_"  style="overflow:visible;"/>
	</clipPath>
	<g id="XMLID_279_" class="st0">
		<path id="XMLID_1094_" class="st1" d="M687.8,9.9c121,18.5,226.4,69.7,316,152.6c86.5,80.1,145,177.6,173.3,292.3
			c7.8,31.5,10.8,64.1,16.1,96.3c0.6,3.3,1.5,6.6,2.3,9.9c0,26.5,0,52.9,0,79.4c-2.3,17.2-4.3,34.4-7,51.6
			c-19.4,122.9-71.8,229.6-157.4,319.8c-85,89.6-188.2,147.5-308.9,173.5c-24.2,5.2-49.1,7.2-73.6,10.8c-3.7,0.5-7.4,1.5-11.1,2.3
			c-26.5,0-52.9,0-79.4,0c-16.8-2.3-33.6-4.4-50.4-6.9c-121.8-18.7-227.7-70.3-317.6-154.2C104.4,957.4,46.5,860.5,18.4,746.6
			c-7.8-31.5-10.8-64.2-16.1-96.3c-0.6-3.3-1.5-6.6-2.3-9.9c0-26.5,0-52.9,0-79.4c2.3-16.8,4.4-33.6,6.9-50.4
			c18.5-120.9,69.7-226.4,152.6-316c80.1-86.5,177.6-145,292.3-173.3c31.5-7.8,64.1-10.8,96.3-16.1c3.3-0.6,6.6-1.5,9.9-2.3
			c26.5,0,52.9,0,79.4,0C654.2,5.3,671.1,7.4,687.8,9.9z M597.7,96.2c-278.6,0-504.9,226.7-504.6,505.4
			c0.4,278,227,503.9,505.2,503.7c278.1-0.3,504.1-226.7,504-504.9C1102.2,322.3,875.9,96.2,597.7,96.2z"/>
		<path id="XMLID_1085_" class="st2" d="M598.3,1105.3c-278.2,0.3-504.8-225.7-505.2-503.7c-0.4-278.7,226-505.4,504.6-505.4
			c278.2,0,504.5,226.2,504.6,504.3C1102.4,878.7,876.4,1105.1,598.3,1105.3z M536.1,883.8c-8.3,21.7-23.9,34.7-46.9,36.4
			c-22,1.6-39-8.3-50.2-27.6c-0.5-0.9-1.4-1.6-1.9-2.1c-8.7,8-17.1,15.8-25.8,23.8c132.7,83,331.9,72.7,458.3-69.5
			c130.8-147.3,124.5-362.4-12.3-501.5C725.4,209,507.6,198.8,364.5,319.1c-150.8,126.8-168,334.5-75.8,475.7
			c8.2-8,16.3-16,24.8-24.4c-24.7-13.5-36.7-32.9-31.3-60.8c3.8-19.8,16.6-32.1,34.7-39c11.1-4.2,15-9,12.7-22.7
			C304.8,499,398.9,363.2,546.8,333c148-30.2,297.3,75.6,320.1,224.4c22.6,147.6-75.6,283.7-217.5,310.6
			c-17.5,3.3-35.5,4.8-53.3,4.9c-17.4,0.2-34.8-2.4-53.7-3.9C540.3,873.9,538,878.8,536.1,883.8z M471.3,866.8
			c1.9,4.1,6.9,8.8,11,9.3c2.9,0.4,8.2-5.1,9.9-9c35.5-85.2,70.7-170.6,105.5-256.1c1.9-4.6,0.1-10.7,0.1-16.1
			c-5.4,0.2-11.4-1.1-16,0.9c-83.2,37.4-166.2,75.2-249,113.2c-5,2.3-8.5,7.8-12.7,11.8c4.6,4.1,8.6,9.6,14,11.9
			c16.7,7.2,33.9,13.1,53,20.3c-15.7,16.4-30.4,31.6-45,46.8c-15.4,16-30.6,32.1-46.1,47.9c-6.5,6.6-6.8,12.4,0.1,18.9
			c13.5,12.8,27.1,25.7,40.1,39c8,8.2,14.4,6.6,21.6-1c28.4-29.8,57.1-59.5,85.7-89.1c1-1.1,2.2-2,4.1-3.6
			C455.6,830.6,463,848.9,471.3,866.8z M574.6,553.4c29.6-12.6,61.9,2.7,71.1,32.7c4,13.2,2.5,26-2.8,38.5
			c-11.6,27.9-23,55.9-34.5,84c36.5,2.6,91.9-34.2,98.6-92.8c7.8-68-39.3-122.5-106.9-125.4c-56.3-2.4-112,47.5-111.3,101.5
			C518.1,578.8,546.1,565.6,574.6,553.4z"/>
		<path id="XMLID_1084_" class="st1" d="M542.4,869c-2.1,4.8-4.4,9.7-6.3,14.8c-8.3,21.7-23.9,34.7-46.9,36.4
			c-22,1.6-39-8.3-50.2-27.6c-0.5-0.9-1.4-1.6-1.9-2.1c-8.7,8-17.1,15.8-25.8,23.8c132.7,83,331.9,72.7,458.3-69.5
			c130.8-147.3,124.5-362.4-12.3-501.5C725.4,209,507.6,198.8,364.5,319.1c-150.8,126.8-168,334.5-75.8,475.7
			c8.2-8,16.3-16,24.8-24.4c-24.7-13.5-36.7-32.9-31.3-60.8c3.8-19.8,16.6-32.1,34.7-39c11.1-4.2,15-9,12.7-22.7
			C304.8,499,398.9,363.2,546.8,333c148-30.2,297.3,75.6,320.1,224.4c22.6,147.6-75.6,283.7-217.5,310.6
			c-17.5,3.3-35.5,4.8-53.3,4.9C578.7,873.1,561.3,870.6,542.4,869z"/>
		<path id="XMLID_1083_" class="st1" d="M447.6,811.8c8,18.8,15.3,37.1,23.7,55c1.9,4.1,6.9,8.8,11,9.3c2.9,0.4,8.2-5.1,9.9-9
			c35.5-85.2,70.7-170.6,105.5-256.1c1.9-4.6,0.1-10.7,0.1-16.1c-5.4,0.2-11.4-1.1-16,0.9c-83.2,37.4-166.2,75.2-249,113.2
			c-5,2.3-8.5,7.8-12.7,11.8c4.6,4.1,8.6,9.6,14,11.9c16.7,7.2,33.9,13.1,53,20.3c-15.7,16.4-30.4,31.6-45,46.8
			c-15.4,16-30.6,32.1-46.1,47.9c-6.5,6.6-6.8,12.4,0.1,18.9c13.5,12.8,27.1,25.7,40.1,39c8,8.2,14.4,6.6,21.6-1
			c28.4-29.8,57.1-59.5,85.7-89.1C444.5,814.3,445.7,813.4,447.6,811.8z"/>
		<path id="XMLID_1082_" class="st1" d="M488.8,592c29.3-13.2,57.3-26.5,85.8-38.6c29.6-12.6,61.9,2.7,71.1,32.7
			c4,13.2,2.5,26-2.8,38.5c-11.6,27.9-23,55.9-34.5,84c36.5,2.6,91.9-34.2,98.6-92.8c7.8-68-39.3-122.5-106.9-125.4
			C543.8,488.1,488.1,538,488.8,592z"/>
	</g>
</g>
</svg>
