<?xml version="1.0" encoding="utf-8"?>
<!-- Generator: Adobe Illustrator 19.0.0, SVG Export Plug-In . SVG Version: 6.00 Build 0)  -->
<svg version="1.1" id="Layer_1" xmlns="http://www.w3.org/2000/svg" xmlns:xlink="http://www.w3.org/1999/xlink" x="0px" y="0px"
	 viewBox="0 0 1200 1200" style="enable-background:new 0 0 1200 1200;" xml:space="preserve">
<g id="XMLID_1018_">
	<path id="XMLID_625_" d="M600,1200C269.2,1200,0,930.8,0,600S269.2,0,600,0s600,269.2,600,600S930.8,1200,600,1200z M600,33.3
		C287.5,33.3,33.3,287.5,33.3,600s254.2,566.7,566.7,566.7s566.7-254.2,566.7-566.7S912.5,33.3,600,33.3z"/>
	<g id="XMLID_374_">
		<path id="XMLID_1006_" d="M282.4,631.1c1.7-7,3.1-14,5.1-20.8c14.1-48.5,59.7-83.7,110.2-84.5c29.1-0.5,58.2-0.1,87.4-0.1
			c1.2,0,2.4,0.1,2.2,0.1c4.2,14.9,6.6,29.7,12.5,43c5.8,13.2,15.1,24.8,22.7,36.9c-74.2,28.4-104.3,85.2-98.4,164.6
			c-49.2-2.8-96-12.5-141.7-27.5C282.4,705.6,282.4,668.3,282.4,631.1z"/>
		<path id="XMLID_1005_" d="M917.6,741.5c-41.4,20.1-85.6,27.1-131.8,29.5c0-4.1,0-7.5,0-11c0.1-20.5-0.1-40.9-6.6-60.6
			c-14.6-44.1-43.5-74.5-87-91.1c-2.3-0.9-4.5-1.7-7.6-2.9c21.8-22.2,33.9-48.3,35.1-79.7c2.3-0.1,4.2-0.4,6.2-0.4
			c25.6,0.1,51.3,0,76.9,0.4c53.1,0.7,101.9,41.8,112.2,94.1c0.7,3.8,1.7,7.5,2.5,11.3C917.6,667.9,917.6,704.7,917.6,741.5z"/>
		<path id="XMLID_989_" d="M446.2,782c0-16.1-0.6-32.3,0.1-48.3c2.5-51.9,40.1-96.9,90.7-108.5c9.6-2.2,19.6-3.2,29.4-3.4
			c25.6-0.5,51.3-0.2,76.9-0.2c59.4,0,109.1,42.1,118.9,100.7c0.9,5.3,1.4,10.7,1.4,16c0.1,31.4,0,62.8,0.1,94.3
			c0,3.6-1,5.5-4.3,7.1c-23.2,11.2-47.9,18.3-73.2,21.8c-24.3,3.3-48.9,5.8-73.3,6c-45.4,0.3-90-6.7-133.9-18.5
			c-9.1-2.5-18.1-5.6-27.3-7.8c-4.9-1.2-5.9-3.6-5.9-8.2c0.2-17,0.1-33.9,0.1-50.9C445.9,782,446.1,782,446.2,782z"/>
		<path id="XMLID_988_" d="M604.9,615.3c-51.6,0.2-93.3-41.4-93.3-93.2c-0.1-51.4,41.4-93,92.8-93.2c51-0.2,93.3,41.5,93.5,92
			C698.1,573.3,656.9,615.1,604.9,615.3z"/>
		<path id="XMLID_987_" d="M441.5,332.6c50.4,0.9,85.6,37.9,91.6,78.6c0.1,1,0.5,2,0.7,3c1.2,9.3,1,17.2-7.6,24.6
			c-18.7,16-29.5,37.2-34.5,61.4c-0.5,2.6-2.8,5.6-5,6.9c-55.1,32.2-127.6-3-137.3-66c-8-51.6,26.8-99.2,77.6-107.2
			C431.5,333.2,436.3,333.1,441.5,332.6z"/>
		<path id="XMLID_986_" d="M852.4,426.3c-0.6,52.4-44.4,95.1-96.6,92.8c-10.9-0.5-21.7-4.3-32.4-7.2c-1.9-0.5-4-3.4-4.4-5.5
			c-5.6-33.8-22.4-60.3-50.3-80c-1.7-1.2-2.9-4.4-2.7-6.6c3-35.3,20.1-61.9,51.9-77.4c55-26.9,118.8,4.4,132.1,64.2
			C851.4,413.1,851.6,419.7,852.4,426.3z"/>
	</g>
</g>
</svg>
