<?xml version="1.0" encoding="utf-8"?>
<!-- Generator: Adobe Illustrator 19.0.0, SVG Export Plug-In . SVG Version: 6.00 Build 0)  -->
<svg version="1.1" id="Layer_1" xmlns="http://www.w3.org/2000/svg" xmlns:xlink="http://www.w3.org/1999/xlink" x="0px" y="0px"
	 viewBox="0 0 1200 1200" style="enable-background:new 0 0 1200 1200;" xml:space="preserve">
<g id="XMLID_1010_">
	<path id="XMLID_2_" d="M599.5,1200C268.4,1200-1,930.6-1,599.5S268.4-1,599.5-1S1200,268.4,1200,599.5S930.6,1200,599.5,1200z
		 M599.5,32.1c-312.9,0-567.4,254.5-567.4,567.4c0,312.9,254.5,567.4,567.4,567.4c312.9,0,567.4-254.5,567.4-567.4
		C1166.9,286.6,912.4,32.1,599.5,32.1z"/>
	<g id="XMLID_896_">
		<path id="XMLID_1040_" d="M543.1,263c1.9,0.8,3.8,1.8,5.8,2.5c18.1,6.3,30.4,23.2,30.6,42.4c0.1,7.7,0.1,15.3,0,23
			c0,3.2,0.6,5,4.3,6c19.4,4.9,37.6,12.7,56.7,24.5c6.3-6.9,12.4-14.7,19.5-21.3c18.5-17.3,46.2-16.2,63.7,2.1
			c15.8,16.6,16.8,43.3,1.3,60.3c-6.9,7.6-15.1,13.9-22.6,20.7c11.6,19.4,19.8,37.8,24.9,57.6c0.4,1.5,3.7,3.2,5.8,3.3
			c9.6,0.6,19.3-0.1,28.8,1.1c18.4,2.4,30.9,13.2,36.6,30.6c5.7,17.5,1.4,33.3-11.7,46.3c-1.9,1.8-6,2.9-8.5,2.3
			c-32.6-7.6-63.3,10-72.8,42.1c-2.2,7.5-8.4,10-15.3,6.2c-23.7-13.2-52.5-9.2-71.9,10.1c-18.9,18.8-22.9,47.7-9.9,71.4
			c4.2,7.6,1.8,13.1-6.4,15.6c-31.3,9.3-49.3,39.9-41.7,71.8c1.2,5.1-0.3,7-4.2,9.2c-28.8,16.1-64.7-2.8-67.1-35.6
			c-0.6-8.7,0-17.5-0.5-26.3c-0.1-2-1.8-5.2-3.4-5.7c-19.8-5.3-38.4-13.2-57.9-25.1c-6.4,7.1-12.3,15.1-19.6,21.6
			c-18.9,17.2-45.6,16-63.1-2c-16.9-17.4-16.9-44.6,0.2-62.8c5.4-5.8,11-11.3,16.7-16.7c2.6-2.4,2.7-4.3,0.9-7.3
			c-9.8-16-16.7-33.1-21.3-51.2c-1-3.8-2.5-4.9-6.2-4.8c-7.7,0.2-15.3,0.1-23,0.1c-24-0.2-43.6-18.9-44.9-42.6
			c-1.3-23.4,15.9-44.5,39.3-47.1c11-1.2,22.2-0.2,31.3-0.2c8.9-21.4,17-40.9,25.8-61.9c-5.2-5.2-12-11.7-18.5-18.3
			c-23.7-24.2-13.5-64.7,18.8-74.8c17.5-5.4,32.8-1.1,45.9,11.4c6.3,6.1,12.3,12.5,18.8,19c5.7-3.1,11-6.6,16.7-9
			c12.5-5.1,25.2-10,38-14.2c4.5-1.5,5.8-3.3,5.6-7.7c-0.3-7.2-0.2-14.5-0.1-21.7c0.5-21.4,13.6-38,34.2-43.6c1-0.3,1.9-0.9,2.9-1.3
			C531.7,263,537.4,263,543.1,263z M624.6,530.5c0.6-49.8-40.5-91.3-90.5-91.4c-49.3-0.1-90.2,40.2-90.4,90.1
			c-0.2,50.4,39.4,90.1,89.4,90.9C582.8,621,624,580.4,624.6,530.5z"/>
		<path id="XMLID_1037_" d="M757.4,936c-18.8-7.4-19.2-23.3-17.8-39.6c-9.1-3-17.7-5.2-25.9-8.6c-8.2-3.4-16-7.9-25.7-12.8
			c-2.7,3.1-5.6,7.3-9.2,10.7c-11.1,10.6-25.3,10.7-35,0.6c-9.3-9.7-8.7-23.9,1.6-34.7c9.8-10.3,9.3-10,3.3-22.6
			c-5.6-12-9.9-24.6-15.1-37.7c-4.1,0-9.4,0.1-14.6,0c-13.8-0.3-24.6-10.9-24.4-24c0.1-13,10.4-23.1,24.2-23.4
			c5.2-0.1,10.5,0,15.7,0c2.7-8.5,4.8-16.8,7.9-24.6c2.9-7.3,6.7-14.2,10.7-21c2.1-3.5,1.9-5.5-1-8.3c-6.1-5.9-12.9-11.3-14.5-20.5
			c-1.7-10.1,2.4-19.5,11-24.8c8.2-5,19.4-4.5,27,1.8c4.9,4,9.2,8.7,14,13.3c14.4-9.4,29.8-16.3,46.7-19.9c1.3-0.3,2.7-3.1,2.8-4.9
			c0.5-5-0.1-10.1,0.6-15.1c1.7-12.6,11.7-21.4,23.6-21.3c12,0.1,21.7,9,23.5,21.5c0.1,0.6,0.2,1.3,0.2,2c0.3,5.6-1.3,12.6,1.5,16.4
			c2.6,3.5,10,3.1,15,5.1c11.3,4.7,22.3,9.8,35.2,15.6c2.3-2.6,5.5-6.8,9.3-10.4c10.3-9.8,24.9-10,34.2-0.8c9.7,9.6,9.6,24-0.5,34.6
			c-3.5,3.6-7.5,6.7-9.8,8.8c6.2,15.2,12,28.6,16.9,42.2c3.5,9.9,3,10.1,13.9,10.1c16.1,0,24.7,5.2,28.1,17.2
			c4.3,14.8-6.4,29.6-22.1,30.3c-5.5,0.2-10.9,0-17,0c-0.8,3-1.2,6-2.3,8.7c-5.1,12.3-10.1,24.6-15.8,36.5c-1.9,3.9-2,6,1.2,8.8
			c3.4,3,6.7,6.3,9.6,9.9c7.6,9.7,6.7,23-2,31.6c-8.5,8.5-21.3,9.4-31,1.8c-5.1-4-9.6-8.8-13.2-12.1c-17.1,7.1-33.4,13.9-50.9,21.1
			c0.9,14.5,1.3,31-18,38.4C765.2,936,761.3,936,757.4,936z M762.7,816.4c27.3,0.2,49.5-21.8,49.5-48.9c0-26.8-21.4-48.5-48-48.7
			c-27.7-0.2-49.6,21-49.8,48.3C714.1,793.9,736.1,816.3,762.7,816.4z"/>
	</g>
</g>
</svg>
