<?xml version="1.0" encoding="utf-8"?>
<!-- Generator: Adobe Illustrator 19.0.0, SVG Export Plug-In . SVG Version: 6.00 Build 0)  -->
<svg version="1.1" id="Layer_1" xmlns="http://www.w3.org/2000/svg" xmlns:xlink="http://www.w3.org/1999/xlink" x="0px" y="0px"
	 viewBox="0 0 218 122.7" style="enable-background:new 0 0 218 122.7;" xml:space="preserve">
<style type="text/css">
	.st0{fill:none;}
	.st1{fill:#2B455E;}
	.st2{fill:#375471;}
	.st3{fill:#F69C1D;}
	.st4{fill:#FCC01D;}
</style>
<g id="XMLID_548_">
	<path id="XMLID_44_" class="st0" d="M166,88c8.5,1.1,16.2-5,17.3-13.5c0.7-5.7-1.7-11-5.9-14.2l-18.9,24.6
		C160.6,86.5,163.1,87.6,166,88z"/>
	<path id="XMLID_47_" class="st1" d="M216.5,70l-8.2-1c-0.4-4.4-1.5-8.6-3.2-12.6l6.8-5.3c0.7-0.6,0.9-1.6,0.3-2.4l-9.5-12.1
		c-0.6-0.7-1.6-0.9-2.4-0.3l-6.5,5.1c-0.4-0.4-0.9-0.7-1.3-1l-15.3,19.9c4.2,3.2,6.6,8.5,5.9,14.2C182.2,83,174.5,89,166,88
		c-2.8-0.4-5.4-1.5-7.5-3.1l-15.3,19.9c3,2.3,6.3,4.2,9.8,5.6l-1.1,8.5c-0.1,0.9,0.5,1.8,1.5,1.9l15.3,1.9c0.9,0.1,1.8-0.5,1.9-1.5
		l1-8.2c4.4-0.4,8.6-1.5,12.6-3.2l5.3,6.8c0.6,0.7,1.6,0.9,2.4,0.3l12.1-9.5c0.7-0.6,0.9-1.6,0.3-2.4l-5.1-6.5c2.8-3.3,5-7,6.6-11.1
		l8.5,1.1c0.9,0.1,1.8-0.5,1.9-1.5l1.9-15.3C218.1,71,217.4,70.1,216.5,70z"/>
	<path id="XMLID_54_" class="st2" d="M152.5,70.7c1.1-8.5,8.8-14.5,17.3-13.5c2.8,0.4,5.4,1.5,7.5,3.1l15.3-19.9
		c-3-2.3-6.3-4.2-9.8-5.6l1.1-8.5c0.1-0.9-0.5-1.8-1.5-1.9l-15.3-1.9c-0.9-0.1-1.8,0.5-1.9,1.5l-1,8.2c-4.4,0.4-8.6,1.5-12.6,3.2
		l-5.3-6.8c-0.6-0.7-1.6-0.9-2.4-0.3l-12.2,9.5c-0.7,0.6-0.9,1.6-0.3,2.4l5.1,6.5c-2.8,3.3-5,7-6.6,11.1l-8.5-1.1
		c-0.9-0.1-1.8,0.5-1.9,1.5l-1.9,15.3c-0.1,0.9,0.5,1.8,1.5,1.9l8.2,1c0.4,4.4,1.5,8.6,3.2,12.6l-6.8,5.3c-0.7,0.6-0.9,1.6-0.3,2.4
		l9.5,12.2c0.6,0.7,1.6,0.9,2.4,0.3l6.5-5.1c0.4,0.4,0.9,0.7,1.3,1l15.3-19.9C154.2,81.6,151.8,76.3,152.5,70.7z"/>
	<path id="XMLID_683_" class="st0" d="M216.5,70l-8.2-1c-0.4-4.4-1.5-8.6-3.2-12.6l6.8-5.3c0.7-0.6,0.9-1.6,0.3-2.4l-9.5-12.1
		c-0.6-0.7-1.6-0.9-2.4-0.3l-6.5,5.1c-3.3-2.8-7-5-11.1-6.6l1.1-8.5c0.1-0.9-0.5-1.8-1.5-1.9l-15.3-1.9c-0.9-0.1-1.8,0.5-1.9,1.5
		l-1,8.2c-4.4,0.4-8.6,1.5-12.6,3.2l-5.3-6.8c-0.6-0.7-1.6-0.9-2.4-0.3l-12.2,9.5c-0.7,0.6-0.9,1.6-0.3,2.4l5.1,6.5
		c-2.8,3.3-5,7-6.6,11.1l-8.5-1.1c-0.9-0.1-1.8,0.5-1.9,1.5l-1.9,15.3c-0.1,0.9,0.5,1.8,1.5,1.9l8.2,1c0.4,4.4,1.5,8.6,3.2,12.6
		l-6.8,5.3c-0.7,0.6-0.9,1.6-0.3,2.4l9.5,12.2c0.6,0.7,1.6,0.9,2.4,0.3l6.5-5.1c3.3,2.8,7,5,11.1,6.6l-1.1,8.5
		c-0.1,0.9,0.5,1.8,1.5,1.9l15.3,1.9c0.9,0.1,1.8-0.5,1.9-1.5l1-8.2c4.4-0.4,8.6-1.5,12.6-3.2l5.3,6.8c0.6,0.7,1.6,0.9,2.4,0.3
		l12.1-9.5c0.7-0.6,0.9-1.6,0.3-2.4l-5.1-6.5c2.8-3.3,5-7,6.6-11.1l8.5,1.1c0.9,0.1,1.8-0.5,1.9-1.5l1.9-15.3
		C218.1,71,217.4,70.1,216.5,70z M166,88c-8.5-1.1-14.5-8.8-13.5-17.3c1.1-8.5,8.8-14.5,17.3-13.5c8.5,1.1,14.5,8.8,13.5,17.3
		C182.2,83,174.5,89,166,88z"/>
	<g id="XMLID_581_">
		<path id="XMLID_613_" class="st1" d="M150.1,95.7c-12.8-9.8-15.2-28.2-5.3-40.9c9.8-12.8,28.2-15.2,40.9-5.3
			c12.8,9.8,15.2,28.2,5.3,40.9C181.2,103.2,162.8,105.6,150.1,95.7z M184.3,51.3c-11.8-9-28.7-6.8-37.7,4.9
			c-9,11.8-6.8,28.7,4.9,37.7c11.8,9,28.7,6.8,37.7-4.9C198.2,77.2,196,60.3,184.3,51.3z"/>
	</g>
	<path id="XMLID_580_" class="st2" d="M185.7,49.5l-1.4,1.8c11.8,9,14,25.9,4.9,37.7c-9,11.8-26,14-37.7,4.9l-1.4,1.8
		c12.8,9.8,31.1,7.4,40.9-5.3C200.8,77.6,198.4,59.3,185.7,49.5z"/>
	<path id="XMLID_564_" class="st1" d="M158.4,84.9L158.4,84.9c-6.8-5.2-8.1-15-2.8-21.7c5.2-6.8,15-8.1,21.7-2.8l0,0l3.8-4.9h0
		c-9.5-7.3-23.1-5.5-30.4,4c-7.3,9.5-5.5,23.1,4,30.4l0,0L158.4,84.9z"/>
	<path id="XMLID_550_" class="st2" d="M158.4,84.9L158.4,84.9c6.8,5.2,16.5,4,21.7-2.8c5.2-6.8,4-16.5-2.8-21.7l0,0l3.8-4.9v0
		c9.5,7.3,11.3,20.9,4,30.4c-7.3,9.5-20.9,11.3-30.4,4l0,0L158.4,84.9z"/>
</g>
<path id="XMLID_43_" class="st0" d="M125.3,24.2c-0.5,4.3,2.5,8.2,6.8,8.7c0.3,0,0.6,0.1,1,0.1V17.4
	C129.1,17.4,125.8,20.3,125.3,24.2z"/>
<path id="XMLID_64_" class="st3" d="M155.4,23.9l-4.1-0.5c-0.2-2.2-0.7-4.3-1.6-6.3l3.4-2.6c0.4-0.3,0.4-0.8,0.1-1.2l-4.7-6.1
	c-0.3-0.4-0.8-0.4-1.2-0.1l-3.3,2.5c-1.7-1.4-3.5-2.5-5.6-3.3l0.5-4.3c0.1-0.5-0.3-0.9-0.7-0.9L131,0.1l-0.4,0
	c-0.5-0.1-0.9,0.3-0.9,0.7l-0.5,4.1c-2.2,0.2-4.3,0.7-6.3,1.6L120.2,3c-0.3-0.4-0.8-0.4-1.2-0.1l-6.1,4.7c-0.4,0.3-0.4,0.8-0.1,1.2
	l2.5,3.3c-1.4,1.7-2.5,3.5-3.3,5.6l-4.3-0.5c-0.5-0.1-0.9,0.3-0.9,0.7l-1,7.7c-0.1,0.5,0.3,0.9,0.7,0.9l4.1,0.5
	c0.2,2.2,0.7,4.3,1.6,6.3l-3.4,2.6c-0.4,0.3-0.4,0.8-0.1,1.2l4.7,6.1c0.3,0.4,0.8,0.4,1.2,0.1l3.3-2.5c1.7,1.4,3.5,2.5,5.6,3.3
	l-0.5,4.3c-0.1,0.5,0.3,0.9,0.7,0.9l7.3,0.9l0.4,0c0.5,0.1,0.9-0.3,0.9-0.7l0.5-4.1c2.2-0.2,4.3-0.7,6.3-1.6l2.6,3.4
	c0.3,0.4,0.8,0.4,1.2,0.1l6.1-4.7c0.4-0.3,0.4-0.8,0.1-1.2l-2.5-3.3c1.4-1.7,2.5-3.5,3.3-5.6l4.3,0.5c0.5,0.1,0.9-0.3,0.9-0.7l1-7.7
	C156.2,24.3,155.9,23.9,155.4,23.9z M138.7,26.1c-0.5,3.9-3.9,6.8-7.7,6.8c-0.3,0-0.6,0-1-0.1c-4.3-0.5-7.3-4.4-6.8-8.7
	c0.5-3.9,3.9-6.8,7.7-6.8c0.3,0,0.6,0,1,0.1C136.2,18,139.2,21.9,138.7,26.1z"/>
<path id="XMLID_85_" class="st0" d="M157.4,23.9l-4.1-0.5c-0.2-2.2-0.7-4.3-1.6-6.3l3.4-2.6c0.4-0.3,0.4-0.8,0.1-1.2l-4.7-6.1
	c-0.3-0.4-0.8-0.4-1.2-0.1l-3.3,2.5c-1.7-1.4-3.5-2.5-5.6-3.3l0.5-4.3c0.1-0.5-0.3-0.9-0.7-0.9l-7.7-1c-0.5-0.1-0.9,0.3-0.9,0.7
	l-0.5,4.1c-2.2,0.2-4.3,0.7-6.3,1.6L122.2,3c-0.3-0.4-0.8-0.4-1.2-0.1l-6.1,4.7c-0.4,0.3-0.4,0.8-0.1,1.2l2.5,3.3
	c-1.4,1.7-2.5,3.5-3.3,5.6l-4.3-0.5c-0.5-0.1-0.9,0.3-0.9,0.7l-1,7.7c-0.1,0.5,0.3,0.9,0.7,0.9l4.1,0.5c0.2,2.2,0.7,4.3,1.6,6.3
	l-3.4,2.6c-0.4,0.3-0.4,0.8-0.1,1.2l4.7,6.1c0.3,0.4,0.8,0.4,1.2,0.1l3.3-2.5c1.7,1.4,3.5,2.5,5.6,3.3l-0.5,4.3
	c-0.1,0.5,0.3,0.9,0.7,0.9l7.7,1c0.5,0.1,0.9-0.3,0.9-0.7l0.5-4.1c2.2-0.2,4.3-0.7,6.3-1.6l2.6,3.4c0.3,0.4,0.8,0.4,1.2,0.1l6.1-4.7
	c0.4-0.3,0.4-0.8,0.1-1.2l-2.5-3.3c1.4-1.7,2.5-3.5,3.3-5.6l4.3,0.5c0.5,0.1,0.9-0.3,0.9-0.7l1-7.7
	C158.2,24.3,157.9,23.9,157.4,23.9z M132,32.9c-4.3-0.5-7.3-4.4-6.8-8.7c0.5-4.3,4.4-7.3,8.7-6.8c4.3,0.5,7.3,4.4,6.8,8.7
	C140.2,30.4,136.3,33.4,132,32.9z"/>
<path id="XMLID_80_" class="st3" d="M36.9,87.9c0-2.1-0.9-3.7-2.6-4.9c-1.8-1.2-3.9-2.3-6.5-3.3c-2.6-1-5.4-2-8.4-3
	c-3-1-5.8-2.4-8.4-4c-2.6-1.7-4.8-3.8-6.5-6.4c-1.8-2.6-2.6-5.9-2.6-10c0-3.5,0.6-6.6,1.9-9.2c1.2-2.7,3-4.8,5.3-6.6
	c2.3-1.7,5-3,8.2-3.9c3.2-0.9,6.7-1.3,10.6-1.3c4.4,0,8.7,0.4,12.7,1.2c4,0.8,7.3,1.9,9.8,3.3l-4.7,12.5c-0.8-0.5-1.8-1-3.1-1.5
	c-1.2-0.5-2.7-0.9-4.3-1.3c-1.6-0.4-3.3-0.7-5.1-0.9c-1.8-0.2-3.7-0.4-5.6-0.4c-3.4,0-6,0.6-7.8,1.8c-1.9,1.2-2.8,2.8-2.8,4.9
	c0,2.1,0.9,3.8,2.6,5c1.7,1.2,3.9,2.4,6.5,3.4c2.6,1,5.4,2.1,8.4,3.1c3,1,5.8,2.4,8.4,4c2.6,1.6,4.8,3.7,6.5,6.2
	c1.7,2.5,2.6,5.7,2.6,9.6c0,3.9-0.7,7.3-2,10.1c-1.3,2.8-3.2,5.2-5.7,7c-2.5,1.9-5.4,3.2-8.8,4.1c-3.4,0.9-7.2,1.3-11.3,1.3
	c-2.8,0-5.4-0.2-7.8-0.5c-2.5-0.3-4.7-0.7-6.8-1.1c-2.1-0.4-3.9-0.9-5.5-1.4c-1.6-0.5-2.8-1-3.8-1.5l4.9-12.6
	C5.7,92.1,6.7,92.5,8,93c1.3,0.5,2.8,0.9,4.4,1.4c1.6,0.4,3.3,0.8,5.2,1.1c1.9,0.3,3.7,0.4,5.6,0.4c4.4,0,7.8-0.6,10.1-1.9
	C35.7,92.6,36.9,90.6,36.9,87.9z"/>
<path id="XMLID_12_" class="st3" d="M61.8,36.6h45.5v13.1H76.7v15.3h27.8v13.1H76.7v16h31.1v13.1h-46V36.6z"/>
<path id="XMLID_45_" class="st4" d="M130,32.9c-4.3-0.5-7.3-4.4-6.8-8.7c0.5-3.9,3.9-6.8,7.7-6.8V0.1l-0.4,0
	c-0.5-0.1-0.9,0.3-0.9,0.7l-0.5,4.1c-2.2,0.2-4.3,0.7-6.3,1.6L120.2,3c-0.3-0.4-0.8-0.4-1.2-0.1l-6.1,4.7c-0.4,0.3-0.4,0.8-0.1,1.2
	l2.5,3.3c-1.4,1.7-2.5,3.5-3.3,5.6l-4.3-0.5c-0.5-0.1-0.9,0.3-0.9,0.7l-1,7.7c-0.1,0.5,0.3,0.9,0.7,0.9l4.1,0.5
	c0.2,2.2,0.7,4.3,1.6,6.3l-3.4,2.6c-0.4,0.3-0.4,0.8-0.1,1.2l4.7,6.1c0.3,0.4,0.8,0.4,1.2,0.1l3.3-2.5c1.7,1.4,3.5,2.5,5.6,3.3
	l-0.5,4.3c-0.1,0.5,0.3,0.9,0.7,0.9l7.3,0.9V32.9C130.7,32.9,130.3,32.9,130,32.9z"/>
</svg>
