<?xml version="1.0" encoding="utf-8"?>
<!-- Generator: Adobe Illustrator 19.0.0, SVG Export Plug-In . SVG Version: 6.00 Build 0)  -->
<svg version="1.1" id="Layer_1" xmlns="http://www.w3.org/2000/svg" xmlns:xlink="http://www.w3.org/1999/xlink" x="0px" y="0px"
	 viewBox="0 0 1200 1131.7" style="enable-background:new 0 0 1200 1131.7;" xml:space="preserve">
<style type="text/css">
	.st0{opacity:0.7;fill:#4C4C4C;}
	.st1{fill:#F69C1D;}
	.st2{opacity:0.7;fill:#6C6C6C;}
	.st3{fill:#FFFFFF;}
</style>
<g id="XMLID_268_">
	<g id="XMLID_97_">
		<path id="XMLID_267_" class="st0" d="M799.4,139.9H111.1c-0.6,0-1-0.5-1-1v-34.1c0-0.6,0.5-1,1-1h688.3c0.6,0,1,0.5,1,1v34.1
			C800.5,139.4,800,139.9,799.4,139.9z"/>
		<path id="XMLID_265_" class="st1" d="M435.2,300H110.8c-0.4,0-0.7-0.3-0.7-0.7v-51.3c0-0.4,0.3-0.7,0.7-0.7h324.4
			c0.4,0,0.7,0.3,0.7,0.7v51.4C435.9,299.6,435.6,300,435.2,300z"/>
		<path id="XMLID_264_" class="st2" d="M894.6,408.4H110.8c-0.4,0-0.7-0.3-0.7-0.7v-23.5c0-0.4,0.3-0.7,0.7-0.7h783.8
			c0.4,0,0.7,0.3,0.7,0.7v23.5C895.3,408.1,895,408.4,894.6,408.4z"/>
		<path id="XMLID_263_" class="st2" d="M689.4,465.3H110.7c-0.3,0-0.6-0.3-0.6-0.6v-19.5c0-0.3,0.3-0.6,0.6-0.6h578.7
			c0.3,0,0.6,0.3,0.6,0.6v19.5C690,465,689.8,465.3,689.4,465.3z"/>
		<path id="XMLID_262_" class="st2" d="M799.9,612.6H110.7c-0.3,0-0.6-0.3-0.6-0.6v-51.1c0-0.3,0.3-0.6,0.6-0.6h689.2
			c0.3,0,0.6,0.3,0.6,0.6V612C800.5,612.3,800.2,612.6,799.9,612.6z"/>
		<path id="XMLID_260_" class="st2" d="M835.8,692.5H110.7c-0.3,0-0.6-0.3-0.6-0.6v-19.5c0-0.3,0.3-0.6,0.6-0.6h725.1
			c0.3,0,0.6,0.3,0.6,0.6v19.5C836.4,692.2,836.1,692.5,835.8,692.5z"/>
		<path id="XMLID_259_" class="st0" d="M526,797.7H111.2c-0.6,0-1.1-0.5-1.1-1.1v-35.4c0-0.6,0.5-1.1,1.1-1.1H526
			c0.6,0,1.1,0.5,1.1,1.1v35.4C527.1,797.2,526.6,797.7,526,797.7z"/>
	</g>
	<g id="XMLID_243_">
		<path id="XMLID_247_" d="M392.2,466.7c-3.2-0.6-6.4-1-9.6-1.7c-17.3-3.8-31.1-13.2-41.6-27.2c-5.6-7.4-10-15.8-15.1-23.6
			c-9.1-14.1-18.2-28.2-27.3-42.3c-4.5-7-9-13.9-11.7-21.8c-0.8-2.2-1.4-4.5-1.5-6.8c-0.8-10.9,8.6-18,19.7-15.1
			c7.6,2,13.8,6.4,19.9,11.1c2.5,1.9,4.9,4,7.7,6.4c0-1.2,0-2,0-2.9c0-21.9,0-43.9,0-65.8c0-9.9,7.2-18,16.9-19.3
			c9.6-1.2,18.7,4.8,21.1,14.2c0.5,2,0.7,4.2,0.7,6.2c0.1,12.3,0,24.5,0,37.2c5.4-3.5,11-4.5,16.9-2.9c5.9,1.7,9.9,5.7,12.5,11.4
			c6.6-4.5,13.6-6.1,21-2.8c7.4,3.3,10.9,9.3,11.6,17c2.7-0.9,5.4-2.2,8.1-2.8c11.8-2.3,22.6,6.6,22.7,18.5
			c0.1,16.9,0.6,33.9-0.1,50.8c-1.2,29.4-23,54.4-51.8,60.4c-2.5,0.5-5,1-7.5,1.4C400.7,466.7,396.4,466.7,392.2,466.7z
			 M340.6,364.5c-0.7-0.7-1-0.9-1.4-1.2c-4.8-4.6-9.5-9.3-14.4-13.8c-5.3-4.8-10.9-9.3-17.6-12.3c-1.3-0.6-2.6-1-4-1.4
			c-7.4-1.9-12.2,2.8-9.7,10c1.7,5,4.1,10,6.9,14.5c10.2,16.4,20.5,32.6,31,48.8c5.6,8.6,10.9,17.5,17.2,25.6
			c10.6,13.6,24.5,21.9,42,23.7c13.4,1.4,26-0.9,37.4-8.2c16.5-10.6,26.9-25.5,28.1-45.1c1.1-17,0.4-34,0.2-51.1
			c0-6.4-5.5-11.3-11.7-11.2c-6,0.1-11.1,5.3-11.3,11.5c0,1.2,0,2.5,0,3.8c-2.7,0-5.2,0-7.6,0c-0.1-0.3-0.2-0.4-0.2-0.5
			c0-6,0-12-0.1-18c0-1.1,0-2.2-0.3-3.2c-1.5-5.9-7.1-9.7-12.8-8.9c-5.6,0.8-9.9,5.9-10,11.8c0,3.7,0,7.3,0,11c-2.7,0-5.2,0-7.9,0
			c0-6.4,0-12.5,0-18.7c0-6.6-5.2-12-11.5-12c-6.3,0-11.5,5.4-11.5,12c0,8,0,16.1,0,24.1c0,0.8,0,1.6,0,2.4c-2.8,0-5.3,0-7.9,0
			c0-1.1,0-2,0-3c0-25.9,0-51.7,0-77.6c0-6.8-5.1-12.1-11.6-12.2c-6.6,0-11.6,6.2-11.6,12.2c0.2,27.9,0.1,55.8,0.1,83.7
			C340.6,362.2,340.6,363.1,340.6,364.5z"/>
		<path id="XMLID_246_" d="M357.5,226.7c2.8,0.6,5.6,1.1,8.4,1.9c19.8,5.5,34,22.4,36.2,42.9c1.3,12-1.3,23.1-7.7,33.3
			c-0.8,1.3-1.5,1.8-3.2,1.3c-2-0.7-4.1-0.9-5.9-1.2c2-3.7,4.4-7.3,6.1-11.3c10.3-24.2-5.7-52.8-31.6-57.5
			c-23.8-4.3-47.4,12.5-50,37.5c-1.4,13.5,3.1,25.2,13,34.6c1.7,1.6,2.7,3.2,2.4,5.6c-0.2,1.8,0,3.6,0,6.1c-2-1.5-3.7-2.6-5.2-4
			c-12.7-11.1-18.9-25.1-18.1-42c1-22.2,18.6-42.2,40.4-46.1c1.5-0.3,3-0.6,4.5-0.9C350.3,226.7,353.9,226.7,357.5,226.7z"/>
		<path id="XMLID_245_" d="M379.1,298.3c0-1.2,0-2.1,0-3c-0.1-7.6,0.3-15.4-0.6-22.9c-1.6-12.7-13.4-22.4-26.3-22.4
			c-12.8-0.1-24.4,9.5-26.6,22c-0.3,1.8-0.4,3.6-0.5,5.3c-0.1,6.9,0,13.8,0,21c-9.4-9.5-12-30.5,1.2-44.8
			c13.7-14.9,37.3-15.2,50.9-0.8C391.3,267.6,388.4,288.7,379.1,298.3z"/>
		<path id="XMLID_244_" class="st3" d="M340.6,364.5c0-1.4,0-2.3,0-3.1c0-27.9,0.1-55.8-0.1-83.7c0-6,5-12.3,11.6-12.2
			c6.5,0,11.6,5.3,11.6,12.2c0,25.9,0,51.7,0,77.6c0,0.9,0,1.9,0,3c2.6,0,5.1,0,7.9,0c0-0.8,0-1.6,0-2.4c0-8,0-16.1,0-24.1
			c0-6.6,5.2-12,11.5-12c6.3,0,11.5,5.4,11.5,12c0,6.2,0,12.3,0,18.7c2.6,0,5.1,0,7.9,0c0-3.7,0-7.4,0-11c0-6,4.3-11,10-11.8
			c5.7-0.8,11.3,3,12.8,8.9c0.3,1,0.3,2.2,0.3,3.2c0,6,0,12,0.1,18c0,0.1,0.1,0.3,0.2,0.5c2.4,0,4.8,0,7.6,0c0-1.3,0-2.6,0-3.8
			c0.2-6.3,5.2-11.4,11.3-11.5c6.3-0.1,11.7,4.8,11.7,11.2c0.1,17,0.9,34.1-0.2,51.1c-1.3,19.6-11.7,34.6-28.1,45.1
			c-11.4,7.3-24,9.6-37.4,8.2c-17.5-1.9-31.4-10.2-42-23.7c-6.3-8.1-11.6-17-17.2-25.6c-10.4-16.2-20.8-32.4-31-48.8
			c-2.8-4.5-5.2-9.5-6.9-14.5c-2.5-7.2,2.3-11.9,9.7-10c1.3,0.3,2.7,0.8,4,1.4c6.6,3,12.2,7.5,17.6,12.3c4.9,4.5,9.6,9.2,14.4,13.8
			C339.6,363.6,339.9,363.9,340.6,364.5z"/>
	</g>
	<path id="XMLID_270_" d="M1138.7,912.2H61c-33.7,0-61-27.4-61-61V61C0,27.4,27.4,0,61,0h1077.6c33.7,0,61,27.4,61,61v790.1
		C1199.7,884.8,1172.3,912.2,1138.7,912.2z M61,57C58.9,57,57,58.9,57,61v790.1c0,2.2,1.9,4.1,4.1,4.1h1077.6c2.2,0,4.1-1.9,4.1-4.1
		V61c0-2.2-1.9-4.1-4.1-4.1H61z"/>
	<path id="XMLID_113_" d="M743.1,1047.9H456.5c-2.2,0-4-1.8-4-4V883.3c0-1.7,1.3-3,3-3h287.6c2.2,0,4,1.8,4,4v159.6
		C747.1,1046.1,745.3,1047.9,743.1,1047.9z"/>
	<path id="XMLID_2_" d="M798.9,1131.7h-398c-13.4,0-24.2-10.8-24.2-24.2c0-13.4,10.8-24.2,24.2-24.2h398c13.4,0,24.2,10.8,24.2,24.2
		C823,1120.8,812.2,1131.7,798.9,1131.7z"/>
</g>
</svg>
