<?xml version="1.0" encoding="utf-8"?>
<!-- Generator: Adobe Illustrator 19.0.0, SVG Export Plug-In . SVG Version: 6.00 Build 0)  -->
<svg version="1.1" id="Layer_1" xmlns="http://www.w3.org/2000/svg" xmlns:xlink="http://www.w3.org/1999/xlink" x="0px" y="0px"
	 viewBox="0 0 1200 853" style="enable-background:new 0 0 1200 853;" xml:space="preserve">
<style type="text/css">
	.st0{fill:#EFEFEF;}
	.st1{fill:#F69C1D;}
	.st2{fill:#FFFFFF;}
	.st3{opacity:0.5;}
	.st4{fill:#3E3E3E;}
</style>
<g id="XMLID_58_">
	<g id="XMLID_239_">
		<path id="XMLID_240_" class="st0" d="M1120.8,504.3H58.3c-16.4,0-29.8,10.7-29.8,23.8v128.4c0,13.1,13.4,23.8,29.8,23.8h1062.5
			c16.4,0,29.8-10.7,29.8-23.8V528.1C1150.6,515,1137.2,504.3,1120.8,504.3z"/>
		<path id="XMLID_253_" d="M1123.6,475.8H52.3C23.5,475.8,0,499.2,0,528.1v128.4c0,28.8,23.5,52.3,52.3,52.3h1071.3
			c28.8,0,52.3-23.5,52.3-52.3V528.1C1175.9,499.2,1152.5,475.8,1123.6,475.8z M1147.4,656.5c0,13.1-10.7,23.8-23.8,23.8H52.3
			c-13.1,0-23.8-10.7-23.8-23.8V528.1c0-13.1,10.7-23.8,23.8-23.8h1071.3c13.1,0,23.8,10.7,23.8,23.8V656.5z"/>
		<g id="XMLID_234_">
			<g id="XMLID_232_">
				<path id="XMLID_214_" class="st1" d="M673.9,655.3c0.7-4.8,1.3-9.6,2.2-14.4c6-31.5,21.7-57.1,46.6-77.1
					c17.8-14.3,38.1-23.5,60.7-26.4c48.7-6.2,89,9.8,120.1,47.9c14.3,17.5,23.1,37.8,26.1,60.2c5.5,40.4-5.4,76.1-32.8,106.3
					c-18.5,20.3-41.5,33.5-68.5,38.7c-42.6,8.2-80.5-2.3-112.8-31.4c-22.4-20.2-35.5-45.7-40.3-75.4c-0.5-3.3-0.9-6.6-1.3-9.9
					C673.9,667.6,673.9,661.5,673.9,655.3z M802.5,754.5c49.6-0.3,89.2-39.8,89.9-88.6c0.7-50.5-39.5-90.6-88.5-91.3
					c-50.5-0.7-91,39.6-91.3,89.1C712.2,714,752.6,754.5,802.5,754.5z"/>
				<path id="XMLID_213_" class="st1" d="M961.2,853c-4.3-1.1-8.5-2.3-12-5.3c-1.8-1.5-3.4-3.1-5.1-4.8c-7-7-45.7-46.4-52.7-53.3
					c-4.3-4.3-4-9.2,0.9-12.9c8.4-6.3,15.8-13.6,22.1-22.1c3.6-4.9,8.5-5.4,12.7-1.2c8.1,8,47.9,48.4,55.8,56.6
					c6.9,7.1,8.9,15.8,6,25.2c-3,9.6-9.8,15.4-19.7,17.4c-0.3,0.1-0.5,0.3-0.8,0.4C966,853,963.6,853,961.2,853z"/>
			</g>
			<circle id="XMLID_233_" class="st2" cx="802.5" cy="664.6" r="96.6"/>
		</g>
		<g id="XMLID_1_" class="st3">
			<path id="XMLID_2_" d="M112.5,589.5h16.8v22c-0.8,0.6-1.7,1.1-2.7,1.6c-1.1,0.5-2.2,0.9-3.4,1.2c-1.2,0.3-2.5,0.6-3.8,0.8
				c-1.3,0.2-2.6,0.2-3.8,0.2c-3.2,0-6.1-0.5-8.8-1.5c-2.7-1-5-2.6-6.9-4.7c-2-2.1-3.5-4.8-4.6-8.1s-1.6-7.1-1.6-11.5
				c0-4.6,0.7-8.6,2-11.8c1.3-3.3,3.1-6,5.2-8c2.1-2.1,4.5-3.6,7.2-4.5c2.7-1,5.3-1.4,8-1.4c2.8,0,5.2,0.2,7.1,0.5
				c1.8,0.3,3.4,0.7,4.7,1.3l-1.5,5.3c-2.3-1.1-5.5-1.7-9.8-1.7c-2,0-4,0.3-6,1c-2,0.7-3.7,1.8-5.3,3.5c-1.6,1.6-2.9,3.7-3.9,6.3
				c-1,2.6-1.5,5.8-1.5,9.7c0,3.5,0.4,6.6,1.2,9.1c0.8,2.6,1.9,4.7,3.4,6.4c1.4,1.7,3.2,2.9,5.2,3.8c2,0.8,4.3,1.2,6.7,1.2
				c3,0,5.6-0.6,7.8-1.8v-13.9l-11.6-1.4V589.5z"/>
			<path id="XMLID_4_" d="M136.8,596.6c0-6,1.3-10.7,4-13.9s6.6-4.8,11.6-4.8c2.7,0,5,0.4,7,1.3c2,0.9,3.6,2.1,4.9,3.8
				c1.3,1.6,2.2,3.6,2.9,5.9c0.6,2.3,0.9,4.9,0.9,7.7c0,6-1.3,10.7-4,13.9s-6.6,4.8-11.6,4.8c-2.7,0-5-0.4-7-1.3
				c-2-0.9-3.6-2.1-4.9-3.8c-1.3-1.6-2.2-3.6-2.9-5.9C137.1,601.9,136.8,599.4,136.8,596.6z M142.7,596.6c0,1.8,0.2,3.5,0.5,5.2
				c0.4,1.7,0.9,3.1,1.7,4.4c0.8,1.2,1.8,2.2,3,3c1.2,0.8,2.7,1.1,4.5,1.1c6.5,0.1,9.7-4.5,9.7-13.7c0-1.9-0.2-3.6-0.5-5.3
				c-0.4-1.7-0.9-3.1-1.7-4.3c-0.8-1.2-1.8-2.2-3-3c-1.2-0.7-2.7-1.1-4.5-1.1C145.9,582.8,142.7,587.4,142.7,596.6z"/>
			<path id="XMLID_7_" d="M175,596.6c0-6,1.3-10.7,4-13.9c2.7-3.2,6.6-4.8,11.6-4.8c2.7,0,5,0.4,7,1.3c2,0.9,3.6,2.1,4.9,3.8
				c1.3,1.6,2.2,3.6,2.9,5.9c0.6,2.3,0.9,4.9,0.9,7.7c0,6-1.3,10.7-4,13.9s-6.6,4.8-11.6,4.8c-2.7,0-5-0.4-7-1.3
				c-2-0.9-3.6-2.1-4.9-3.8c-1.3-1.6-2.2-3.6-2.9-5.9C175.3,601.9,175,599.4,175,596.6z M180.9,596.6c0,1.8,0.2,3.5,0.5,5.2
				c0.4,1.7,0.9,3.1,1.7,4.4c0.8,1.2,1.8,2.2,3,3c1.2,0.8,2.7,1.1,4.5,1.1c6.5,0.1,9.7-4.5,9.7-13.7c0-1.9-0.2-3.6-0.5-5.3
				c-0.4-1.7-0.9-3.1-1.7-4.3c-0.8-1.2-1.8-2.2-3-3c-1.2-0.7-2.7-1.1-4.5-1.1C184.1,582.8,180.9,587.4,180.9,596.6z"/>
			<path id="XMLID_12_" d="M242.5,616c0,4.6-1.2,8-3.7,10.2c-2.4,2.2-6.1,3.3-10.9,3.3c-2.9,0-5.2-0.2-6.9-0.5
				c-1.7-0.4-3.2-0.8-4.5-1.4l1.5-4.9c1.1,0.4,2.3,0.8,3.6,1.2c1.3,0.4,3.1,0.6,5.2,0.6c2,0,3.6-0.2,4.9-0.5c1.3-0.4,2.3-1,3-1.8
				c0.8-0.8,1.3-1.9,1.6-3.2c0.3-1.3,0.4-2.9,0.4-4.7v-3.4h-0.3c-1,1.4-2.2,2.4-3.6,3.2c-1.5,0.7-3.4,1.1-5.8,1.1
				c-4.8,0-8.3-1.5-10.6-4.5c-2.3-3-3.4-7.7-3.4-14c0-6.1,1.4-10.7,4.3-13.9c2.9-3.2,7.2-4.7,12.8-4.7c2.7,0,5,0.2,7,0.6
				c1.9,0.4,3.7,0.9,5.2,1.5V616z M228.2,610.2c2.4,0,4.3-0.6,5.7-1.8c1.4-1.2,2.4-3.1,2.9-5.7v-18.3c-1.9-0.9-4.3-1.4-7.3-1.4
				c-3.2,0-5.8,1.1-7.6,3.3c-1.9,2.2-2.8,5.6-2.8,10.3c0,2,0.2,3.8,0.5,5.5c0.3,1.7,0.9,3.1,1.6,4.3c0.7,1.2,1.6,2.1,2.8,2.8
				C225.1,609.9,226.5,610.2,228.2,610.2z"/>
			<path id="XMLID_15_" d="M259.9,605.6c0,1.7,0.3,2.9,0.9,3.6c0.6,0.7,1.4,1.1,2.4,1.1c0.6,0,1.3,0,2-0.1c0.7-0.1,1.5-0.3,2.4-0.6
				l0.6,4.5c-0.8,0.4-1.8,0.7-3.2,0.9c-1.4,0.2-2.5,0.4-3.5,0.4c-2.1,0-3.9-0.6-5.3-1.8c-1.4-1.2-2.1-3.3-2.1-6.2v-42.8h5.7V605.6z"
				/>
			<path id="XMLID_17_" d="M300.4,611.5c-1.4,1.1-3.2,2-5.4,2.7c-2.2,0.7-4.5,1-6.9,1c-2.7,0-5.1-0.4-7.1-1.3s-3.6-2.1-4.9-3.8
				c-1.3-1.6-2.2-3.6-2.9-5.9c-0.6-2.3-0.9-4.9-0.9-7.7c0-6.1,1.4-10.7,4.1-13.9c2.7-3.2,6.6-4.8,11.6-4.8c1.6,0,3.2,0.2,4.9,0.5
				c1.6,0.4,3.1,1,4.4,2c1.3,1,2.3,2.4,3.1,4.2c0.8,1.8,1.2,4.2,1.2,7.2c0,1.6-0.1,3.3-0.4,5.2h-22.9c0,2.1,0.2,4,0.6,5.6
				c0.4,1.6,1.1,3,2,4.1c0.9,1.1,2.1,2,3.5,2.6c1.5,0.6,3.2,0.9,5.3,0.9c1.6,0,3.2-0.3,4.9-0.9c1.6-0.6,2.8-1.2,3.6-2L300.4,611.5z
				 M288.1,582.9c-2.8,0-5.1,0.7-6.7,2.2c-1.7,1.5-2.7,4-3,7.6H296c0-3.6-0.7-6.2-2.1-7.6C292.6,583.6,290.6,582.9,288.1,582.9z"/>
			<path id="XMLID_21_" d="M345.3,604.7c0-1.4-0.4-2.5-1.3-3.3c-0.9-0.8-1.9-1.5-3.2-2c-1.3-0.5-2.6-1.1-4.1-1.6
				c-1.5-0.5-2.9-1.1-4.1-1.9c-1.3-0.8-2.3-1.8-3.2-3c-0.9-1.2-1.3-2.9-1.3-5c0-3.4,1-5.9,2.9-7.5c1.9-1.6,4.7-2.4,8.1-2.4
				c2.6,0,4.7,0.2,6.5,0.7c1.7,0.4,3.2,1,4.5,1.6l-1.4,4.7c-1.1-0.5-2.4-1-4-1.4c-1.5-0.4-3.2-0.6-5-0.6c-2.1,0-3.6,0.4-4.6,1.1
				c-1,0.7-1.5,1.9-1.5,3.7c0,1.2,0.4,2.2,1.3,2.9c0.9,0.7,1.9,1.3,3.2,1.9c1.3,0.5,2.6,1.1,4.1,1.6c1.5,0.5,2.9,1.2,4.1,2.1
				c1.3,0.9,2.3,1.9,3.2,3.2c0.9,1.3,1.3,3,1.3,5.2c0,1.5-0.2,2.9-0.8,4.3c-0.5,1.3-1.3,2.5-2.3,3.4c-1,1-2.3,1.7-3.9,2.2
				c-1.5,0.5-3.4,0.8-5.5,0.8c-2.7,0-5-0.3-6.9-0.8c-1.9-0.5-3.5-1.1-4.8-1.9l1.7-4.9c1.1,0.6,2.5,1.2,4.3,1.7
				c1.8,0.5,3.5,0.8,5.3,0.8c2,0,3.7-0.4,5.1-1.2C344.7,608.2,345.3,606.8,345.3,604.7z"/>
			<path id="XMLID_27_" d="M385.7,611.5c-1.4,1.1-3.2,2-5.4,2.7c-2.2,0.7-4.5,1-6.9,1c-2.7,0-5.1-0.4-7.1-1.3s-3.6-2.1-4.9-3.8
				c-1.3-1.6-2.2-3.6-2.9-5.9c-0.6-2.3-0.9-4.9-0.9-7.7c0-6.1,1.4-10.7,4.1-13.9c2.7-3.2,6.6-4.8,11.6-4.8c1.6,0,3.2,0.2,4.9,0.5
				c1.6,0.4,3.1,1,4.4,2c1.3,1,2.3,2.4,3.1,4.2c0.8,1.8,1.2,4.2,1.2,7.2c0,1.6-0.1,3.3-0.4,5.2h-22.9c0,2.1,0.2,4,0.6,5.6
				s1.1,3,2,4.1c0.9,1.1,2.1,2,3.5,2.6c1.5,0.6,3.2,0.9,5.3,0.9c1.6,0,3.2-0.3,4.9-0.9c1.6-0.6,2.8-1.2,3.6-2L385.7,611.5z
				 M373.4,582.9c-2.8,0-5.1,0.7-6.7,2.2c-1.7,1.5-2.7,4-3,7.6h17.7c0-3.6-0.7-6.2-2.1-7.6C377.9,583.6,375.9,582.9,373.4,582.9z"/>
			<path id="XMLID_36_" d="M395.3,581.4c1.8-1.1,3.9-1.9,6.3-2.4c2.4-0.5,4.9-0.8,7.5-0.8c2.5,0,4.5,0.3,6,1
				c1.5,0.7,2.6,1.5,3.4,2.6c0.8,1.1,1.3,2.2,1.6,3.5c0.3,1.3,0.4,2.6,0.4,3.9c0,2.9-0.1,5.6-0.2,8.3c-0.1,2.7-0.2,5.3-0.2,7.7
				c0,1.8,0.1,3.4,0.2,5c0.1,1.6,0.4,3,0.8,4.3h-4.2l-1.5-5H415c-0.4,0.7-1,1.3-1.6,2c-0.6,0.6-1.4,1.2-2.3,1.7
				c-0.9,0.5-1.9,0.9-3.1,1.3c-1.2,0.3-2.5,0.5-4.1,0.5s-2.9-0.2-4.2-0.7s-2.4-1.2-3.4-2c-1-0.9-1.7-1.9-2.2-3.2
				c-0.5-1.2-0.8-2.6-0.8-4.2c0-2.1,0.4-3.8,1.3-5.2c0.9-1.4,2.1-2.5,3.6-3.4c1.5-0.8,3.4-1.4,5.6-1.8c2.2-0.4,4.6-0.5,7.2-0.5
				c0.7,0,1.3,0,2,0s1.3,0,2,0.1c0.1-1.4,0.2-2.7,0.2-3.8c0-2.6-0.5-4.4-1.6-5.5c-1-1-2.9-1.6-5.7-1.6c-0.8,0-1.7,0.1-2.6,0.2
				s-1.9,0.3-2.9,0.5c-1,0.2-1.9,0.5-2.8,0.8c-0.9,0.3-1.7,0.7-2.3,1.1L395.3,581.4z M405.5,610c1.3,0,2.5-0.2,3.6-0.5
				c1-0.4,1.9-0.8,2.7-1.4c0.8-0.5,1.4-1.2,1.9-1.8c0.5-0.7,0.9-1.3,1.1-1.9v-5.9c-0.7,0-1.3-0.1-2-0.1c-0.7,0-1.4,0-2,0
				c-1.5,0-2.9,0.1-4.3,0.2c-1.4,0.2-2.6,0.5-3.7,0.9c-1.1,0.5-1.9,1.1-2.6,1.9c-0.6,0.8-1,1.8-1,3c0,1.7,0.6,3,1.8,4.1
				C402.1,609.4,403.6,610,405.5,610z"/>
			<path id="XMLID_43_" d="M448.1,584.2c-1.4-0.5-2.8-0.7-4.1-0.7c-2.1,0-3.7,0.6-4.9,1.7c-1.2,1.1-1.9,2.5-2.2,4.2v25h-5.7v-35.7h4
				l1.1,4.4h0.3c0.9-1.6,2-2.9,3.2-3.7c1.3-0.9,2.9-1.3,4.8-1.3c1.4,0,2.9,0.2,4.6,0.7L448.1,584.2z"/>
			<path id="XMLID_49_" d="M479.9,612c-1.4,1-3.1,1.8-5.1,2.4c-1.9,0.5-4,0.8-6.1,0.8c-2.8,0-5.1-0.4-7-1.3
				c-1.9-0.9-3.5-2.1-4.7-3.8c-1.2-1.6-2.1-3.6-2.6-5.9c-0.5-2.3-0.8-4.9-0.8-7.7c0-6,1.3-10.7,4-13.9c2.7-3.2,6.5-4.8,11.5-4.8
				c2.3,0,4.2,0.2,5.8,0.5c1.6,0.4,3,0.9,4.3,1.5l-1.6,4.9c-1.1-0.6-2.3-1.1-3.6-1.5c-1.3-0.4-2.8-0.5-4.3-0.5
				c-6.8,0-10.1,4.6-10.1,13.7c0,1.8,0.2,3.5,0.5,5.2c0.4,1.6,1,3.1,1.8,4.4c0.8,1.3,1.9,2.3,3.3,3c1.4,0.8,3,1.1,5,1.1
				c1.7,0,3.2-0.3,4.6-0.8c1.4-0.5,2.5-1.1,3.3-1.8L479.9,612z"/>
			<path id="XMLID_52_" d="M510.6,614.4v-20.3c0-1.8-0.1-3.5-0.3-4.9c-0.2-1.4-0.6-2.6-1.2-3.5c-0.6-0.9-1.3-1.6-2.3-2.1
				c-1-0.5-2.2-0.7-3.8-0.7c-2.2,0-4.3,0.7-6.1,2.2c-1.8,1.4-3,3.3-3.5,5.6v23.8h-5.7v-49.9h5.7v18.3h0.3c1.2-1.5,2.7-2.7,4.5-3.5
				c1.7-0.9,3.9-1.3,6.5-1.3c2,0,3.7,0.2,5.2,0.7c1.5,0.4,2.7,1.2,3.7,2.4c1,1.1,1.7,2.7,2.1,4.6c0.5,1.9,0.7,4.4,0.7,7.3v21.5
				H510.6z"/>
			<path id="XMLID_54_" d="M524.7,611.1c0-1.3,0.4-2.3,1.1-3s1.7-1.1,3-1.1c1.3,0,2.3,0.4,3.1,1.1c0.8,0.7,1.1,1.7,1.1,3
				c0,1.2-0.4,2.2-1.1,3c-0.8,0.8-1.8,1.1-3.1,1.1c-1.2,0-2.2-0.4-3-1.1C525.1,613.4,524.7,612.4,524.7,611.1z"/>
			<path id="XMLID_62_" d="M544.6,611.1c0-1.3,0.4-2.3,1.1-3s1.7-1.1,3-1.1c1.3,0,2.3,0.4,3.1,1.1c0.8,0.7,1.1,1.7,1.1,3
				c0,1.2-0.4,2.2-1.1,3c-0.8,0.8-1.8,1.1-3.1,1.1c-1.2,0-2.2-0.4-3-1.1C545,613.4,544.6,612.4,544.6,611.1z"/>
			<path id="XMLID_64_" d="M564.5,611.1c0-1.3,0.4-2.3,1.1-3s1.7-1.1,3-1.1c1.3,0,2.3,0.4,3.1,1.1c0.8,0.7,1.1,1.7,1.1,3
				c0,1.2-0.4,2.2-1.1,3c-0.8,0.8-1.8,1.1-3.1,1.1c-1.2,0-2.2-0.4-3-1.1C564.9,613.4,564.5,612.4,564.5,611.1z"/>
		</g>
	</g>
</g>
<g id="XMLID_881_">
	<path id="XMLID_1026_" class="st4" d="M844.1,115.5c8.9,7.4,27.5,22.8,27.5,52.2c0,28.6-16.2,42.2-32.5,54.9
		c-5,5-10.8,10.5-10.8,19c0,8.5,5.8,13.1,10.1,16.6l13.9,10.8c17,14.3,32.5,27.5,32.5,54.2c0,36.4-35.2,73.1-101.7,73.1
		c-56.1,0-83.2-26.7-83.2-55.3c0-13.9,6.9-33.6,29.8-47.2c24-14.7,56.5-16.6,73.9-17.8c-5.4-7-11.6-14.3-11.6-26.3
		c0-6.6,1.9-10.4,3.9-15.1c-4.3,0.4-8.5,0.8-12.4,0.8c-41,0-64.2-30.6-64.2-60.7c0-17.8,8.1-37.5,24.7-51.8
		c22.1-18.2,48.4-21.3,69.3-21.3h79.7l-24.8,13.9H844.1z M816.6,287.3c-3.1-0.4-5-0.4-8.9-0.4c-3.5,0-24.4,0.8-40.6,6.2
		c-8.5,3.1-33.3,12.4-33.3,39.8c0,27.4,26.7,47.2,68.1,47.2c37.1,0,56.9-17.8,56.9-41.8C858.8,318.6,846.1,308.1,816.6,287.3z
		 M827.9,213.7c8.9-8.9,9.6-21.3,9.6-28.2c0-27.9-16.6-71.2-48.7-71.2c-10.1,0-20.9,5-27.1,12.8c-6.6,8.1-8.5,18.6-8.5,28.6
		c0,25.9,15.1,68.9,48.4,68.9C811.2,224.6,821.7,219.9,827.9,213.7z"/>
	<path id="XMLID_1000_" class="st4" d="M600.6,281.1c-61.4,0-94.2-47.9-94.2-91.2c0-50.6,41.3-93.8,100.1-93.8
		c56.7,0,92.3,44.4,92.3,91.1C698.7,232.8,663.6,281.1,600.6,281.1z M648.9,249.8c9.3-12.4,11.6-27.8,11.6-42.9
		c0-34-16.2-98.9-64.1-98.9c-12.7,0-25.5,5-34.7,13.2c-15.1,13.5-17.8,30.5-17.8,47.1c0,38.2,18.9,101.1,65.7,101.1
		C624.5,269.5,640,262.1,648.9,249.8z"/>
	<path id="XMLID_917_" class="st4" d="M391.3,281.1c-61.4,0-94.2-47.9-94.2-91.2c0-50.6,41.3-93.8,100-93.8
		c56.8,0,92.3,44.4,92.3,91.1C489.4,232.8,454.2,281.1,391.3,281.1z M439.5,249.8c9.3-12.4,11.6-27.8,11.6-42.9
		c0-34-16.2-98.9-64.1-98.9c-12.7,0-25.5,5-34.8,13.2c-15.1,13.5-17.8,30.5-17.8,47.1c0,38.2,18.9,101.1,65.7,101.1
		C415.2,269.5,430.7,262.1,439.5,249.8z"/>
	<path id="XMLID_909_" class="st4" d="M267.5,275L212,287.8c-22.5,3.5-42.7,6.6-64.1,6.6C40.8,294.4,0,215.6,0,153.8
		C0,78.5,57.8,8.6,156.9,8.6c21,0,41.2,3.1,59.4,8.1C245.4,25,259,35,267.5,40.9l-32.2,30.7l-13.6,3.1l9.7-15.5
		c-13.2-12.8-37.3-36.5-83.1-36.5C87,22.6,40.8,69.2,40.8,137.2c0,73,52.8,141.7,137.4,141.7c24.9,0,37.7-5,49.3-9.7v-62.5
		l-58.6,3.1l31.1-16.7h82.3l-10.1,9.7c-2.7,2.3-3.1,3.1-3.9,6.2c-0.4,3.5-0.8,14.8-0.8,18.7V275z"/>
	<path id="XMLID_858_" class="st4" d="M966.8,263.8c-12.8-1.2-15.5-3.5-15.5-18.7v-4.3V25.4c0.1-0.8,0.1-1.7,0.2-2.5
		C953.1,9.3,957,7,969,0h-55.5l-29.1,14h29.7v0.2l0-0.1v226.9v12.8c0,7.8-1.5,8.9-10.5,20.6h68.7l14.4-8.5
		C980.1,265,973.5,264.6,966.8,263.8z"/>
	<path id="XMLID_890_" class="st4" d="M1124.8,267.4c-4.2,2.3-8.5,5-12.7,6.9c-12.8,5.8-25.9,7.3-37.4,7.3c-12.3,0-31.6-0.8-51.3-15
		c-27.4-19.3-39.3-52.5-39.3-81.4c0-59.8,48.6-89.1,88.3-89.1c13.9,0,28.2,3.5,39.7,10.8c19.3,12.7,24.3,29.3,27,38.2l-90.6,36.6
		l-29.7,2.3c9.6,49,42.8,77.5,79.4,77.5c19.7,0,33.9-6.9,47-13.5L1124.8,267.4z M1088.6,152.5c7.3-2.7,11.2-5,11.2-10.4
		c0-15.4-17.3-33.2-38.2-33.2c-15.4,0-44.3,12-44.3,53.6c0,6.6,0.8,13.5,1.2,20.5L1088.6,152.5z"/>
	<g id="XMLID_882_">
		<path id="XMLID_886_" class="st4" d="M1162.1,98.8v25.4h-3.1V98.8h-8.4v-2.6h19.9v2.6H1162.1z"/>
		<path id="XMLID_884_" class="st4" d="M1196.8,124.3V98.6h-0.1l-7.8,25.7h-2.4l-7.9-25.7h-0.1v25.7h-2.8V96.2h4.8l7.2,22.7h0.1
			l7-22.7h4.9v28.1H1196.8z"/>
	</g>
</g>
</svg>
