<?xml version="1.0" encoding="utf-8"?>
<!-- Generator: Adobe Illustrator 16.0.0, SVG Export Plug-In . SVG Version: 6.00 Build 0)  -->
<!DOCTYPE svg PUBLIC "-//W3C//DTD SVG 1.1//EN" "http://www.w3.org/Graphics/SVG/1.1/DTD/svg11.dtd">
<svg version="1.1" id="Layer_1" xmlns="http://www.w3.org/2000/svg" xmlns:xlink="http://www.w3.org/1999/xlink" x="0px" y="0px"
	 viewBox="0 0 1200 1168.423" enable-background="new 0 0 1200 1168.423" xml:space="preserve">
<g>
	<rect fill="#FAAF1D" width="1200" height="1168.423"/>
	<path fill="#FFEFC3" d="M365.5,665.86c0,0-152.748,49.484-212.45-87.465c0,0-50.915-20.196-55.308-81.651
		c0,0-2.632-58.817,58.816-78.129c0,0,54.435-186.995,335.357-209.826c0,0,191.392-20.186,344.145,115.887
		c0,0,175.58,52.677,182.604,249.324c0,0,8.782,101.841-93.059,151.882c0,0-50.919,19.309-93.058,6.145
		c0,0-10.531,87.795-82.522,101.833c0,0-43.018,10.54-87.792-20.192c0,0-54.424,21.953-11.414,136.082
		c0,0-111.49-52.68-129.929-175.583C520.892,774.166,406.764,774.399,365.5,665.86z"/>
	<path fill="#16AF91" d="M799.547,706.239l12.445-3.449c-0.013-4.64-0.383-9.184-1.084-13.63l-12.767-1.104
		c-0.649-3.186-1.487-6.303-2.51-9.336l10.349-7.711c-1.662-4.229-3.644-8.294-5.906-12.162l-12.311,3.574
		c-1.791-2.786-3.768-5.451-5.9-7.971l6.862-10.922c-3.05-3.278-6.334-6.335-9.837-9.122l-10.193,7.796
		c-2.728-1.984-5.577-3.789-8.562-5.398l2.444-12.65c-3.971-1.93-8.117-3.556-12.403-4.875l-6.698,10.969
		c-3.268-0.854-6.621-1.487-10.046-1.893l-2.288-12.656c-2.196-0.17-4.416-0.251-6.651-0.251c-2.236,0-4.462,0.081-6.651,0.251
		l-2.286,12.656c-3.427,0.405-6.784,1.039-10.056,1.893l-6.697-10.969c-4.284,1.319-8.424,2.945-12.403,4.875l2.45,12.65
		c-2.984,1.609-5.838,3.414-8.562,5.398l-10.196-7.796c-3.5,2.787-6.787,5.844-9.828,9.122l6.859,10.922
		c-2.14,2.52-4.115,5.185-5.899,7.971l-12.317-3.574c-2.266,3.868-4.245,7.934-5.903,12.162l10.355,7.711
		c-1.036,3.033-1.87,6.15-2.517,9.336l-12.766,1.104c-0.706,4.446-1.075,8.99-1.085,13.63l12.442,3.449
		c0.142,3.166,0.479,6.276,0.99,9.317l-11.517,5.652c0.963,4.55,2.282,8.97,3.925,13.228l12.864-1.264
		c1.224,2.787,2.615,5.484,4.161,8.08l-8.709,9.435c2.55,3.902,5.399,7.593,8.502,11.025l11.543-5.824
		c2.077,2.095,4.279,4.069,6.595,5.903l-4.715,11.964c3.775,2.744,7.772,5.191,11.964,7.315l8.631-9.59
		c2.642,1.189,5.362,2.229,8.152,3.113l-0.089,12.864c4.494,1.204,9.112,2.067,13.854,2.546l4.576-12.054
		c1.441,0.079,2.873,0.118,4.331,0.118c1.454,0,2.892-0.039,4.323-0.118l4.591,12.054c4.732-0.479,9.355-1.342,13.841-2.546
		l-0.079-12.864c2.786-0.884,5.511-1.924,8.148-3.113l8.627,9.59c4.195-2.124,8.192-4.571,11.968-7.315l-4.715-11.964
		c2.314-1.834,4.521-3.809,6.598-5.903l11.53,5.824c3.112-3.433,5.962-7.123,8.509-11.025l-8.706-9.435
		c1.543-2.596,2.928-5.293,4.164-8.08l12.858,1.264c1.649-4.258,2.962-8.678,3.932-13.228l-11.522-5.652
		C799.078,712.516,799.404,709.405,799.547,706.239z M724.491,765.815c-34.839,0-63.081-28.246-63.081-63.088
		c0-34.848,28.242-63.095,63.081-63.095c34.842,0,63.091,28.247,63.091,63.095C787.582,737.569,759.333,765.815,724.491,765.815z"/>
	<path fill="#16AF91" d="M681.85,523.876l7.443-2.068c-0.017-2.77-0.23-5.491-0.646-8.146l-7.638-0.656
		c-0.383-1.909-0.888-3.773-1.497-5.58l6.188-4.613c-0.997-2.53-2.185-4.956-3.529-7.269l-7.361,2.144
		c-1.072-1.672-2.256-3.266-3.525-4.776l4.094-6.525c-1.815-1.956-3.78-3.782-5.878-5.448l-6.091,4.66
		c-1.626-1.19-3.327-2.269-5.112-3.229l1.462-7.563c-2.382-1.15-4.852-2.13-7.414-2.915l-4.004,6.549
		c-1.951-0.5-3.964-0.879-6.012-1.13l-1.362-7.56c-1.31-0.099-2.638-0.145-3.977-0.145s-2.665,0.046-3.978,0.145l-1.368,7.56
		c-2.044,0.251-4.05,0.63-6.013,1.13l-4-6.549c-2.563,0.785-5.033,1.765-7.413,2.915l1.457,7.563
		c-1.771,0.96-3.481,2.038-5.108,3.229l-6.094-4.66c-2.098,1.666-4.057,3.492-5.877,5.448l4.103,6.525
		c-1.28,1.511-2.456,3.104-3.532,4.776l-7.361-2.144c-1.346,2.313-2.532,4.738-3.519,7.269l6.177,4.613
		c-0.613,1.807-1.117,3.671-1.494,5.58l-7.631,0.656c-0.428,2.654-0.649,5.376-0.652,8.146l7.439,2.068
		c0.086,1.889,0.284,3.746,0.59,5.566l-6.885,3.374c0.573,2.72,1.365,5.368,2.348,7.907l7.684-0.751
		c0.736,1.661,1.57,3.274,2.496,4.831l-5.21,5.637c1.523,2.334,3.222,4.534,5.085,6.592l6.894-3.479
		c1.243,1.247,2.559,2.427,3.947,3.521l-2.82,7.15c2.257,1.639,4.644,3.106,7.15,4.38l5.157-5.731
		c1.576,0.709,3.209,1.325,4.865,1.853l-0.04,7.694c2.684,0.715,5.444,1.23,8.274,1.517l2.743-7.202
		c0.849,0.05,1.712,0.073,2.586,0.073c0.864,0,1.725-0.023,2.579-0.073l2.747,7.202c2.833-0.286,5.597-0.802,8.273-1.517
		l-0.046-7.694c1.67-0.527,3.295-1.144,4.871-1.853l5.162,5.731c2.495-1.273,4.896-2.741,7.146-4.38l-2.819-7.15
		c1.385-1.095,2.701-2.274,3.941-3.521l6.902,3.479c1.855-2.058,3.561-4.258,5.074-6.592l-5.197-5.637
		c0.92-1.557,1.755-3.17,2.487-4.831l7.692,0.751c0.98-2.539,1.766-5.188,2.343-7.907l-6.886-3.374
		C681.57,527.622,681.764,525.765,681.85,523.876z M636.989,559.482c-20.822,0-37.707-16.885-37.707-37.714
		c0-20.826,16.885-37.704,37.707-37.704c20.826,0,37.704,16.878,37.704,37.704C674.693,542.598,657.815,559.482,636.989,559.482z"/>
	<path fill="#16AF91" d="M207.444,484.779l5.726-1.596c-0.003-2.124-0.168-4.222-0.492-6.26l-5.869-0.507
		c-0.3-1.472-0.689-2.903-1.161-4.298l4.765-3.546c-0.765-1.944-1.678-3.812-2.717-5.593l-5.666,1.646
		c-0.82-1.279-1.728-2.502-2.707-3.666l3.149-5.02c-1.396-1.508-2.911-2.909-4.524-4.195l-4.684,3.588
		c-1.253-0.92-2.565-1.748-3.934-2.486l1.118-5.821c-1.82-0.884-3.73-1.632-5.698-2.239l-3.085,5.039
		c-1.5-0.382-3.047-0.679-4.62-0.866l-1.055-5.818c-1.01-0.075-2.025-0.115-3.051-0.115c-1.032,0-2.055,0.04-3.063,0.115
		l-1.049,5.818c-1.579,0.188-3.12,0.484-4.624,0.866l-3.08-5.039c-1.976,0.607-3.878,1.355-5.709,2.239l1.132,5.821
		c-1.365,0.738-2.682,1.566-3.938,2.486l-4.683-3.588c-1.612,1.286-3.13,2.688-4.524,4.195l3.149,5.02
		c-0.985,1.164-1.89,2.387-2.704,3.666l-5.672-1.646c-1.039,1.781-1.949,3.648-2.708,5.593l4.755,3.546
		c-0.468,1.395-0.859,2.826-1.15,4.298l-5.873,0.507c-0.32,2.038-0.498,4.136-0.498,6.26l5.725,1.596
		c0.066,1.451,0.212,2.883,0.452,4.28l-5.3,2.604c0.441,2.087,1.056,4.125,1.805,6.083l5.915-0.59
		c0.565,1.289,1.208,2.526,1.92,3.72l-4.01,4.338c1.177,1.793,2.486,3.488,3.911,5.071l5.307-2.678
		c0.959,0.97,1.972,1.88,3.037,2.714l-2.17,5.505c1.731,1.256,3.571,2.384,5.504,3.359l3.971-4.405
		c1.207,0.547,2.46,1.021,3.74,1.431l-0.037,5.92c2.064,0.544,4.188,0.95,6.371,1.161l2.108-5.534
		c0.652,0.026,1.325,0.053,1.991,0.053c0.669,0,1.326-0.026,1.982-0.053l2.109,5.534c2.178-0.211,4.311-0.617,6.369-1.161
		l-0.033-5.92c1.279-0.409,2.529-0.884,3.74-1.431l3.977,4.405c1.924-0.976,3.767-2.104,5.497-3.359l-2.169-5.505
		c1.064-0.834,2.077-1.744,3.037-2.714l5.296,2.678c1.441-1.583,2.743-3.278,3.915-5.071l-3.997-4.338
		c0.709-1.193,1.342-2.431,1.912-3.72l5.913,0.59c0.763-1.958,1.362-3.996,1.811-6.083l-5.303-2.604
		C207.237,487.662,207.383,486.23,207.444,484.779z M172.939,512.178c-16.031,0-29.011-12.993-29.011-29.018
		c0-16.021,12.979-29.011,29.011-29.011c16.021,0,28.998,12.989,28.998,29.011C201.938,499.185,188.96,512.178,172.939,512.178z"/>
	<path fill="#4D4E4E" d="M990.498,582.94l14.851-4.133c-0.011-5.523-0.458-10.941-1.293-16.234l-15.226-1.316
		c-0.766-3.807-1.768-7.526-2.998-11.137l12.348-9.205c-1.976-5.039-4.34-9.884-7.045-14.5l-14.679,4.271
		c-2.131-3.328-4.484-6.5-7.038-9.507l8.18-13.031c-3.635-3.91-7.545-7.545-11.725-10.872l-12.158,9.292
		c-3.233-2.36-6.646-4.521-10.201-6.433l2.915-15.091c-4.741-2.3-9.679-4.242-14.794-5.809l-7.98,13.077
		c-3.901-1.022-7.902-1.769-11.987-2.256l-2.728-15.091c-2.622-0.199-5.264-0.298-7.932-0.298c-2.664,0-5.316,0.099-7.938,0.298
		l-2.721,15.091c-4.09,0.487-8.087,1.233-11.984,2.256l-7.987-13.077c-5.112,1.566-10.052,3.509-14.795,5.809l2.923,15.091
		c-3.559,1.912-6.966,4.072-10.207,6.433l-12.16-9.292c-4.178,3.327-8.099,6.962-11.727,10.872l8.179,13.031
		c-2.539,3.007-4.904,6.179-7.034,9.507l-14.679-4.271c-2.704,4.616-5.069,9.461-7.042,14.5l12.338,9.205
		c-1.227,3.61-2.229,7.33-2.994,11.137l-15.223,1.316c-0.834,5.293-1.276,10.711-1.299,16.234l14.856,4.133
		c0.155,3.762,0.557,7.473,1.174,11.104l-13.745,6.743c1.147,5.423,2.727,10.698,4.683,15.774l15.338-1.514
		c1.468,3.327,3.123,6.543,4.96,9.637l-10.368,11.245c3.028,4.653,6.427,9.06,10.15,13.155l13.739-6.948
		c2.483,2.503,5.111,4.851,7.869,7.048l-5.627,14.256c4.502,3.269,9.267,6.193,14.273,8.729l10.293-11.437
		c3.146,1.412,6.388,2.655,9.705,3.708l-0.086,15.337c5.344,1.444,10.863,2.474,16.516,3.041l5.462-14.372
		c1.701,0.099,3.43,0.146,5.157,0.146c1.732,0,3.447-0.047,5.154-0.146l5.471,14.372c5.65-0.567,11.161-1.597,16.506-3.041
		l-0.088-15.337c3.324-1.053,6.559-2.296,9.709-3.708l10.295,11.437c4.993-2.535,9.775-5.46,14.27-8.729l-5.622-14.256
		c2.757-2.197,5.389-4.545,7.858-7.048l13.756,6.948c3.72-4.096,7.11-8.502,10.15-13.155l-10.388-11.245
		c1.847-3.094,3.499-6.31,4.966-9.637l15.342,1.514c1.956-5.076,3.525-10.352,4.689-15.774l-13.749-6.743
		C989.947,590.413,990.34,586.702,990.498,582.94z M901.008,653.973c-41.55,0-75.23-33.681-75.23-75.233
		c0-41.547,33.681-75.23,75.23-75.23s75.227,33.684,75.227,75.23C976.234,620.292,942.558,653.973,901.008,653.973z"/>
	<path fill="#D71C55" d="M702.86,277.292l4.053-3.637c-0.874-1.749-1.869-3.394-2.968-4.938l-5.035,1.979
		c-0.835-1.089-1.745-2.104-2.695-3.054l2.457-4.858c-1.425-1.286-2.929-2.45-4.511-3.485l-3.981,3.66
		c-1.2-0.715-2.44-1.352-3.723-1.896l0.544-5.412c-1.771-0.672-3.588-1.203-5.431-1.603l-2.382,4.858
		c-1.402-0.237-2.819-0.38-4.244-0.432l-1.462-5.238c-1.855,0.02-3.729,0.182-5.593,0.485l-0.478,5.398
		c-1.389,0.297-2.773,0.687-4.146,1.178l-3.23-4.351c-0.864,0.35-1.723,0.739-2.566,1.158c-0.848,0.419-1.666,0.864-2.463,1.339
		l1.513,5.21c-1.223,0.795-2.364,1.666-3.439,2.599l-4.594-2.879c-1.365,1.3-2.628,2.691-3.763,4.163l3.298,4.319
		c-0.825,1.171-1.561,2.388-2.226,3.651l-5.3-1.026c-0.802,1.705-1.478,3.477-2.005,5.283l4.636,2.839
		c-0.333,1.355-0.58,2.729-0.729,4.119l-5.322,0.957c-0.126,1.89-0.108,3.792,0.052,5.699l5.356,0.977
		c0.188,1.331,0.448,2.674,0.808,3.989l-4.619,2.819c0.573,1.809,1.279,3.592,2.156,5.343l5.346-1.032
		c0.649,1.174,1.349,2.286,2.124,3.338l-3.288,4.3c1.209,1.536,2.545,2.955,3.96,4.258l4.624-2.896
		c0.986,0.821,2.018,1.583,3.09,2.275l-1.517,5.194c1.691,0.993,3.459,1.85,5.279,2.565l3.265-4.366
		c1.182,0.402,2.385,0.732,3.598,0.989l0.466,5.402c1.942,0.33,3.914,0.504,5.887,0.518l1.465-5.24
		c1.216-0.043,2.44-0.166,3.663-0.356l2.385,4.87c1.916-0.385,3.825-0.923,5.705-1.635l-0.53-5.412
		c0.557-0.234,1.107-0.492,1.654-0.768c0.548-0.268,1.089-0.555,1.606-0.854l3.998,3.687c1.697-1.065,3.283-2.262,4.752-3.555
		l-2.444-4.848c0.884-0.857,1.718-1.761,2.486-2.701l5.065,1.999c1.182-1.594,2.236-3.269,3.136-5.01l-4.019-3.624
		c0.529-1.132,0.988-2.293,1.381-3.473l5.445,0.035c0.533-1.89,0.917-3.814,1.146-5.764l-5.062-1.934
		c0.096-1.27,0.118-2.545,0.057-3.828l5.095-1.939c-0.172-1.919-0.508-3.836-1.003-5.731l-5.411,0.026
		C703.859,279.75,703.404,278.52,702.86,277.292z M685.701,313.889c-13.154,6.536-29.13,1.177-35.669-11.985
		c-6.543-13.154-1.178-29.126,11.981-35.665c13.147-6.54,29.123-1.178,35.669,11.978
		C704.223,291.374,698.854,307.346,685.701,313.889z"/>
	<path fill="#D71C55" d="M441.223,499.412l2.879-2.586c-0.62-1.246-1.322-2.424-2.114-3.524l-3.575,1.414
		c-0.59-0.774-1.235-1.497-1.919-2.18l1.747-3.449c-1.002-0.91-2.087-1.744-3.208-2.483l-2.833,2.608
		c-0.854-0.508-1.734-0.959-2.645-1.353l0.379-3.849c-1.256-0.481-2.545-0.86-3.864-1.141l-1.695,3.456
		c-0.999-0.165-1.995-0.273-3.024-0.3l-1.032-3.73c-1.319,0.018-2.655,0.133-3.978,0.34l-0.336,3.846
		c-0.989,0.214-1.988,0.484-2.955,0.837l-2.302-3.099c-0.624,0.25-1.228,0.529-1.823,0.824c-0.604,0.296-1.188,0.616-1.759,0.955
		l1.078,3.708c-0.863,0.566-1.681,1.19-2.456,1.851l-3.262-2.045c-0.966,0.92-1.873,1.912-2.678,2.951l2.348,3.08
		c-0.58,0.827-1.111,1.702-1.586,2.596l-3.77-0.732c-0.573,1.217-1.048,2.473-1.428,3.762l3.301,2.029
		c-0.234,0.95-0.412,1.93-0.518,2.922l-3.789,0.683c-0.086,1.342-0.086,2.7,0.04,4.06l3.815,0.692
		c0.131,0.953,0.311,1.899,0.57,2.84l-3.288,2.008c0.402,1.282,0.91,2.557,1.53,3.8l3.809-0.729
		c0.465,0.824,0.963,1.621,1.511,2.367l-2.345,3.058c0.874,1.098,1.82,2.106,2.826,3.03l3.278-2.058
		c0.709,0.587,1.447,1.127,2.206,1.619l-1.075,3.696c1.204,0.713,2.457,1.32,3.759,1.824l2.32-3.107
		c0.83,0.288,1.693,0.521,2.564,0.709l0.33,3.839c1.379,0.238,2.783,0.363,4.188,0.374l1.05-3.73
		c0.86-0.033,1.734-0.125,2.602-0.254l1.695,3.466c1.365-0.276,2.714-0.656,4.056-1.171l-0.382-3.849
		c0.402-0.161,0.795-0.343,1.19-0.54c0.396-0.199,0.766-0.4,1.138-0.61l2.849,2.628c1.204-0.768,2.336-1.612,3.374-2.532
		l-1.74-3.456c0.633-0.601,1.223-1.248,1.774-1.92l3.6,1.425c0.842-1.135,1.597-2.325,2.236-3.568l-2.865-2.579
		c0.383-0.811,0.705-1.629,0.988-2.47l3.876,0.026c0.376-1.34,0.649-2.721,0.821-4.1l-3.607-1.379
		c0.068-0.903,0.082-1.813,0.035-2.727l3.629-1.379c-0.12-1.362-0.363-2.728-0.713-4.076l-3.846,0.017
		C441.929,501.156,441.611,500.282,441.223,499.412z M429.018,525.452c-9.367,4.65-20.733,0.842-25.394-8.525
		c-4.65-9.365-0.835-20.73,8.528-25.384c9.362-4.656,20.724-0.84,25.377,8.528C442.189,509.435,438.38,520.795,429.018,525.452z"/>
	<path fill="#F9AF1D" d="M925.29,408.062l3.925-3.531c-0.842-1.702-1.797-3.302-2.873-4.795l-4.884,1.916
		c-0.795-1.05-1.679-2.042-2.615-2.962l2.384-4.713c-1.361-1.239-2.839-2.374-4.379-3.377l-3.842,3.555
		c-1.174-0.692-2.379-1.309-3.617-1.84l0.523-5.25c-1.715-0.653-3.469-1.168-5.267-1.55l-2.306,4.713
		c-1.368-0.234-2.73-0.38-4.125-0.416l-1.404-5.085c-1.814,0.021-3.622,0.181-5.426,0.472l-0.455,5.236
		c-1.349,0.287-2.707,0.663-4.033,1.141l-3.137-4.221c-0.844,0.336-1.664,0.713-2.477,1.115c-0.821,0.408-1.615,0.847-2.396,1.305
		l1.47,5.054c-1.184,0.771-2.298,1.625-3.344,2.516l-4.455-2.78c-1.315,1.257-2.553,2.605-3.638,4.027l3.198,4.188
		c-0.805,1.132-1.519,2.315-2.166,3.539l-5.142-0.989c-0.781,1.646-1.428,3.37-1.942,5.125l4.495,2.751
		c-0.316,1.305-0.558,2.647-0.709,3.986l-5.158,0.933c-0.118,1.834-0.118,3.684,0.057,5.534l5.193,0.943
		c0.178,1.3,0.429,2.589,0.778,3.871l-4.479,2.731c0.548,1.757,1.244,3.489,2.089,5.185l5.18-1.004
		c0.637,1.135,1.316,2.213,2.062,3.236l-3.191,4.168c1.189,1.494,2.479,2.872,3.854,4.126l4.468-2.804
		c0.96,0.795,1.976,1.537,3.009,2.209l-1.469,5.037c1.637,0.966,3.349,1.797,5.123,2.489l3.152-4.237
		c1.146,0.385,2.314,0.709,3.499,0.966l0.445,5.228c1.88,0.326,3.802,0.494,5.715,0.508l1.421-5.082
		c1.181-0.047,2.365-0.162,3.549-0.347l2.313,4.723c1.859-0.38,3.713-0.896,5.536-1.59l-0.531-5.246
		c0.544-0.229,1.093-0.479,1.623-0.746c0.534-0.261,1.042-0.534,1.546-0.827l3.886,3.581c1.639-1.038,3.182-2.2,4.597-3.452
		l-2.371-4.703c0.867-0.824,1.672-1.699,2.414-2.615l4.917,1.946c1.145-1.554,2.171-3.177,3.048-4.864l-3.908-3.517
		c0.514-1.102,0.967-2.222,1.343-3.366l5.286,0.035c0.514-1.83,0.891-3.706,1.111-5.593l-4.914-1.873
		c0.096-1.228,0.125-2.474,0.06-3.716l4.94-1.877c-0.172-1.854-0.492-3.713-0.977-5.561l-5.236,0.033
		C926.256,410.437,925.814,409.242,925.29,408.062z M908.656,443.54c-12.76,6.345-28.256,1.141-34.604-11.618
		c-6.333-12.76-1.132-28.243,11.628-34.588c12.76-6.349,28.236-1.145,34.585,11.611C926.609,421.711,921.412,437.198,908.656,443.54
		z"/>
	<path fill="#D71C55" d="M752.773,553.263l2.586-2.331c-0.559-1.125-1.191-2.174-1.9-3.163l-3.213,1.267
		c-0.533-0.693-1.117-1.346-1.725-1.953l1.564-3.106c-0.904-0.821-1.874-1.56-2.876-2.229l-2.55,2.348
		c-0.765-0.461-1.56-0.867-2.384-1.221l0.356-3.455c-1.135-0.433-2.289-0.772-3.477-1.026l-1.523,3.104
		c-0.897-0.152-1.801-0.244-2.721-0.277l-0.924-3.345c-1.19,0.012-2.387,0.116-3.578,0.314l-0.307,3.445
		c-0.891,0.191-1.777,0.442-2.654,0.753l-2.061-2.788c-0.561,0.231-1.103,0.479-1.644,0.743c-0.541,0.271-1.071,0.554-1.576,0.86
		l0.966,3.33c-0.781,0.509-1.506,1.07-2.199,1.666L718,544.354c-0.869,0.828-1.678,1.726-2.404,2.662l2.108,2.764
		c-0.524,0.748-0.999,1.526-1.419,2.331l-3.403-0.659c-0.507,1.099-0.939,2.227-1.272,3.383l2.961,1.818
		c-0.207,0.866-0.365,1.744-0.461,2.631l-3.407,0.614c-0.082,1.206-0.069,2.424,0.034,3.647l3.43,0.619
		c0.115,0.854,0.283,1.708,0.51,2.557l-2.951,1.797c0.363,1.164,0.822,2.303,1.379,3.427l3.417-0.667
		c0.415,0.746,0.866,1.458,1.352,2.131l-2.097,2.75c0.777,0.983,1.629,1.894,2.535,2.725l2.952-1.85
		c0.637,0.523,1.289,1.009,1.979,1.447l-0.97,3.327c1.085,0.63,2.217,1.188,3.381,1.646l2.084-2.793
		c0.751,0.251,1.523,0.465,2.301,0.633l0.301,3.447c1.24,0.214,2.496,0.322,3.763,0.336l0.934-3.354
		c0.785-0.032,1.563-0.104,2.338-0.23l1.527,3.116c1.229-0.24,2.45-0.586,3.654-1.045l-0.347-3.46
		c0.366-0.146,0.716-0.31,1.065-0.487c0.35-0.176,0.692-0.357,1.025-0.548l2.556,2.358c1.085-0.684,2.098-1.451,3.033-2.276
		l-1.56-3.1c0.571-0.547,1.099-1.125,1.59-1.726l3.242,1.274c0.755-1.017,1.428-2.089,2.009-3.203l-2.572-2.321
		c0.336-0.723,0.63-1.461,0.883-2.209l3.479,0.013c0.343-1.201,0.587-2.437,0.739-3.681l-3.242-1.236
		c0.06-0.812,0.075-1.633,0.033-2.453l3.265-1.237c-0.118-1.23-0.327-2.446-0.64-3.667l-3.467,0.02
		C753.41,554.829,753.113,554.04,752.773,553.263z M741.799,576.651c-8.417,4.185-18.634,0.755-22.813-7.655
		c-4.181-8.423-0.751-18.632,7.665-22.813c8.413-4.183,18.626-0.745,22.805,7.66C753.645,562.263,750.211,572.476,741.799,576.651z"
		/>
	<path fill="#D71C55" d="M357.239,281.933l2.593-2.332c-0.561-1.121-1.194-2.173-1.903-3.159l-3.216,1.267
		c-0.534-0.689-1.107-1.346-1.721-1.952l1.572-3.104c-0.906-0.824-1.875-1.565-2.892-2.229l-2.539,2.345
		c-0.769-0.461-1.558-0.867-2.389-1.221l0.354-3.459c-1.132-0.432-2.292-0.769-3.472-1.022l-1.525,3.104
		c-0.893-0.151-1.803-0.244-2.714-0.273l-0.936-3.354c-1.184,0.017-2.382,0.118-3.575,0.316l-0.3,3.449
		c-0.894,0.184-1.781,0.438-2.655,0.752l-2.067-2.786c-0.554,0.227-1.102,0.478-1.636,0.744c-0.544,0.268-1.075,0.555-1.583,0.861
		l0.973,3.331c-0.785,0.508-1.518,1.062-2.206,1.665l-2.938-1.847c-0.874,0.828-1.672,1.725-2.404,2.662l2.114,2.763
		c-0.527,0.749-1.003,1.526-1.426,2.331l-3.393-0.655c-0.512,1.095-0.938,2.226-1.279,3.38l2.967,1.817
		c-0.214,0.864-0.369,1.741-0.467,2.631l-3.406,0.614c-0.08,1.207-0.07,2.424,0.042,3.645l3.42,0.623
		c0.115,0.854,0.286,1.707,0.518,2.552l-2.951,1.801c0.359,1.154,0.817,2.303,1.375,3.42l3.416-0.659
		c0.419,0.748,0.864,1.457,1.358,2.131l-2.104,2.753c0.778,0.979,1.629,1.887,2.539,2.718l2.952-1.851
		c0.63,0.531,1.292,1.006,1.979,1.454l-0.974,3.324c1.09,0.63,2.21,1.185,3.378,1.64l2.091-2.79
		c0.748,0.251,1.523,0.469,2.295,0.636l0.304,3.447c1.24,0.217,2.496,0.322,3.763,0.339l0.938-3.354
		c0.777-0.033,1.556-0.108,2.341-0.23l1.527,3.116c1.223-0.245,2.446-0.59,3.64-1.05l-0.336-3.459
		c0.359-0.148,0.713-0.313,1.062-0.484c0.344-0.178,0.693-0.363,1.029-0.551l2.549,2.361c1.092-0.689,2.104-1.45,3.044-2.286
		l-1.565-3.096c0.563-0.544,1.098-1.118,1.593-1.722l3.232,1.276c0.758-1.017,1.434-2.091,2.011-3.209l-2.572-2.315
		c0.34-0.722,0.636-1.464,0.891-2.219l3.479,0.02c0.34-1.201,0.583-2.434,0.729-3.681l-3.238-1.239
		c0.069-0.806,0.079-1.63,0.042-2.447l3.259-1.237c-0.116-1.229-0.33-2.449-0.646-3.667l-3.456,0.02
		C357.872,283.503,357.586,282.711,357.239,281.933z M346.271,305.328c-8.416,4.181-18.63,0.751-22.811-7.662
		c-4.183-8.415-0.753-18.626,7.657-22.808c8.413-4.186,18.63-0.752,22.812,7.658C358.11,290.932,354.678,301.146,346.271,305.328z"
		/>
	<path fill="#D71C55" d="M620.912,760.008l4.903-4.416c-1.048-2.116-2.262-4.109-3.591-5.982l-6.094,2.407
		c-1.013-1.318-2.111-2.559-3.263-3.709l2.975-5.878c-1.725-1.56-3.551-2.968-5.468-4.225l-4.818,4.439
		c-1.461-0.874-2.961-1.642-4.511-2.302l0.656-6.563c-2.144-0.812-4.329-1.461-6.573-1.934l-2.892,5.884
		c-1.698-0.293-3.42-0.465-5.145-0.524l-1.755-6.348c-2.262,0.029-4.527,0.218-6.786,0.6l-0.574,6.533
		c-1.688,0.356-3.363,0.824-5.029,1.419l-3.914-5.268c-1.039,0.423-2.075,0.891-3.104,1.401c-1.02,0.512-2.019,1.046-2.988,1.627
		l1.837,6.312c-1.48,0.96-2.861,2.019-4.168,3.152l-5.563-3.492c-1.655,1.566-3.179,3.255-4.562,5.042l4.001,5.237
		c-0.999,1.415-1.897,2.889-2.698,4.416l-6.424-1.247c-0.974,2.074-1.784,4.212-2.431,6.402l5.626,3.442
		c-0.402,1.639-0.705,3.302-0.89,4.985l-6.454,1.161c-0.155,2.293-0.14,4.591,0.072,6.909l6.487,1.171
		c0.217,1.626,0.544,3.245,0.982,4.851l-5.601,3.404c0.687,2.199,1.554,4.356,2.613,6.48l6.483-1.254
		c0.778,1.421,1.629,2.764,2.559,4.033l-3.983,5.211c1.474,1.869,3.086,3.592,4.809,5.158l5.599-3.506
		c1.19,0.999,2.447,1.916,3.739,2.754l-1.833,6.292c2.045,1.207,4.188,2.253,6.401,3.116l3.943-5.293
		c1.429,0.485,2.893,0.887,4.36,1.207l0.57,6.533c2.345,0.405,4.729,0.609,7.131,0.63l1.767-6.342
		c1.488-0.06,2.958-0.204,4.439-0.438l2.889,5.903c2.322-0.465,4.638-1.125,6.916-1.988l-0.649-6.557
		c0.675-0.284,1.342-0.587,2.011-0.917c0.654-0.333,1.313-0.679,1.943-1.042l4.841,4.472c2.067-1.3,3.974-2.747,5.765-4.314
		l-2.965-5.869c1.063-1.038,2.077-2.133,3.008-3.274l6.131,2.424c1.441-1.93,2.714-3.951,3.809-6.071l-4.864-4.396
		c0.633-1.365,1.184-2.771,1.669-4.198l6.599,0.033c0.64-2.282,1.108-4.614,1.386-6.975l-6.135-2.339
		c0.119-1.533,0.146-3.086,0.073-4.644l6.17-2.345c-0.222-2.324-0.613-4.646-1.211-6.944l-6.56,0.029
		C622.122,762.985,621.568,761.489,620.912,760.008z M600.129,804.328c-15.938,7.921-35.283,1.425-43.211-14.512
		c-7.922-15.94-1.425-35.286,14.52-43.204c15.938-7.932,35.281-1.429,43.199,14.508C622.564,777.058,616.074,796.41,600.129,804.328
		z"/>
	<path fill="#F9AF1D" d="M500.409,431.457c-39.027,0-70.656-31.634-70.656-70.656c0-39.023,31.629-70.659,70.656-70.659
		c39.02,0,70.655,31.636,70.655,70.659C571.064,399.823,539.429,431.457,500.409,431.457z"/>
	<g>
		<path fill="#D71C55" d="M577.07,601.794l10.695-9.624c-2.312-4.613-4.924-8.962-7.829-13.039l-13.277,5.233
			c-2.226-2.859-4.604-5.557-7.136-8.063l6.496-12.828c-3.746-3.391-7.73-6.461-11.908-9.195l-10.5,9.673
			c-3.174-1.893-6.457-3.565-9.838-5.026l1.425-14.286c-4.66-1.761-9.448-3.183-14.326-4.215l-6.299,12.822
			c-3.693-0.63-7.431-1.016-11.206-1.145l-3.832-13.824c-4.917,0.046-9.857,0.478-14.781,1.289l-1.24,14.257
			c-3.68,0.772-7.341,1.801-10.955,3.086l-8.555-11.472c-2.275,0.913-4.521,1.935-6.754,3.04c-2.227,1.108-4.399,2.292-6.513,3.545
			l3.996,13.752c-3.212,2.104-6.239,4.402-9.079,6.866l-12.109-7.604c-3.617,3.426-6.945,7.109-9.949,11.002l8.702,11.402
			c-2.173,3.081-4.132,6.297-5.85,9.621l-14.032-2.715c-2.111,4.512-3.875,9.186-5.267,13.96l12.235,7.493
			c-0.874,3.571-1.518,7.202-1.927,10.873l-14.052,2.532c-0.336,4.979-0.297,10.013,0.151,15.052l14.145,2.559
			c0.469,3.535,1.174,7.059,2.11,10.551l-12.172,7.434c1.493,4.768,3.38,9.49,5.669,14.111l14.118-2.719
			c1.705,3.084,3.575,6.014,5.604,8.799l-8.687,11.346c3.222,4.056,6.724,7.809,10.474,11.235l12.194-7.642
			c2.603,2.177,5.323,4.172,8.153,6.003l-4,13.716c4.471,2.631,9.138,4.899,13.952,6.779l8.608-11.525
			c3.105,1.055,6.285,1.929,9.501,2.615l1.226,14.26c5.125,0.867,10.319,1.328,15.551,1.365l3.858-13.838
			c3.218-0.122,6.444-0.432,9.662-0.937l6.296,12.864c5.072-1.025,10.104-2.453,15.063-4.326l-1.397-14.286
			c1.464-0.634,2.925-1.296,4.362-2.018c1.454-0.723,2.866-1.479,4.252-2.263l10.553,9.735c4.485-2.823,8.664-5.976,12.532-9.396
			l-6.451-12.792c2.348-2.27,4.535-4.649,6.579-7.134l13.363,5.28c3.123-4.197,5.896-8.624,8.298-13.224l-10.633-9.591
			c1.398-2.978,2.615-6.034,3.65-9.151l14.382,0.089c1.405-4.966,2.414-10.059,3.015-15.209l-13.343-5.089
			c0.251-3.356,0.29-6.734,0.136-10.128l13.45-5.105c-0.475-5.059-1.345-10.121-2.634-15.137l-14.29,0.082
			C579.709,608.277,578.498,605.013,577.07,601.794z M531.781,698.385c-34.732,17.261-76.89,3.105-94.164-31.63
			c-17.264-34.733-3.112-76.898,31.617-94.16c34.733-17.271,76.898-3.113,94.17,31.617
			C580.672,638.95,566.515,681.106,531.781,698.385z"/>
		<circle fill="#D71C55" cx="500.508" cy="635.488" r="50.87"/>
	</g>
	<g>
		<path fill="#D71C55" d="M332.796,379.813l7.354-6.619c-1.583-3.174-3.391-6.171-5.392-8.971l-9.126,3.598
			c-1.53-1.969-3.169-3.819-4.907-5.547l4.472-8.824c-2.578-2.332-5.325-4.439-8.194-6.326l-7.227,6.652
			c-2.183-1.296-4.444-2.451-6.773-3.456l0.983-9.827c-3.206-1.208-6.498-2.188-9.852-2.899l-4.336,8.821
			c-2.537-0.436-5.115-0.699-7.711-0.784l-2.631-9.511c-3.384,0.029-6.784,0.322-10.175,0.883l-0.851,9.809
			c-2.529,0.53-5.053,1.232-7.532,2.123l-5.89-7.898c-1.566,0.631-3.109,1.339-4.643,2.102c-1.545,0.761-3.034,1.569-4.482,2.437
			l2.743,9.462c-2.206,1.443-4.29,3.03-6.243,4.719l-8.329-5.23c-2.487,2.361-4.782,4.884-6.843,7.565l5.991,7.839
			c-1.501,2.124-2.843,4.341-4.033,6.629l-9.646-1.87c-1.459,3.11-2.669,6.315-3.635,9.61l8.429,5.147
			c-0.606,2.46-1.052,4.963-1.339,7.479l-9.658,1.742c-0.231,3.436-0.205,6.895,0.104,10.361l9.729,1.758
			c0.317,2.434,0.812,4.852,1.462,7.262l-8.384,5.107c1.029,3.285,2.325,6.53,3.905,9.713l9.709-1.869
			c1.174,2.113,2.463,4.135,3.858,6.054l-5.979,7.797c2.213,2.796,4.624,5.375,7.203,7.733l8.393-5.258
			c1.794,1.494,3.667,2.869,5.609,4.123l-2.75,9.438c3.073,1.813,6.279,3.373,9.6,4.667l5.913-7.929
			c2.14,0.726,4.33,1.326,6.54,1.802l0.844,9.811c3.528,0.593,7.097,0.913,10.698,0.936l2.655-9.518
			c2.212-0.085,4.429-0.296,6.648-0.646l4.33,8.849c3.492-0.703,6.951-1.686,10.361-2.973l-0.966-9.827
			c1.006-0.438,2.015-0.894,3.004-1.396c0.999-0.49,1.979-1.012,2.926-1.556l7.255,6.694c3.09-1.936,5.962-4.103,8.631-6.465
			l-4.437-8.795c1.603-1.56,3.117-3.188,4.519-4.91l9.197,3.635c2.147-2.883,4.053-5.937,5.709-9.096l-7.318-6.592
			c0.963-2.055,1.798-4.153,2.517-6.303l9.89,0.063c0.97-3.417,1.666-6.916,2.082-10.471l-9.188-3.492
			c0.172-2.312,0.202-4.63,0.096-6.965l9.25-3.519c-0.322-3.479-0.926-6.956-1.813-10.415l-9.83,0.063
			C334.613,384.268,333.772,382.025,332.796,379.813z M301.635,446.258c-23.891,11.879-52.898,2.14-64.779-21.753
			c-11.876-23.896-2.141-52.907,21.755-64.782c23.897-11.88,52.898-2.138,64.786,21.755
			C335.269,405.374,325.531,434.372,301.635,446.258z"/>
		<path fill="#D71C55" d="M280.123,437.987c-19.325,0-34.997-15.669-34.997-34.99c0-19.33,15.672-35.001,34.997-35.001
			s34.993,15.671,34.993,35.001C315.116,422.318,299.448,437.987,280.123,437.987z"/>
	</g>
	<g>
		<path fill="#F9AF1D" d="M375.192,542.344l9.96-8.968c-2.144-4.297-4.587-8.353-7.295-12.148l-12.37,4.874
			c-2.071-2.665-4.291-5.177-6.646-7.517l6.053-11.947c-3.492-3.159-7.21-6.016-11.098-8.567l-9.781,9.009
			c-2.965-1.764-6.022-3.317-9.172-4.683l1.336-13.307c-4.356-1.646-8.805-2.968-13.35-3.931l-5.871,11.947
			c-3.445-0.583-6.925-0.945-10.45-1.065l-3.565-12.881c-4.58,0.046-9.184,0.442-13.771,1.204l-1.154,13.273
			c-3.423,0.719-6.839,1.679-10.207,2.882l-7.971-10.694c-2.12,0.857-4.221,1.811-6.292,2.843c-2.084,1.035-4.106,2.124-6.068,3.298
			l3.717,12.815c-2.991,1.959-5.808,4.1-8.459,6.396l-11.285-7.088c-3.367,3.198-6.471,6.622-9.261,10.25l8.103,10.622
			c-2.018,2.869-3.845,5.87-5.458,8.977l-13.062-2.536c-1.97,4.202-3.614,8.555-4.918,13.011l11.404,6.978
			c-0.812,3.335-1.417,6.714-1.794,10.135l-13.09,2.354c-0.31,4.644-0.276,9.333,0.133,14.025l13.188,2.392
			c0.431,3.29,1.095,6.569,1.969,9.827l-11.352,6.922c1.389,4.446,3.155,8.849,5.289,13.149l13.152-2.533
			c1.586,2.873,3.334,5.606,5.228,8.198l-8.097,10.569c3.004,3.783,6.267,7.279,9.761,10.471l11.358-7.113
			c2.431,2.018,4.963,3.882,7.596,5.583l-3.73,12.782c4.171,2.457,8.516,4.564,13.014,6.319l8.013-10.738
			c2.893,0.979,5.854,1.794,8.849,2.437l1.142,13.285c4.778,0.811,9.616,1.242,14.5,1.27l3.592-12.895
			c2.99-0.109,6.002-0.402,8.996-0.875l5.871,11.995c4.723-0.953,9.412-2.289,14.031-4.03l-1.299-13.313
			c1.358-0.591,2.724-1.215,4.066-1.884c1.358-0.673,2.665-1.372,3.957-2.111l9.828,9.076c4.188-2.632,8.082-5.57,11.688-8.756
			l-6.016-11.922c2.189-2.114,4.231-4.323,6.124-6.635l12.453,4.907c2.908-3.905,5.49-8.027,7.743-12.318l-9.916-8.93
			c1.299-2.777,2.434-5.633,3.406-8.528l13.399,0.076c1.309-4.624,2.249-9.366,2.813-14.171l-12.446-4.739
			c0.241-3.123,0.277-6.27,0.136-9.436l12.532-4.759c-0.445-4.713-1.26-9.425-2.461-14.104l-13.31,0.079
			C377.643,548.382,376.522,545.337,375.192,542.344z M332.99,632.332c-32.361,16.09-71.651,2.898-87.738-29.466
			c-16.091-32.362-2.899-71.649,29.463-87.736c32.367-16.09,71.648-2.893,87.731,29.466
			C378.537,576.961,365.355,616.239,332.99,632.332z"/>
		<path fill="#F9AF1D" d="M303.851,621.136c-26.178,0-47.4-21.229-47.4-47.396c0-26.179,21.223-47.4,47.4-47.4
			c26.175,0,47.394,21.222,47.394,47.4C351.244,599.907,330.025,621.136,303.851,621.136z"/>
	</g>
	<path fill="#F9AF1D" d="M611.589,366.015l18.441-5.129c-0.013-6.866-0.563-13.606-1.603-20.176l-18.92-1.637
		c-0.949-4.719-2.193-9.346-3.723-13.826l15.335-11.438c-2.453-6.256-5.393-12.271-8.747-18.014l-18.236,5.307
		c-2.654-4.133-5.58-8.076-8.732-11.81l10.153-16.182c-4.508-4.862-9.372-9.383-14.572-13.509l-15.098,11.546
		c-4.036-2.941-8.265-5.613-12.673-7.997l3.62-18.745c-5.896-2.85-12.027-5.267-18.376-7.212l-9.92,16.238
		c-4.844-1.264-9.808-2.193-14.893-2.801l-3.38-18.748c-3.259-0.25-6.54-0.376-9.857-0.376c-3.314,0-6.599,0.126-9.858,0.376
		l-3.387,18.748c-5.075,0.607-10.041,1.537-14.876,2.801l-9.93-16.238c-6.343,1.945-12.486,4.362-18.37,7.212l3.612,18.745
		c-4.409,2.384-8.64,5.056-12.674,7.997l-15.095-11.546c-5.193,4.126-10.071,8.646-14.566,13.509l10.151,16.182
		c-3.149,3.733-6.085,7.677-8.736,11.81l-18.236-5.307c-3.358,5.742-6.293,11.758-8.75,18.014l15.342,11.438
		c-1.53,4.48-2.78,9.107-3.723,13.826l-18.92,1.637c-1.043,6.569-1.59,13.31-1.606,20.176l18.438,5.129
		c0.209,4.673,0.696,9.276,1.459,13.801l-17.066,8.374c1.428,6.737,3.39,13.283,5.82,19.592l19.059-1.883
		c1.816,4.132,3.884,8.13,6.166,11.974l-12.894,13.974c3.772,5.784,7.983,11.253,12.606,16.341l17.074-8.63
		c3.083,3.104,6.344,6.021,9.773,8.745l-6.98,17.717c5.586,4.06,11.51,7.7,17.726,10.84l12.788-14.203
		c3.905,1.764,7.926,3.297,12.058,4.604l-0.108,19.061c6.639,1.784,13.481,3.067,20.512,3.77l6.788-17.852
		c2.124,0.109,4.25,0.185,6.404,0.185c2.149,0,4.283-0.075,6.403-0.185l6.798,17.852c7.019-0.702,13.864-1.985,20.51-3.77
		l-0.116-19.061c4.129-1.307,8.152-2.84,12.058-4.604l12.795,14.203c6.214-3.14,12.136-6.78,17.723-10.84l-6.988-17.717
		c3.427-2.724,6.698-5.642,9.769-8.745l17.086,8.63c4.621-5.088,8.836-10.557,12.604-16.341l-12.896-13.974
		c2.288-3.844,4.343-7.842,6.17-11.974l19.052,1.883c2.44-6.309,4.39-12.854,5.827-19.592l-17.076-8.374
		C610.894,375.291,611.385,370.688,611.589,366.015z M500.409,454.262c-51.611,0-93.455-41.843-93.455-93.464
		c0-51.605,41.844-93.459,93.455-93.459c51.614,0,93.454,41.854,93.454,93.459C593.863,412.419,552.023,454.262,500.409,454.262z"/>
	<path fill="#F9AF1D" d="M749.611,457.45c-25.994,0-47.064-21.069-47.064-47.061c0-25.994,21.07-47.057,47.064-47.057
		c25.986,0,47.047,21.063,47.047,47.057C796.658,436.381,775.598,457.45,749.611,457.45z"/>
	<path fill="#F9AF1D" d="M823.654,413.866l12.283-3.42c-0.01-4.57-0.375-9.06-1.071-13.433l-12.598-1.091
		c-0.64-3.149-1.461-6.227-2.477-9.208l10.21-7.624c-1.636-4.162-3.592-8.173-5.824-11.991l-12.143,3.528
		c-1.768-2.748-3.727-5.376-5.824-7.861l6.764-10.775c-3.004-3.238-6.242-6.249-9.702-9.003l-10.059,7.694
		c-2.684-1.959-5.5-3.736-8.438-5.326l2.411-12.486c-3.919-1.896-8.014-3.504-12.235-4.798l-6.609,10.813
		c-3.229-0.847-6.533-1.467-9.912-1.862l-2.26-12.493c-2.164-0.164-4.354-0.243-6.559-0.243c-2.21,0-4.4,0.079-6.567,0.243
		l-2.259,12.493c-3.377,0.396-6.691,1.016-9.906,1.862l-6.612-10.813c-4.228,1.294-8.321,2.902-12.238,4.798l2.407,12.486
		c-2.935,1.59-5.752,3.367-8.432,5.326l-10.059-7.694c-3.46,2.754-6.705,5.765-9.699,9.003l6.761,10.775
		c-2.099,2.485-4.057,5.113-5.824,7.861L675.04,367.1c-2.236,3.818-4.186,7.829-5.834,11.991l10.224,7.624
		c-1.02,2.981-1.841,6.059-2.478,9.208l-12.601,1.091c-0.696,4.373-1.059,8.862-1.075,13.433l12.284,3.42
		c0.139,3.113,0.469,6.184,0.973,9.188l-11.375,5.57c0.967,4.488,2.267,8.854,3.883,13.06l12.689-1.257
		c1.218,2.75,2.589,5.415,4.109,7.981l-8.591,9.299c2.513,3.853,5.319,7.493,8.399,10.88l11.375-5.744
		c2.055,2.064,4.222,4.01,6.51,5.826l-4.65,11.787c3.717,2.714,7.654,5.138,11.804,7.229l8.515-9.461
		c2.603,1.174,5.287,2.196,8.03,3.066l-0.076,12.697c4.43,1.188,8.983,2.034,13.663,2.514l4.521-11.896
		c1.415,0.08,2.832,0.122,4.271,0.122c1.434,0,2.849-0.042,4.264-0.122l4.527,11.896c4.67-0.479,9.228-1.326,13.656-2.514
		l-0.075-12.697c2.746-0.87,5.431-1.893,8.026-3.066l8.525,9.461c4.129-2.091,8.083-4.515,11.803-7.229l-4.656-11.787
		c2.288-1.816,4.459-3.762,6.51-5.826l11.378,5.744c3.073-3.387,5.876-7.027,8.39-10.88l-8.588-9.299
		c1.523-2.566,2.898-5.231,4.112-7.981l12.687,1.257c1.626-4.205,2.93-8.571,3.878-13.06l-11.366-5.57
		C823.188,420.05,823.525,416.979,823.654,413.866z M749.611,472.63c-34.375,0-62.244-27.86-62.244-62.24
		c0-34.373,27.869-62.239,62.244-62.239c34.373,0,62.233,27.866,62.233,62.239C811.845,444.77,783.984,472.63,749.611,472.63z"/>
	<path fill="#4D4E4E" d="M901.008,635.708c-31.464,0-56.973-25.502-56.973-56.969c0-31.459,25.509-56.965,56.973-56.965
		c31.462,0,56.968,25.506,56.968,56.965C957.976,610.206,932.47,635.708,901.008,635.708z"/>
</g>
</svg>
