<?xml version="1.0" encoding="utf-8"?>
<!-- Generator: Adobe Illustrator 19.0.0, SVG Export Plug-In . SVG Version: 6.00 Build 0)  -->
<svg version="1.1" id="Layer_1" xmlns="http://www.w3.org/2000/svg" xmlns:xlink="http://www.w3.org/1999/xlink" x="0px" y="0px"
	 viewBox="0 0 1200 1178.7" style="enable-background:new 0 0 1200 1178.7;" xml:space="preserve">
<style type="text/css">
	.st0{fill:#FFFFFF;}
	.st1{fill:#F69C1D;}
</style>
<g id="XMLID_60_">
	<g id="XMLID_196_">
		<path id="XMLID_273_" d="M1182.1,468.2C991.2,311.4,802.3,156,626.7,11.4c-18.5-15.2-34.9-15.3-53.1-0.1L547,33.6
			c-35.2,29.5-71.7,59.9-107.8,89.6C278.9,254.9,147.7,362.3,26.4,461.4C14.6,471,5.6,479.7,0,490.6v16.3c0.1,0.2,0.2,0.4,0.3,0.6
			c4.9,10.8,13.7,24.3,27.3,27.5c13.4,3.1,27.2-5.1,36.3-12.6C183.8,424.2,303.7,326,423.5,227.9l104.6-85.6
			c14-11.4,27.9-22.9,41.8-34.3l29.8-24.4l12.8,9.7c1.3,1,2.3,1.8,3.3,2.6l115.7,95.3c98.4,81.1,196.9,162.1,295.4,243.1
			c28.1,23.1,57.1,46.3,85.1,68.7l28.3,22.7c13.7,11,26.8,12.8,41,5.6c10.8-5.5,17.4-14.5,18.6-25.5
			C1201.3,492.5,1194.6,478.5,1182.1,468.2z"/>
		<path id="XMLID_334_" d="M600.4,1178.7c-137,0-274,0-411,0c-40.7,0-61.2-20.8-61.2-61.7c0-167.9,0.1-335.9-0.1-503.8
			c0-22.5,8-39.8,25.6-54.2c135.9-111.6,271.5-223.6,407.2-335.6c27.5-22.7,51-22.6,78.8,0.4C775.4,335.6,911,447.6,1046.9,559.2
			c17.2,14.1,25.2,31.2,25.2,53.2c-0.2,168.7-0.1,337.5-0.1,506.2c0,39-21.3,60-60.6,60C874.4,1178.7,737.4,1178.7,600.4,1178.7z
			 M655,783.9c-37.4,0-73.4,0-109.5,0c0,96.7,0,192.8,0,288.7c37,0,72.9,0,109.5,0C655,976.1,655,880.3,655,783.9z"/>
		<path id="XMLID_333_" class="st0" d="M1001.2,1116.9c-74.8,0-148.9,0-224.6,0c0-5.8,0-11,0-16.1c0-116.6,0-244.7,0-361.4
			c0-43.5-23.2-66.4-67-66.4c-73.5,0-147,0-220.5,0c-41.1,0-64.9,23.6-64.9,64.6c0,117.1,0,245.6,0,362.7c0,5.2,0,10.4,0,16.4
			c-75.4,0-149.5,0-225.3,0c0-5.2,0-10.4,0-15.5c0-151,0.2-313.4-0.3-464.4c0-12.3,3.8-19.7,13.2-27.4
			c127.2-104.3,254-209.2,380.9-313.9c2.3-1.9,4.8-3.7,7.9-6.2c32.4,26.7,64.6,53.1,96.8,79.7c99.1,81.7,198.2,163.4,297.1,245.4
			c3.8,3.1,7.1,9.2,7.1,14c0.4,156.7,0.3,324.8,0.3,481.5C1001.9,1112.1,1001.5,1114.2,1001.2,1116.9z"/>
		<path id="XMLID_330_" class="st0" d="M707,736.6c0,127,0,253.2,0,380.3c-72.9,0-144.7,0-218.4,0c0-126.4,0-252.9,0-380.3
			C560.5,736.6,632.4,736.6,707,736.6z"/>
	</g>
</g>
<rect id="XMLID_1_" x="332.3" y="605.2" class="st0" width="551.8" height="511.8"/>
<path id="XMLID_928_" class="st1" d="M458.7,628c2.5-6.3,6.4-11.4,13.5-12.4c3-0.4,6.4-0.1,9.3,0.9c56.4,17.8,112.7,35.8,169,53.7
	c31.4,10,62.7,20,94.1,30c7.9,2.5,12.6,8.1,12.9,15.1c0.3,7.7-3.6,13.5-11.7,16.9c-25.4,10.9-50.7,21.9-76.1,32.8
	c-0.9,0.4-1.8,0.8-3.7,2.6c1.3,0.8,2.9,1.3,3.9,2.4c35.4,35.3,70.8,70.7,106.2,106.1c7,7,8.4,14.9,4,21.9c-1,1.6-2.3,3-3.7,4.4
	c-10.3,10.4-20.6,20.7-31,31c-7.8,7.8-17.4,7.8-25.2,0c-35.8-35.7-71.5-71.5-107.2-107.3c-1-1-1.6-2.3-2.8-4.1
	c-6.4,14.7-12.2,28.2-18,41.7c-5.5,12.8-11,25.6-16.5,38.4c-3.6,8.3-9.2,12.2-16.8,11.8c-7.7-0.4-12.9-5-15.7-13.8
	c-27.9-87.7-55.9-175.4-83.8-263c-0.2-0.6-0.6-1.1-0.8-1.6C458.7,633.1,458.7,630.6,458.7,628z"/>
</svg>
