<?xml version="1.0" encoding="utf-8"?>
<!-- Generator: Adobe Illustrator 16.0.0, SVG Export Plug-In . SVG Version: 6.00 Build 0)  -->
<!DOCTYPE svg PUBLIC "-//W3C//DTD SVG 1.1//EN" "http://www.w3.org/Graphics/SVG/1.1/DTD/svg11.dtd">
<svg version="1.1" id="Layer_1" xmlns="http://www.w3.org/2000/svg" xmlns:xlink="http://www.w3.org/1999/xlink" x="0px" y="0px"
	 viewBox="0 0 1200 1075.373" enable-background="new 0 0 1200 1075.373" xml:space="preserve">
<path fill="none" stroke="#000000" stroke-width="6" stroke-miterlimit="10" d="M579.649,953.058
	c0,22.12-17.938,40.024-40.01,40.024c-22.103,0-40.024-17.904-40.024-40.024c0-22.087,17.922-39.992,40.024-39.992
	C561.712,913.065,579.649,930.971,579.649,953.058z"/>
<g>
	<path fill="none" stroke="#000000" stroke-width="6" stroke-miterlimit="10" d="M579.649,120.832
		c0,22.087-17.938,39.992-40.01,39.992c-22.103,0-40.024-17.905-40.024-39.992c0-22.12,17.922-40.027,40.024-40.027
		C561.712,80.805,579.649,98.712,579.649,120.832z"/>
	<path fill="none" stroke="#000000" stroke-width="6" stroke-miterlimit="10" d="M165.869,538.532
		c0,22.119-17.905,40.026-40.025,40.026c-22.107,0-40.027-17.907-40.027-40.026c0-22.085,17.92-39.992,40.027-39.992
		C147.964,498.54,165.869,516.447,165.869,538.532z"/>
	<g>
		<g>
			<path d="M1013.41,751.463c-40.988,90.275-107.163,167.829-190.162,222.122c-85.349,55.829-186.189,84.899-288.085,84.194
				c-94.903-0.656-188.467-27.917-269.132-77.822c-78.317-48.454-142.707-117.954-185.857-199.233
				C35.295,696.188,15.5,599.839,21.443,504.447c5.861-94.072,38.363-185.385,92.037-262.734
				C166.003,166.023,239.057,105.43,322.52,66.658C409.628,26.191,507.684,11.785,602.9,23.017
				c92.449,10.905,181.786,48.099,255.183,105.251c72.689,56.602,130.073,132.468,164.148,218.105
				c24.304,61.079,36.568,126.459,36.659,192.159c0.016,11.606,18.016,11.608,18,0c-0.133-96.304-26.074-191.517-75.238-274.356
				c-47.557-80.135-116.333-147.214-197.289-193.263C720.497,23.209,624.105-0.601,527.723,1.399
				c-95.908,1.99-190.539,30.237-271.957,80.91c-79.122,49.243-144.822,119.333-189.16,201.268
				C20.578,368.637-1.256,465.749,2.887,562.304C6.988,657.9,37.146,751.649,89.393,831.785
				c50.91,78.085,122.279,142.372,205.172,184.975c86.977,44.701,185.712,64.491,283.205,57.684
				c101.909-7.117,200.779-43.853,282.637-104.946c72.593-54.18,131.086-126.444,168.547-208.948
				c2.028-4.468,1.322-9.648-3.229-12.314C1021.822,745.949,1015.439,746.996,1013.41,751.463L1013.41,751.463z"/>
		</g>
	</g>
	<g>
		<g>
			<g>
				<path d="M473.756,335.169c15.588,46.278,31.175,92.558,46.763,138.836c6.493,19.278,12.986,38.557,19.479,57.835
					c3.685,10.939,21.073,6.246,17.357-4.785c-15.588-46.278-31.175-92.557-46.763-138.836
					c-6.493-19.278-12.986-38.557-19.479-57.835C487.429,319.444,470.04,324.137,473.756,335.169L473.756,335.169z"/>
			</g>
		</g>
		<g>
			<g>
				<path d="M289.516,739.648c31.043-23.83,62.086-47.66,93.129-71.489c47.852-36.733,95.703-73.466,143.555-110.198
					c9.006-6.914,18.014-13.828,27.02-20.742c3.884-2.981,5.944-7.68,3.229-12.314c-2.246-3.833-8.411-6.224-12.313-3.229
					c-31.043,23.83-62.086,47.66-93.129,71.489c-47.852,36.733-95.703,73.466-143.555,110.198
					c-9.006,6.914-18.014,13.828-27.02,20.742c-3.884,2.981-5.944,7.68-3.229,12.314
					C279.448,740.253,285.613,742.644,289.516,739.648L289.516,739.648z"/>
			</g>
		</g>
	</g>
	<g>
		<g>
			<path d="M1189.469,467.094c-35.537,35.104-71.074,70.206-106.611,105.31c-7.605,7.511-15.21,15.022-22.814,22.534
				c4.243,0,8.485,0,12.729,0c-35.527-35.103-71.055-70.206-106.581-105.309c-7.603-7.512-15.204-15.023-22.807-22.535
				c-8.262-8.162-20.994,4.561-12.729,12.729c35.527,35.103,71.054,70.206,106.581,105.309c7.603,7.512,15.205,15.023,22.807,22.535
				c3.504,3.462,9.225,3.461,12.729,0c35.537-35.104,71.074-70.206,106.611-105.31c7.605-7.511,15.209-15.022,22.814-22.534
				C1210.465,471.656,1197.731,458.933,1189.469,467.094L1189.469,467.094z"/>
		</g>
	</g>
</g>
</svg>
