<?xml version="1.0" encoding="utf-8"?>
<!-- Generator: Adobe Illustrator 16.0.0, SVG Export Plug-In . SVG Version: 6.00 Build 0)  -->
<!DOCTYPE svg PUBLIC "-//W3C//DTD SVG 1.1//EN" "http://www.w3.org/Graphics/SVG/1.1/DTD/svg11.dtd">
<svg version="1.1" id="Layer_1" xmlns="http://www.w3.org/2000/svg" xmlns:xlink="http://www.w3.org/1999/xlink" x="0px" y="0px"
	 viewBox="0 0 1200 1200" enable-background="new 0 0 1200 1200" xml:space="preserve">
<path d="M908.698,623.759V537.13H823.62c-5.91-31.016-17.719-59.378-34.574-84.408l59.973-60.035l-61.143-61.006l-60.27,59.976
	c-24.801-17.2-53.469-29.019-84.189-34.866v-85.08h-86.848v85.08c-30.703,5.848-59.365,17.666-84.189,34.866l-60.254-59.976
	l-61.15,61.006l59.963,60.035c-16.84,25.03-28.943,53.393-34.557,84.408h-85.08v86.629h85.08
	c5.895,30.785,17.717,59.459,34.557,84.426l-59.963,59.959l61.15,61.286l60.254-59.958c24.824,16.979,53.486,28.799,84.488,34.863
	V889.4h86.549v-85.065c30.721-6.064,59.389-17.884,84.488-34.863l59.971,59.958l61.143-61.286l-59.973-59.959
	c17.137-24.967,28.961-53.641,34.865-84.426H908.698z M600.001,674.948c-52,0-94.545-42.321-94.545-94.54
	c0-52.049,42.244-94.229,94.545-94.229c51.984,0,94.229,42.18,94.229,94.229C694.229,632.627,651.985,674.948,600.001,674.948
	L600.001,674.948z M600.001,674.948"/>
<path fill="none" stroke="#000000" stroke-width="20" stroke-miterlimit="10" d="M1188.674,600
	c0,325.116-263.561,588.674-588.679,588.674c-325.109,0-588.669-263.558-588.669-588.674c0-325.083,263.56-588.674,588.669-588.674
	C925.113,11.326,1188.674,274.917,1188.674,600z"/>
</svg>
