<?xml version="1.0" encoding="utf-8"?>
<!-- Generator: Adobe Illustrator 16.0.0, SVG Export Plug-In . SVG Version: 6.00 Build 0)  -->
<!DOCTYPE svg PUBLIC "-//W3C//DTD SVG 1.1//EN" "http://www.w3.org/Graphics/SVG/1.1/DTD/svg11.dtd">
<svg version="1.1" id="Layer_1" xmlns="http://www.w3.org/2000/svg" xmlns:xlink="http://www.w3.org/1999/xlink" x="0px" y="0px"
	 viewBox="0 0 1200 1200" enable-background="new 0 0 1200 1200" xml:space="preserve">
<g>
	<g>
		<path d="M470.661,385.179V648.73c0,48.923,39.539,87.974,88.081,87.974c48.57,0,88.141-39.051,88.141-87.974V385.179
			c0-48.494-39.57-88.007-88.141-88.007C510.2,297.172,470.661,336.685,470.661,385.179L470.661,385.179z M470.661,385.179"/>
		<path d="M646.883,911.42c0,48.495-39.57,87.564-88.141,87.564c-48.542,0-88.081-39.069-88.081-87.564
			c0-48.923,39.539-87.993,88.081-87.993C607.313,823.427,646.883,862.497,646.883,911.42L646.883,911.42z M646.883,911.42"/>
	</g>
	<path fill="#ABABAB" d="M99.288,929.42l831.269-814.601c0,0,21.189,5.271,59.392,42.052L147.771,982.886
		C147.771,982.886,121.232,958.821,99.288,929.42z"/>
</g>
<path fill="none" stroke="#000000" stroke-width="20" stroke-miterlimit="10" d="M1188.674,600
	c0,325.116-263.561,588.674-588.679,588.674c-325.109,0-588.669-263.558-588.669-588.674c0-325.083,263.56-588.674,588.669-588.674
	C925.113,11.326,1188.674,274.917,1188.674,600z"/>
</svg>
