<?xml version="1.0" encoding="utf-8"?>
<!-- Generator: Adobe Illustrator 16.0.0, SVG Export Plug-In . SVG Version: 6.00 Build 0)  -->
<!DOCTYPE svg PUBLIC "-//W3C//DTD SVG 1.1//EN" "http://www.w3.org/Graphics/SVG/1.1/DTD/svg11.dtd">
<svg version="1.1" id="Layer_1" xmlns="http://www.w3.org/2000/svg" xmlns:xlink="http://www.w3.org/1999/xlink" x="0px" y="0px"
	 viewBox="0 0 1200 1200" enable-background="new 0 0 1200 1200" xml:space="preserve">
<path fill="none" stroke="#000000" stroke-width="20" stroke-miterlimit="10" d="M1190.403,601.35
	c0,325.116-263.561,588.674-588.679,588.674c-325.109,0-588.669-263.558-588.669-588.674c0-325.083,263.56-588.674,588.669-588.674
	C926.843,12.676,1190.403,276.267,1190.403,601.35z"/>
<path d="M952.601,653.566V556.12H856.89c-6.646-34.894-19.924-66.796-38.884-94.952l67.464-67.533l-68.783-68.621l-67.797,67.462
	c-27.894-19.346-60.145-32.642-94.705-39.219V257.55h-97.696v95.707c-34.54,6.577-66.775,19.873-94.705,39.219l-67.776-67.462
	l-68.782,68.621l67.447,67.533c-18.945,28.156-32.556,60.059-38.869,94.952h-95.71v97.446h95.71
	c6.628,34.63,19.924,66.882,38.869,94.968l-67.447,67.445l68.782,68.938l67.776-67.444c27.93,19.1,60.165,32.393,95.041,39.217
	v95.688h97.36V856.69c34.561-6.824,66.812-20.117,95.039-39.217l67.463,67.444l68.783-68.938l-67.464-67.445
	c19.274-28.086,32.571-60.338,39.22-94.968H952.601z M605.347,711.144c-58.493,0-106.345-47.606-106.345-106.344
	c0-58.548,47.518-105.996,106.345-105.996c58.478,0,105.995,47.448,105.995,105.996
	C711.342,663.537,663.824,711.144,605.347,711.144L605.347,711.144z M605.347,711.144"/>
</svg>
