<?xml version="1.0" encoding="utf-8"?>
<!-- Generator: Adobe Illustrator 16.0.0, SVG Export Plug-In . SVG Version: 6.00 Build 0)  -->
<!DOCTYPE svg PUBLIC "-//W3C//DTD SVG 1.1//EN" "http://www.w3.org/Graphics/SVG/1.1/DTD/svg11.dtd">
<svg version="1.1" id="Layer_1" xmlns="http://www.w3.org/2000/svg" xmlns:xlink="http://www.w3.org/1999/xlink" x="0px" y="0px"
	 width="1200px" height="1200px" viewBox="0 0 1200 1200" enable-background="new 0 0 1200 1200" xml:space="preserve">
<g>
	<g>
		<path fill="#B5B5B5" d="M1202.879,601.449c0,332.166-269.262,601.439-601.438,601.439C269.272,1202.889,0,933.615,0,601.449
			C0,269.284,269.272,0,601.44,0C933.617,0,1202.879,269.284,1202.879,601.449z"/>
		<path fill="#FFFFFF" d="M614.578,221.274h-32.25v-117.82c0,0-182.316-4.196-330.972,143.059c0,0-143.681,123.424-145.468,337.977
			h111.808v33.678H105.887c0,0-5.558,244.012,198.273,382.859c0,0,97.251,92.561,278.167,98.152V978.395h32.25v120.785
			c0,0,273.486,19.865,436.18-281.066c0,0,46.257-82.148,46.257-198.549H979.218v-32.25h117.797c0,0,4.22-239.825-207.543-391.289
			c0,0-127.632-92.582-274.894-92.582V221.274z"/>
	</g>
	<path fill="#B5B5B5" d="M771.352,759.877c0,0-154.675,99.639-342.545,0c0,0-23.094-72.738,47.762-92.363
		c0,0,65.152-15.969,74.636-25.998c0,0,0.639,14.537,0,0c0,0,48.708,20.857,100.584,0l0,0l84.778,26.633
		C736.566,668.148,791.573,691.564,771.352,759.877z"/>
	<path fill="#B5B5B5" d="M688.147,551.157c0,47.376-38.403,85.781-85.768,85.781c-47.376,0-85.771-38.405-85.771-85.781
		c0-47.374,38.395-85.766,85.771-85.766C649.744,465.391,688.147,503.783,688.147,551.157z"/>
	<g>
		<g>
			<defs>
				<path id="SVGID_1_" d="M798.723,747.689c0,0,9.939-61.197-44.125-96.777c0,0-28.471-9.432-81.139-25.354
					c0,0,24.196-20.754,28.467-58.19l97.512-10.388l80.407,38.15l38.429,89.943l-17.089,37.77l-39.856,24.846H798.723z"/>
			</defs>
			<clipPath id="SVGID_2_">
				<use xlink:href="#SVGID_1_"  overflow="visible"/>
			</clipPath>
			<path opacity="0.4" clip-path="url(#SVGID_2_)" fill="#B5B5B5" d="M890.912,713.518c0,0-154.669,99.625-342.538,0
				c0,0-23.083-72.752,47.751-92.352c0,0,65.153-16.004,74.654-26.035c0,0,0.634,14.539,0,0c0,0,48.705,20.869,100.572,0l0,0
				l84.766,26.646C856.117,621.777,911.157,645.193,890.912,713.518z"/>
		</g>
		<g>
			<defs>
				<path id="SVGID_3_" d="M698.254,584.94c0,0,26.731-74.838-42.203-122.906l3.152-17.075c0,0,15.809-25.687,17.709-25.503
					c1.909,0.196,74.02-21.939,77.18-20.672c3.171,1.268,57.566,36.053,57.566,36.053l46.178,57.002
					c0,0-20.883,33.459-22.139,35.996c-1.257,2.524-19.945,50.591-19.945,50.591l-95.828,22.77L698.254,584.94z"/>
			</defs>
			<clipPath id="SVGID_4_">
				<use xlink:href="#SVGID_3_"  overflow="visible"/>
			</clipPath>
			<path opacity="0.3" clip-path="url(#SVGID_4_)" fill="#B5B5B5" d="M815.752,505.235c0,47.364-38.381,85.769-85.769,85.769
				c-47.37,0-85.763-38.405-85.763-85.769c0-47.375,38.393-85.78,85.763-85.78C777.371,419.456,815.752,457.861,815.752,505.235z"/>
		</g>
	</g>
	<g>
		<g>
			<defs>
				<path id="SVGID_5_" d="M404.167,749.189c0,0-9.961-61.188,44.119-96.756c0,0,28.459-9.453,81.121-25.365
					c0,0-24.189-20.764-28.46-58.19l-97.505-10.387l-80.39,38.14l-38.439,89.941l17.087,37.76l39.845,24.857H404.167z"/>
			</defs>
			<clipPath id="SVGID_6_">
				<use xlink:href="#SVGID_5_"  overflow="visible"/>
			</clipPath>
			<path opacity="0.4" clip-path="url(#SVGID_6_)" fill="#B5B5B5" d="M311.972,715.016c0,0,154.663,99.625,342.533,0
				c0,0,23.084-72.75-47.76-92.363c0,0-65.152-15.969-74.651-26.021c0,0-0.628,14.548,0,0c0,0-48.708,20.892-100.573,0l0,0
				l-84.758,26.656C346.763,623.287,291.72,646.691,311.972,715.016z"/>
		</g>
		<g>
			<defs>
				<path id="SVGID_7_" d="M504.625,586.451c0,0-26.738-74.816,42.203-122.905l-3.152-17.074c0,0-15.814-25.713-17.721-25.504
					c-1.885,0.195-74.003-21.941-77.167-20.683c-3.166,1.268-57.561,36.063-57.561,36.063l-46.182,57.002
					c0,0,20.868,33.459,22.143,35.972c1.262,2.537,19.917,50.615,19.917,50.615l95.844,22.771L504.625,586.451z"/>
			</defs>
			<clipPath id="SVGID_8_">
				<use xlink:href="#SVGID_7_"  overflow="visible"/>
			</clipPath>
			<path opacity="0.3" clip-path="url(#SVGID_8_)" fill="#B5B5B5" d="M387.104,506.747c0,47.375,38.41,85.767,85.785,85.767
				c47.369,0,85.773-38.393,85.773-85.767c0-47.376-38.404-85.78-85.773-85.78C425.514,420.967,387.104,459.371,387.104,506.747z"/>
		</g>
	</g>
</g>
</svg>
