<?xml version="1.0" encoding="utf-8"?>
<!-- Generator: Adobe Illustrator 16.0.0, SVG Export Plug-In . SVG Version: 6.00 Build 0)  -->
<!DOCTYPE svg PUBLIC "-//W3C//DTD SVG 1.1//EN" "http://www.w3.org/Graphics/SVG/1.1/DTD/svg11.dtd">
<svg version="1.1" id="Layer_1" xmlns="http://www.w3.org/2000/svg" xmlns:xlink="http://www.w3.org/1999/xlink" x="0px" y="0px"
	 width="1200px" height="1200px" viewBox="0 0 1200 1200" enable-background="new 0 0 1200 1200" xml:space="preserve">
<path fill="#B5B5B5" d="M1103.697,602.226c0,278.166-225.553,503.663-503.731,503.663c-278.167,0-503.663-225.497-503.663-503.663
	c0-278.201,225.497-503.697,503.663-503.697C878.145,98.528,1103.697,324.024,1103.697,602.226z"/>
<path fill="#B5B5B5" d="M599.989,1199.988c-329.605,0-597.763-268.157-597.763-597.763c0-329.629,268.157-597.798,597.763-597.798
	c329.628,0,597.787,268.169,597.787,597.798C1197.775,931.831,929.617,1199.988,599.989,1199.988z M599.989,16.318
	c-323.051,0-585.873,262.839-585.873,585.907c0,323.057,262.822,585.872,585.873,585.872c323.056,0,585.896-262.815,585.896-585.872
	C1185.885,279.157,923.045,16.318,599.989,16.318z"/>
<g>
	<path fill="#FEFEFE" d="M521.591,426.125v79.109h-57.965v96.771h57.965v287.642h119.1V602.052h79.946
		c0,0,7.501-46.377,11.146-97.143h-90.616v-66.186c0-9.894,12.993-23.2,25.87-23.2h64.874V314.77H643.64
		C518.688,314.77,521.591,411.634,521.591,426.125L521.591,426.125z M521.591,426.125"/>
</g>
</svg>
