<?xml version="1.0" encoding="utf-8"?>
<!-- Generator: Adobe Illustrator 16.0.0, SVG Export Plug-In . SVG Version: 6.00 Build 0)  -->
<!DOCTYPE svg PUBLIC "-//W3C//DTD SVG 1.1//EN" "http://www.w3.org/Graphics/SVG/1.1/DTD/svg11.dtd">
<svg version="1.1" id="Layer_1" xmlns="http://www.w3.org/2000/svg" xmlns:xlink="http://www.w3.org/1999/xlink" x="0px" y="0px"
	 width="1200px" height="1200px" viewBox="0 0 1200 1200" enable-background="new 0 0 1200 1200" xml:space="preserve">
<path fill="#454546" d="M326.806,577.71c0,33.002-26.78,59.77-59.771,59.77c-33.014,0-59.768-26.768-59.768-59.77
	c0-33.001,26.754-59.769,59.768-59.769C300.026,517.942,326.806,544.709,326.806,577.71z"/>
<path fill="#454546" d="M550.143,406.996c0,33.028-26.779,59.769-59.771,59.769c-33.014,0-59.743-26.741-59.743-59.769
	c0-33.036,26.729-59.759,59.743-59.759C523.363,347.236,550.143,373.959,550.143,406.996z"/>
<path fill="#454546" d="M787.863,480.487c0,33-26.754,59.751-59.746,59.751c-33.039,0-59.818-26.75-59.818-59.751
	c0-33.022,26.779-59.776,59.818-59.776C761.109,420.711,787.863,447.465,787.863,480.487z"/>
<path fill="#454546" d="M1000.134,360.954c0,33.009-26.753,59.757-59.742,59.757c-33.015,0-59.796-26.749-59.796-59.757
	c0-33.028,26.781-59.771,59.796-59.771C973.381,301.183,1000.134,327.926,1000.134,360.954z"/>
<rect x="383.534" y="546.024" fill="#454546" width="106.838" height="360.197"/>
<rect x="257.018" y="668.08" fill="#454546" width="106.84" height="238.141"/>
<polygon fill="#454546" points="303.705,562.136 290.903,546.831 440.978,421.177 453.78,436.485 "/>
<polygon fill="#454546" points="508.923,409.187 516.207,390.59 698.475,461.877 691.219,480.467 "/>
<polygon fill="#454546" points="909.089,359.439 919.872,376.234 755.178,482 744.397,465.205 "/>
<rect x="509.947" y="498.757" fill="#454546" width="106.813" height="406.351"/>
<rect x="637.557" y="581.416" fill="#454546" width="106.841" height="323.691"/>
<rect x="762.182" y="581.416" fill="#454546" width="106.839" height="323.691"/>
<rect x="886.959" y="466.949" fill="#454546" width="106.813" height="437.469"/>
<path fill="#454546" d="M1022.366,1198.999H185.034c-97.396,0-176.625-79.243-176.625-176.625V185.031
	C8.408,87.64,87.638,8.405,185.034,8.405h837.333c97.397,0,176.626,79.235,176.626,176.626v837.343
	C1198.992,1119.756,1119.764,1198.999,1022.366,1198.999z M185.034,47.655c-75.752,0-137.376,61.629-137.376,137.376v837.343
	c0,75.738,61.624,137.374,137.376,137.374h837.333c75.753,0,137.376-61.636,137.376-137.374V185.031
	c0-75.747-61.623-137.376-137.376-137.376H185.034z"/>
</svg>
