<?xml version="1.0" encoding="utf-8"?>
<!-- Generator: Adobe Illustrator 16.0.0, SVG Export Plug-In . SVG Version: 6.00 Build 0)  -->
<!DOCTYPE svg PUBLIC "-//W3C//DTD SVG 1.1//EN" "http://www.w3.org/Graphics/SVG/1.1/DTD/svg11.dtd">
<svg version="1.1" id="Layer_1" xmlns="http://www.w3.org/2000/svg" xmlns:xlink="http://www.w3.org/1999/xlink" x="0px" y="0px"
	 viewBox="0 0 1200 1200" enable-background="new 0 0 1200 1200" xml:space="preserve">
<g>
	<path d="M932.223,810.753c0,0-300.781,193.715-666.127,0c0,0-44.887-141.49,92.891-179.629c0,0,126.674-31.066,145.115-50.568
		c0,0,1.25,28.285,0,0c0,0,94.748,40.578,195.596,0l0,0l164.871,51.818C864.568,632.374,971.504,677.915,932.223,810.753z"/>
	<path d="M770.41,404.899c0,92.09-74.686,166.77-166.775,166.77c-92.154,0-166.793-74.68-166.793-166.77
		c0-92.16,74.639-166.84,166.793-166.84C695.725,238.06,770.41,312.739,770.41,404.899z"/>
</g>
<path fill="none" stroke="#000000" stroke-width="20" stroke-miterlimit="10" d="M1188.674,600
	c0,325.116-263.561,588.674-588.679,588.674c-325.109,0-588.669-263.558-588.669-588.674c0-325.083,263.56-588.674,588.669-588.674
	C925.113,11.326,1188.674,274.917,1188.674,600z"/>
</svg>
