<?xml version="1.0" encoding="utf-8"?>
<!-- Generator: Adobe Illustrator 16.0.0, SVG Export Plug-In . SVG Version: 6.00 Build 0)  -->
<!DOCTYPE svg PUBLIC "-//W3C//DTD SVG 1.1//EN" "http://www.w3.org/Graphics/SVG/1.1/DTD/svg11.dtd">
<svg version="1.1" id="Layer_1" xmlns="http://www.w3.org/2000/svg" xmlns:xlink="http://www.w3.org/1999/xlink" x="0px" y="0px"
	 viewBox="0 0 1200 1200" enable-background="new 0 0 1200 1200" xml:space="preserve">
<path fill="none" stroke="#000000" stroke-width="20" stroke-miterlimit="10" d="M1190.992,602.184
	c0,325.336-263.737,589.068-589.065,589.068c-325.297,0-589.036-263.732-589.036-589.068c0-325.299,263.739-589.063,589.036-589.063
	C927.255,13.12,1190.992,276.885,1190.992,602.184z"/>
<g>
	<path d="M815.202,874.055c-24.622-9.865-52.968-14.924-84.339-14.924c-76.914,0-150.234,29.488-172.282,39.246V757.501
		l10.246,11.227V557.106c38.902-32.718,86.023-50.26,140.568-52.447l10.567-17.76c-64.093,0-119.314,19.588-164.289,58.152
		c-44.985-38.564-100.303-58.152-164.622-58.152c-59.952,0-104.938,17.473-106.837,18.261l-5.525,2.081v35.48
		c-18.099,3.371-29.45,9.434-29.45,19.336v365.236h268.98c9.334,8.322,22.949,13.703,38.119,13.703
		c15.3,0,28.893-5.381,38.119-13.703H856.69V562.452l-41.488,85.846V874.055z M552.734,898.629
		c-22.263-9.219-99.177-38.457-176.198-38.457c-30.47,0-57.345,4.592-80.412,13.811V519.296
		c13.379-4.484,49.942-14.924,94.928-14.924c59.137,0,109.97,17.758,151.565,52.734v211.621l10.117-11.227V898.629z
		 M552.734,898.629"/>
	<path d="M330.649,565.968l3.615,13.631c90.852-24.069,172.604,20.449,173.398,20.916l6.845-12.268
		C511.031,586.308,427.133,540.354,330.649,565.968L330.649,565.968z M330.649,565.968"/>
	<path d="M330.649,605.896l3.615,13.74c90.852-24.18,172.604,20.447,173.398,20.913l6.845-12.41
		C511.031,626.272,427.133,580.353,330.649,605.896L330.649,605.896z M330.649,605.896"/>
	<path d="M330.649,643.456l3.615,13.738c90.852-24.07,172.604,20.449,173.398,20.916l6.845-12.375
		C511.031,663.833,427.133,617.948,330.649,643.456L330.649,643.456z M330.649,643.456"/>
	<path d="M330.649,684.604l3.615,13.738c90.852-24.178,172.604,20.448,173.398,20.915l6.845-12.376
		C511.031,704.98,427.133,659.097,330.649,684.604L330.649,684.604z M330.649,684.604"/>
	<path d="M330.649,722.847l3.615,13.631c90.852-24.072,172.604,20.449,173.398,20.916l6.845-12.379
		C511.031,743.078,427.133,697.231,330.649,722.847L330.649,722.847z M330.649,722.847"/>
	<path d="M330.649,761.985l3.615,13.596c90.852-24.035,172.604,20.484,173.398,20.913l6.845-12.231
		C511.031,782.217,427.133,736.478,330.649,761.985L330.649,761.985z M330.649,761.985"/>
	<path d="M330.649,801.231l3.615,13.596c90.852-24.035,172.604,20.483,173.398,20.915l6.845-12.233
		C511.031,821.462,427.133,775.653,330.649,801.231L330.649,801.231z M330.649,801.231"/>
	<path d="M856.036,255.942l-42.637,87.498l0.226,0.107L681.951,614.685l-11.479,142.709l112.684-90.978L916.191,393.34l0.215,0.146
		l42.508-87.605L856.036,255.942z M775.517,658.882l-64.329,106.995l-25.417-67.425l6.19-79.965l6.062-12.34l11.694,41.828
		l26.104-16.752l5.16,31.818l38.913-13.164L775.517,658.882z M914.615,348.175l-64.556-31.39l15.75-32.251l64.533,31.248
		L914.615,348.175z M914.615,348.175"/>
</g>
</svg>
